<?xml version="1.0" encoding="UTF-8" standalone="no"?>
<!-- Created with Inkscape (http://www.inkscape.org/) -->

<svg
   xmlns:dc="http://purl.org/dc/elements/1.1/"
   xmlns:cc="http://creativecommons.org/ns#"
   xmlns:rdf="http://www.w3.org/1999/02/22-rdf-syntax-ns#"
   xmlns:svg="http://www.w3.org/2000/svg"
   xmlns="http://www.w3.org/2000/svg"
   xmlns:xlink="http://www.w3.org/1999/xlink"
   xmlns:sodipodi="http://sodipodi.sourceforge.net/DTD/sodipodi-0.dtd"
   xmlns:inkscape="http://www.inkscape.org/namespaces/inkscape"
   width="90"
   height="90"
   id="svg2"
   version="1.1"
   inkscape:version="0.48.4 r9939"
   sodipodi:docname="agniShine.svg"
   inkscape:export-filename="C:\Users\Stephen\Desktop\neonair\csc\Roll20API\myFork\roll20-api-scripts\AreasOfEffect\sampleEffectGraphics\agniShine.png"
   inkscape:export-xdpi="300"
   inkscape:export-ydpi="300">
  <defs
     id="defs4">
    <linearGradient
       id="linearGradient3760">
      <stop
         style="stop-color:#ffe634;stop-opacity:0;"
         offset="0"
         id="stop3762" />
      <stop
         style="stop-color:#ff4747;stop-opacity:0.54724407;"
         offset="1"
         id="stop3764" />
    </linearGradient>
    <radialGradient
       inkscape:collect="always"
       xlink:href="#linearGradient3760"
       id="radialGradient3766"
       cx="2.9148049"
       cy="87.434708"
       fx="2.9148049"
       fy="87.434708"
       r="43.0625"
       gradientTransform="matrix(1.9860919,-6.8834101e-5,6.8811177e-5,1.9851848,-1.9017382,875.6103)"
       gradientUnits="userSpaceOnUse" />
    <filter
       inkscape:collect="always"
       id="filter3801">
      <feGaussianBlur
         inkscape:collect="always"
         stdDeviation="0.57756562"
         id="feGaussianBlur3803" />
    </filter>
    <filter
       inkscape:collect="always"
       id="filter3809">
      <feGaussianBlur
         inkscape:collect="always"
         stdDeviation="0.49039414"
         id="feGaussianBlur3811" />
    </filter>
    <filter
       inkscape:collect="always"
       id="filter3813">
      <feGaussianBlur
         inkscape:collect="always"
         stdDeviation="0.49039414"
         id="feGaussianBlur3815" />
    </filter>
    <filter
       inkscape:collect="always"
       id="filter3817">
      <feGaussianBlur
         inkscape:collect="always"
         stdDeviation="0.99776216"
         id="feGaussianBlur3819" />
    </filter>
  </defs>
  <sodipodi:namedview
     id="base"
     pagecolor="#ffffff"
     bordercolor="#666666"
     borderopacity="1.0"
     inkscape:pageopacity="0.0"
     inkscape:pageshadow="2"
     inkscape:zoom="7.9195959"
     inkscape:cx="47.612849"
     inkscape:cy="43.994266"
     inkscape:document-units="px"
     inkscape:current-layer="layer1"
     showgrid="false"
     units="in"
     borderlayer="true"
     inkscape:window-width="1920"
     inkscape:window-height="1058"
     inkscape:window-x="1592"
     inkscape:window-y="-8"
     inkscape:window-maximized="1" />
  <metadata
     id="metadata7">
    <rdf:RDF>
      <cc:Work
         rdf:about="">
        <dc:format>image/svg+xml</dc:format>
        <dc:type
           rdf:resource="http://purl.org/dc/dcmitype/StillImage" />
        <dc:title></dc:title>
      </cc:Work>
    </rdf:RDF>
  </metadata>
  <g
     inkscape:label="Layer 1"
     inkscape:groupmode="layer"
     id="layer1"
     transform="translate(0,-962.35975)">
    <path
       style="fill:url(#radialGradient3766);fill-opacity:1;stroke:none"
       d="m 6.2977004,965.05298 c -0.9298897,0 -1.8568412,0.0301 -2.7792009,0.0611 l 0,84.78083 84.1090005,0 c 0.0478,-1.1452 0.06108,-2.294 0.06108,-3.451 0,-44.9602 -36.43073,-81.39091 -81.3908816,-81.39091 z"
       id="path3755"
       inkscape:connector-curvature="0" />
    <path
       style="fill:#ff4747;fill-opacity:0.69841273;stroke:none;filter:url(#filter3801)"
       d="m 25.25,0.34375 c 0,0 0.01396,2.4171949 -1.375,4.4375 -1.38896,2.020305 -4.047271,0.3783305 -5.5625,3.15625 -1.515229,2.777919 -1.000477,4.404504 2.15625,7.6875 0,0 -1.013959,-3.266021 0.375,-4.78125 C 22.23271,9.3285213 25.243655,8.0490169 25.875,6.28125 26.506345,4.513483 25.25,0.34375 25.25,0.34375 z m -22.21875,0.375 c 0,0 -2.28886439,9.620716 -1.53125,13.15625 0.7576144,3.535534 4.8213835,12.248254 3.9375,15.53125 -0.8838834,3.282996 -1.40625,8.8125 -1.40625,8.8125 l -2.25,-1.375 c 0,0 4.2761737,9.344542 4.78125,12.375 0.5050762,3.030458 -0.375,8.59375 -0.375,8.59375 0,0 -1.7787119,-5.325983 -2.03125,-7.09375 -0.2525382,-1.767767 -1.875,-3.28125 -1.875,-3.28125 0,0 1.7550763,13.658311 1.25,16.5625 C 3.0261737,66.904188 0.74746191,75.236833 1,79.65625 1.2525382,84.075668 2.15625,89.25 2.15625,89.25 c 0,0 2.0256971,0.0038 5.6875,-0.375 3.661803,-0.378807 7.297271,-1.901174 8.8125,-2.40625 1.515229,-0.505076 9.845811,0.866117 12.75,1.75 2.904189,0.883884 7.96875,0 7.96875,0 0,0 -5.801555,-1.996193 -3.78125,-2.375 2.020305,-0.378807 7.836928,3.279981 11.625,3.40625 3.788073,0.126269 2.499523,-2.021098 5.65625,-3.03125 3.156726,-1.010153 8.47668,0.764752 13.90625,2.40625 5.42957,1.641498 9.46875,-0.28125 9.46875,-0.28125 0,0 -9.845019,-2.397366 -9.71875,-3.28125 0.126269,-0.883883 6.317099,-0.355172 8.96875,0.78125 2.65165,1.136421 4.161642,2.777443 9.84375,3.15625 5.682108,0.378808 5.8125,-2.40625 5.8125,-2.40625 0,0 -3.917195,1.130077 -5.9375,0.625 -2.020305,-0.505076 -1.147844,-2.894828 1.125,-4.03125 2.272843,-1.136421 4.5625,-0.125 4.5625,-0.125 0,0 -4.317099,-2.533788 -6.96875,-2.28125 -2.65165,0.252538 -4.024112,-4.154981 -1.625,-4.28125 2.399113,-0.126269 4.532519,-1.643559 4.40625,-2.90625 C 84.592481,72.331059 88.5,70.4375 88.5,70.4375 c 0,0 -2.510944,-1.901174 -4.53125,-2.40625 -2.020305,-0.505076 -1.763483,2.902443 -3.53125,3.28125 -1.767767,0.378807 -3.657519,-2.39229 -3.53125,-3.78125 0.126269,-1.38896 3.269828,-0.766022 4.40625,-2.28125 1.136422,-1.515229 -2.649112,-5.931155 -0.25,-6.5625 2.399112,-0.631345 5.6875,1.625 5.6875,1.625 0,0 -2.644828,-2.635945 -3.78125,-4.65625 -1.136422,-2.020305 -3.055678,-2.288865 -6.84375,-1.53125 -3.788072,0.757614 -0.738578,4.546002 -1.875,6.1875 -1.136421,1.641498 -5.422271,-0.732233 -6.9375,-2.5 -1.515228,-1.767767 1.75333,-5.306154 4.53125,-5.9375 2.777919,-0.631345 4.309962,-4.426078 4.5625,-5.5625 C 76.658788,45.176079 74.76269,42.386421 73.5,41.25 c -1.262691,-1.136422 4.28125,-3.53125 4.28125,-3.53125 0,0 -3.532043,0.399905 -6.5625,1.03125 -3.030458,0.631346 0.119924,3.884675 0.625,6.03125 0.505076,2.146574 -5.165926,2.021575 -7.3125,-0.125 -2.146574,-2.146574 1.001269,-4.012214 0.875,-5.90625 -0.126269,-1.894036 -1.892767,-5.057423 -0.125,-5.5625 1.767767,-0.505076 7.3125,3.15625 7.3125,3.15625 0,0 -1.639753,-3.29854 -3.28125,-4.6875 -1.641498,-1.388959 -5.408311,-1.877539 -8.3125,-1.625 -2.904189,0.252538 -6.570907,3.520305 -8.84375,1.5 -2.272843,-2.020305 5.053617,-4.792195 5.9375,-6.8125 0.883884,-2.020305 -1.28125,-4.40625 -1.28125,-4.40625 0,0 -0.368178,3.768559 -4.15625,5.03125 -3.788073,1.262691 -2.283788,-6.042195 -2.03125,-8.0625 0.252539,-2.020305 -2.25,-5.5625 -2.25,-5.5625 0,0 -0.0211,1.005868 -1.03125,3.53125 -1.010153,2.525381 -3.524428,1.014752 -7.3125,2.65625 -3.788072,1.641498 0.382615,5.681947 -0.375,9.34375 -0.757614,3.661803 -7.32979,-2.03458 -8.71875,-4.8125 -1.38896,-2.777919 3.529981,-5.418464 3.65625,-7.3125 0.126269,-1.894036 -3.540133,-2.919733 -2.65625,-4.6875 0.883884,-1.767767 7.96875,-2.625 7.96875,-2.625 0,0 -4.939561,-1.0337882 -7.84375,-0.78125 -2.904188,0.2525381 -7.177348,1.654504 -8.1875,4.9375 -1.010153,3.282996 2.021574,6.322176 -0.125,8.46875 C 21.603426,22.584074 18.946383,19.026651 18.0625,16.375 17.178616,13.72335 13.903712,8.3028242 14.15625,6.15625 14.408788,4.0096758 17.036326,1.7474619 16.53125,2 16.026174,2.2525382 12.742862,1.2411165 10.34375,2.125 7.9446373,3.0088835 5.9387691,7.1811547 5.8125,7.8125 5.686231,8.4438453 5.2901335,12.089151 4.40625,9.4375 3.5223665,6.7858495 3.03125,0.71875 3.03125,0.71875 z m 29.15625,2.375 c -0.899667,0.017757 -1.621193,0.061548 -2,0.15625 -1.515228,0.3788072 -1.90625,2.15625 -1.90625,2.15625 -0.378807,1.6414979 1.899904,0.3851525 2.53125,-0.625 C 31.443845,3.7710974 39.03125,3.25 39.03125,3.25 c 0,0 -4.144749,-0.2095198 -6.84375,-0.15625 z m 12.375,3.3125 c 0,0 -0.482233,3.2985405 -2.25,4.6875 -1.767767,1.38896 -3.172271,-0.88769 -4.6875,0.375 -1.515228,1.262691 -1.500476,3.397366 1.65625,4.28125 1.767767,0.505076 3.893559,-0.888483 5.15625,-2.65625 1.262691,-1.767767 0.125,-6.6875 0.125,-6.6875 z M 61.625,7.6875 c 0,0 -0.635945,2.3796 -2.65625,5.03125 -2.020305,2.651651 -3.157043,1.641021 -6.1875,3.15625 -3.030458,1.515229 -1.003807,5.311231 -0.625,5.4375 0,0 0.113578,-1.518559 1.25,-2.78125 1.136422,-1.26269 3.280774,0.492863 6.4375,-1.90625 C 63.000477,14.225888 61.625,7.6875 61.625,7.6875 z M 1.65625,19.40625 c 0,0 0.9987309,5.6921 1.125,8.34375 0.1262691,2.651651 -0.8889598,5.807423 0.5,6.3125 1.3889597,0.505076 1.1288072,-4.91085 0.75,-7.5625 -0.3788072,-2.651651 -2.375,-7.09375 -2.375,-7.09375 z m 63.75,0.90625 c 0,0 0.01142,4.019828 -1.125,5.15625 -1.136422,1.136422 -2.542195,-0.631345 -4.5625,0 -2.020305,0.631345 -2.779981,3.151174 -2.90625,3.65625 0,0 1.387214,-1.369924 3.28125,-1.875 1.894036,-0.505076 3.668464,1.517767 5.5625,-0.25 1.894036,-1.767767 -0.25,-6.6875 -0.25,-6.6875 z m 5.28125,16.03125 c -0.497184,0.05327 -1.613578,0.417512 -2.75,2.40625 -1.515229,2.651651 0.23271,2.133406 -1.15625,4.40625 0,0 0.391021,1.380076 1.90625,0.875 1.515229,-0.505076 0.0038,-3.271098 -0.375,-4.28125 -0.378807,-1.010153 2.65625,-3.40625 2.65625,-3.40625 0,0 -0.115522,-0.01776 -0.28125,0 z m 11.5,1.125 c 0,0 -1.37833,3.914657 -4.15625,6.1875 -2.020305,3.914341 2.639752,1.396575 4.28125,-0.75 1.641497,-2.146574 -0.125,-5.4375 -0.125,-5.4375 z m 1.28125,9.84375 c 0,0 -1.141021,1.776174 -2.65625,2.28125 -1.515229,0.505076 -2.639752,-1.885153 -4.28125,-0.875 C 74.889753,49.728902 75.875,51.625 75.875,51.625 c 0,0 2.917195,1.005077 4.9375,0.5 2.020305,-0.505076 2.65625,-4.8125 2.65625,-4.8125 z M 83.03125,63.25 c -0.343849,0.06132 -0.624048,0.269868 -0.71875,0.625 0.631345,1.894036 -1.75,4.15625 -1.75,4.15625 0,0 3.402442,-1.772367 3.78125,-2.65625 C 84.722557,64.491116 87.75,65 87.75,65 c 0,0 -3.228738,-2.015702 -4.71875,-1.75 z m -29.9375,23.4375 c -0.173867,-0.0046 -0.311231,0.01547 -0.4375,0.03125 -2.020306,0.252538 -2.265229,1.246193 -0.75,1.625 0,0 1.768559,0.0013 3.03125,-0.125 C 56.20019,88.092481 63.25,89 63.25,89 c 0,0 -7.548251,-2.243138 -10.15625,-2.3125 z"
       transform="matrix(0.97730138,0,0,0.97730138,1.0447054,963.40378)"
       id="path3768"
       inkscape:connector-curvature="0" />
    <path
       style="fill:#ff474a;fill-opacity:0.69841273;stroke:none;filter:url(#filter3813)"
       d="m 2.0203051,1051.7284 c -1.26269069,-7.9549 -0.5050763,-14.7735 0.8838834,-18.1827 1.3889598,-3.4093 0.8838835,-15.5311 0.8838835,-15.5311 0,0 1.767767,2.3991 2.7779195,5.6821 1.0101526,3.283 0.2525382,6.4397 0.2525382,6.4397 0,0 3.0304576,-0.7576 2.2728432,-6.3135 -0.7576144,-5.5558 -1.1364216,-11.743 -1.894036,-15.6573 -0.7576144,-3.9144 3.1567271,-10.60663 4.6719551,-14.26843 1.515229,-3.6618 -3.0304572,-14.77348 -3.0304572,-14.77348 0,0 9.3439112,4.92449 12.6269072,10.10153 3.282995,5.17703 -2.272844,12.24808 0.505076,12.87948 2.777919,0.6313 4.545686,0 4.04061,-3.78811 -0.505076,-3.78807 6.187185,-4.92449 8.081221,-4.54569 1.894036,0.37881 5.934646,2.02031 7.323605,-0.25254 1.38896,-2.27284 2.399113,-7.57614 2.399113,-7.57614 0,0 2.146574,6.43972 1.26269,9.09137 -0.883883,2.65165 -7.828682,4.29315 -9.343911,5.68211 -1.515228,1.389 -4.293148,9.4702 -0.252538,9.4702 4.04061,0 2.020305,-1.0102 6.313454,-4.0406 4.293148,-3.0305 9.722718,0.2525 11.616754,-2.9042 1.894036,-3.1567 1.38896,-5.80839 1.38896,-6.31347 0,-0.50508 3.535534,3.40927 2.525381,6.94477 -1.010152,3.5356 -7.071068,5.1771 -5.050763,7.0711 2.020305,1.894 16.28871,0.1263 16.28871,0.1263 0,0 -7.071068,1.3889 -6.69226,3.9143 0.378807,2.5254 -4.16688,2.3991 -3.535534,4.4194 0.631345,2.0203 7.197337,6.6923 9.722718,6.1872 2.525381,-0.5051 4.419417,-1.6415 6.944799,-0.5051 2.525381,1.1365 3.661803,2.778 3.661803,2.778 0,0 -5.050763,-1.8941 -6.692261,-1.1365 -1.641498,0.7576 -0.126269,6.3135 -4.419417,6.0609 -4.293149,-0.2525 -8.333759,0.1263 -6.060916,1.7678 2.272844,1.6415 7.071068,1.5152 10.101526,0.8839 3.030457,-0.6314 7.323606,0.7576 7.323606,0.7576 0,0 -8.838835,0.5051 -7.576144,3.0305 1.26269,2.5253 7.576144,5.8083 7.576144,5.8083 0,0 -9.722718,-3.0304 -12.121831,-2.2728 -2.399112,0.7576 -6.565991,2.0203 -4.798224,2.6517 1.767767,0.6313 5.050762,0.505 5.050762,0.505 0,0 -1.010152,1.389 -4.671955,2.0203 -3.661803,0.6314 -9.596449,-1.7677 -12.879445,-2.5253 -3.282996,-0.7577 -11.743023,0.7576 -9.596449,1.7677 2.146574,1.0102 8.712565,2.2729 8.712565,2.2729 0,0 -4.166879,1.7677 -8.838834,1.0101 -4.671956,-0.7576 -6.313454,-4.2931 -10.480333,-3.1567 -4.166879,1.1364 0.757614,2.0203 0.757614,2.0203 0,0 -4.671955,0.5051 -10.227794,0.3788 -5.555839,-0.1263 -13.2582525,2.3991 -17.8039389,2.0203 z"
       id="path3793"
       inkscape:connector-curvature="0"
       transform="matrix(0.97730138,0,0,0.97730138,1.0447054,22.888259)" />
    <path
       style="fill:#ff8a47;fill-opacity:0.69841273;stroke:none;filter:url(#filter3809)"
       d="M 3.0304576,88.484771 C 2.1465742,80.656089 2.7779195,78.004439 3.7880721,74.847712 4.7982246,71.690985 6.0609153,64.746186 6.0609153,64.746186 c 0,0 1.894036,2.77792 1.2626907,5.050763 -0.6313454,2.272843 1.0101525,4.798225 1.5152288,4.293148 C 9.3439111,73.585021 13.258252,70.049487 11.616754,62.978419 9.9752564,55.907352 9.7227183,47.321055 9.7227183,47.321055 c 0,0 1.3889597,8.460027 3.1567267,9.217642 1.767767,0.757614 -0.631345,-5.177032 0.126269,-8.586297 0.757614,-3.409265 3.661803,-11.490485 3.661803,-11.490485 0,0 -2.904189,11.869292 1.641498,14.015867 4.545686,2.146574 7.449875,1.010152 6.944799,-2.272844 -0.505077,-3.282995 7.197337,-9.722718 7.197337,-9.722718 0,0 -4.798225,10.354064 -2.146575,14.015867 2.651651,3.661803 6.313454,-1.136422 6.313454,-1.136422 0,0 -0.126269,8.20749 2.020305,5.555839 2.146574,-2.65165 0.505076,-5.682108 3.156727,-7.954951 2.65165,-2.272843 8.712565,-4.671956 8.712565,-4.671956 0,0 -4.166879,3.661803 -3.661803,6.187185 0.505077,2.525381 2.020305,5.42957 4.798225,3.535534 2.777919,-1.894037 7.197337,-2.399113 7.197337,-2.399113 0,0 -6.439723,3.914341 -7.071068,6.565992 -0.631345,2.65165 10.85914,6.69226 10.85914,6.69226 0,0 -7.071068,-0.883883 -10.354064,1.38896 -3.282995,2.272843 4.16688,4.419418 5.050763,4.166879 0.883884,-0.252538 5.808377,5.555839 5.808377,5.555839 0,0 -4.671955,-4.04061 -6.313453,-3.030457 -1.641498,1.010152 1.641498,4.798224 4.798224,4.798224 3.156727,0 8.333759,0.252539 8.333759,0.252539 0,0 -7.576144,4.293148 -11.743023,3.914341 -4.16688,-0.378808 -11.237948,-2.272844 -16.414979,-1.894036 -5.177032,0.378807 -1.767767,6.313453 -1.767767,6.313453 0,0 -4.419418,-0.631345 -5.934647,-2.904189 -1.515228,-2.272843 -11.490485,1.515229 -15.404826,2.77792 -3.914341,1.262691 -10.1015254,3.282996 -15.6573644,2.272843 z"
       id="path3795"
       inkscape:connector-curvature="0"
       transform="matrix(0.97730138,0,0,0.97730138,1.0447054,963.40378)" />
    <path
       style="fill:#ffeb5a;fill-opacity:0.47089945;stroke:none;filter:url(#filter3817)"
       d="m 3.661803,1049.9606 c -0.1262691,-0.505 -1.7677669,-6.0609 -0.7576144,-9.849 1.0101525,-3.788 7.0710683,-10.6066 7.0710683,-10.6066 0,0 -3.4092653,4.7983 -2.3991128,7.3236 1.0101526,2.5254 4.5456859,-1.3889 3.6618029,-5.8083 -0.883883,-4.4194 -1.136421,-9.9753 -0.883883,-13.2583 0.252537,-3.283 2.020304,-6.1872 2.020304,-6.1872 0,0 -2.020304,9.9753 1.515229,12.3744 3.535534,2.3991 3.788072,-10.9854 3.788072,-10.9854 0,0 4.16688,2.3991 4.924494,5.4296 0.757614,3.0304 0.757614,7.4498 2.272843,7.7024 1.515229,0.2525 3.030458,-15.4049 3.030458,-15.4049 0,0 1.262691,10.9855 3.788072,11.4905 2.525381,0.5051 4.545686,-1.3889 8.08122,-1.6415 3.535534,-0.2525 5.808377,-4.1668 5.808377,-4.1668 0,0 0,4.7982 -1.641497,6.5659 -1.641498,1.7678 -9.091373,1.7678 -8.586297,3.7881 0.505076,2.0203 7.576144,4.5457 9.975256,2.6517 2.399113,-1.8941 8.460028,-5.5559 8.460028,-5.5559 0,0 -2.77792,6.3135 -4.419418,7.1974 -1.641497,0.8839 -10.480332,3.0304 -7.954951,4.7982 2.525382,1.7678 12.879445,-1.7678 12.879445,-1.7678 0,0 0.757615,3.5356 -3.156727,4.2932 -3.914341,0.7576 -11.743023,0.5051 -12.626906,1.7677 -0.883884,1.2627 5.050762,4.2932 5.050762,4.2932 0,0 -4.924493,2.0203 -14.015866,2.9042 -9.091373,0.8839 -15.783634,-1.6415 -17.425132,-0.8839 -1.641498,0.7576 9.975257,3.5355 9.975257,3.5355 0,0 -7.197337,1.389 -10.732871,0.3788 -3.5355337,-1.0101 -7.702413,-0.3788 -7.702413,-0.3788 z"
       id="path3799"
       inkscape:connector-curvature="0"
       transform="matrix(0.97730138,0,0,0.97730138,1.0447054,22.888259)" />
  </g>
</svg>
