<?xml version="1.0" encoding="UTF-8" standalone="no"?>
<!-- Created with Inkscape (http://www.inkscape.org/) -->

<svg
   xmlns:dc="http://purl.org/dc/elements/1.1/"
   xmlns:cc="http://creativecommons.org/ns#"
   xmlns:rdf="http://www.w3.org/1999/02/22-rdf-syntax-ns#"
   xmlns:svg="http://www.w3.org/2000/svg"
   xmlns="http://www.w3.org/2000/svg"
   xmlns:xlink="http://www.w3.org/1999/xlink"
   xmlns:sodipodi="http://sodipodi.sourceforge.net/DTD/sodipodi-0.dtd"
   xmlns:inkscape="http://www.inkscape.org/namespaces/inkscape"
   width="90"
   height="90"
   id="svg6578"
   version="1.1"
   inkscape:version="0.48.4 r9939"
   sodipodi:docname="New document 10">
  <defs
     id="defs6580">
    <linearGradient
       id="linearGradient7096">
      <stop
         style="stop-color:#fdffc9;stop-opacity:0;"
         offset="0"
         id="stop7098" />
      <stop
         id="stop7104"
         offset="0.80000001"
         style="stop-color:#fde07b;stop-opacity:0.49803922;" />
      <stop
         style="stop-color:#fdc12d;stop-opacity:1;"
         offset="1"
         id="stop7100" />
    </linearGradient>
    <radialGradient
       inkscape:collect="always"
       xlink:href="#linearGradient7096"
       id="radialGradient7102"
       cx="2.8571429"
       cy="87.14286"
       fx="2.8571429"
       fy="87.14286"
       r="84.285713"
       gradientUnits="userSpaceOnUse" />
    <filter
       inkscape:collect="always"
       id="filter7465">
      <feGaussianBlur
         inkscape:collect="always"
         stdDeviation="0.25426592"
         id="feGaussianBlur7467" />
    </filter>
    <filter
       inkscape:collect="always"
       id="filter7479"
       x="-0.13565218"
       width="1.2713044"
       y="-0.084782605"
       height="1.1695652">
      <feGaussianBlur
         inkscape:collect="always"
         stdDeviation="0.35684737"
         id="feGaussianBlur7481" />
    </filter>
  </defs>
  <sodipodi:namedview
     id="base"
     pagecolor="#ffffff"
     bordercolor="#666666"
     borderopacity="1.0"
     inkscape:pageopacity="0.0"
     inkscape:pageshadow="2"
     inkscape:zoom="3.959798"
     inkscape:cx="76.725354"
     inkscape:cy="21.909664"
     inkscape:document-units="px"
     inkscape:current-layer="layer1"
     showgrid="false"
     units="in"
     borderlayer="true"
     inkscape:snap-object-midpoints="false"
     inkscape:snap-nodes="false"
     inkscape:window-width="1920"
     inkscape:window-height="1058"
     inkscape:window-x="1592"
     inkscape:window-y="-8"
     inkscape:window-maximized="1" />
  <metadata
     id="metadata6583">
    <rdf:RDF>
      <cc:Work
         rdf:about="">
        <dc:format>image/svg+xml</dc:format>
        <dc:type
           rdf:resource="http://purl.org/dc/dcmitype/StillImage" />
        <dc:title></dc:title>
      </cc:Work>
    </rdf:RDF>
  </metadata>
  <g
     inkscape:label="Layer 1"
     inkscape:groupmode="layer"
     id="layer1"
     transform="translate(0,-962.3622)">
    <path
       style="opacity:0.84955749999999985;fill:url(#radialGradient7102);fill-opacity:1;stroke:none"
       d="M 2.03125 2.84375 L 2.03125 88.21875 L 87.15625 88.21875 C 87.160709 87.861484 87.15625 87.514574 87.15625 87.15625 C 87.15625 40.606536 49.393464 2.84375 2.84375 2.84375 C 2.5697377 2.84375 2.3046456 2.8411408 2.03125 2.84375 z "
       transform="translate(0,962.3622)"
       id="path7094" />
    <g
       id="g7146"
       style="opacity:0.44690265">
      <path
         style="fill:#85520d;fill-opacity:1;stroke:none"
         d="m 21.149553,998.1747 c -4.043513,0 -7.3125,3.269 -7.3125,7.3125 0,4.0435 3.268987,7.3125 7.3125,7.3125 4.043513,0 7.3125,-3.269 7.3125,-7.3125 0,-4.0435 -3.268987,-7.3125 -7.3125,-7.3125 z m -2.15625,5.1563 4.28125,0 0,4.3125 -4.28125,0 0,-4.3125 z"
         id="path7144"
         inkscape:connector-curvature="0" />
      <path
         inkscape:connector-curvature="0"
         id="path7109"
         d="m 21.953125,998.1747 c -4.043513,0 -7.3125,3.269 -7.3125,7.3125 0,4.0435 3.268987,7.3125 7.3125,7.3125 4.043513,0 7.3125,-3.269 7.3125,-7.3125 0,-4.0435 -3.268987,-7.3125 -7.3125,-7.3125 z m -2.15625,5.1563 4.28125,0 0,4.3125 -4.28125,0 0,-4.3125 z"
         style="fill:#ab6e1d;fill-opacity:1;stroke:none" />
      <path
         id="path7111"
         transform="translate(0,962.3622)"
         d="M 21.96875 36.59375 C 18.369037 36.59375 15.4375 39.525287 15.4375 43.125 C 15.4375 46.724713 18.369037 49.65625 21.96875 49.65625 C 25.568463 49.65625 28.46875 46.724713 28.46875 43.125 C 28.46875 39.525287 25.568463 36.59375 21.96875 36.59375 z M 19.8125 40.96875 L 24.09375 40.96875 L 24.09375 45.28125 L 19.8125 45.28125 L 19.8125 40.96875 z "
         style="opacity:1;fill:#ddd539;fill-opacity:1;stroke:none" />
      <path
         id="path7113"
         transform="translate(0,962.3622)"
         d="M 20.4375 36.8125 C 19.538882 37.029696 18.715865 37.424986 18 37.96875 C 17.761378 38.150005 17.521882 38.350143 17.3125 38.5625 L 19.90625 40.96875 L 24.09375 40.96875 L 24.09375 44.875 L 26.84375 47.4375 C 27.011734 47.247537 27.16655 47.052181 27.3125 46.84375 C 27.32877 46.820515 27.359021 46.804702 27.375 46.78125 C 27.504007 46.589004 27.610312 46.393503 27.71875 46.1875 C 27.813158 46.012481 27.890483 45.840416 27.96875 45.65625 C 27.99056 45.604339 28.010748 45.552582 28.03125 45.5 C 28.086744 45.358957 28.141998 45.208216 28.1875 45.0625 C 28.219441 44.959124 28.254352 44.855489 28.28125 44.75 L 20.4375 36.8125 z "
         style="opacity:1;fill:#fffdc5;fill-opacity:1;stroke:none" />
      <path
         id="path7118"
         transform="translate(0,962.3622)"
         d="M 22 36.59375 C 23.039331 37.443153 26.952271 41.011193 28.4375 42.375 C 28.386533 41.935083 28.290348 41.502489 28.15625 41.09375 L 23.90625 36.90625 C 23.896646 36.903263 23.884623 36.909194 23.875 36.90625 C 23.280783 36.724467 22.653008 36.596873 22 36.59375 z "
         style="fill:#fffdc5;fill-opacity:1;stroke:none" />
      <path
         id="path7120"
         transform="translate(0,962.3622)"
         d="M 15.4375 42.875 C 15.434236 42.959714 15.4375 43.039486 15.4375 43.125 C 15.4375 43.585552 15.5029 44.035196 15.59375 44.46875 L 21.96875 49.65625 L 22 49.65625 C 22.289034 49.654868 22.564771 49.600347 22.84375 49.5625 C 20.669771 47.545515 17.117358 44.280665 15.4375 42.875 z "
         style="fill:#fffdc5;fill-opacity:1;stroke:none" />
      <path
         id="rect7128"
         transform="translate(0,962.3622)"
         d="M 19.8125 40.96875 L 19.8125 45.28125 L 24.09375 45.28125 L 24.09375 40.96875 L 19.8125 40.96875 z M 20.28125 41.4375 L 23.65625 41.4375 L 23.65625 44.8125 L 20.28125 44.8125 L 20.28125 41.4375 z "
         style="fill:#b07423;fill-opacity:1;stroke:none" />
    </g>
    <g
       style="opacity:0.44690265"
       id="g7155"
       transform="matrix(0.39805841,-0.68945739,0.68945739,0.39805841,-644.30046,635.59436)">
      <path
         inkscape:connector-curvature="0"
         id="path7157"
         d="m 21.149553,998.1747 c -4.043513,0 -7.3125,3.269 -7.3125,7.3125 0,4.0435 3.268987,7.3125 7.3125,7.3125 4.043513,0 7.3125,-3.269 7.3125,-7.3125 0,-4.0435 -3.268987,-7.3125 -7.3125,-7.3125 z m -2.15625,5.1563 4.28125,0 0,4.3125 -4.28125,0 0,-4.3125 z"
         style="fill:#85520d;fill-opacity:1;stroke:none" />
      <path
         style="fill:#ab6e1d;fill-opacity:1;stroke:none"
         d="m 21.953125,998.1747 c -4.043513,0 -7.3125,3.269 -7.3125,7.3125 0,4.0435 3.268987,7.3125 7.3125,7.3125 4.043513,0 7.3125,-3.269 7.3125,-7.3125 0,-4.0435 -3.268987,-7.3125 -7.3125,-7.3125 z m -2.15625,5.1563 4.28125,0 0,4.3125 -4.28125,0 0,-4.3125 z"
         id="path7159"
         inkscape:connector-curvature="0" />
      <path
         style="fill:#ddd539;fill-opacity:1;stroke:none"
         d="m 21.96875,36.59375 c -3.599713,0 -6.53125,2.931537 -6.53125,6.53125 0,3.599713 2.931537,6.53125 6.53125,6.53125 3.599713,0 6.5,-2.931537 6.5,-6.53125 0,-3.599713 -2.900287,-6.53125 -6.5,-6.53125 z m -2.15625,4.375 4.28125,0 0,4.3125 -4.28125,0 0,-4.3125 z"
         transform="translate(0,962.3622)"
         id="path7161"
         inkscape:connector-curvature="0" />
      <path
         style="fill:#fffdc5;fill-opacity:1;stroke:none"
         d="m 20.4375,36.8125 c -0.898618,0.217196 -1.721635,0.612486 -2.4375,1.15625 -0.238622,0.181255 -0.478118,0.381393 -0.6875,0.59375 l 2.59375,2.40625 4.1875,0 0,3.90625 2.75,2.5625 c 0.167984,-0.189963 0.3228,-0.385319 0.46875,-0.59375 0.01627,-0.02323 0.04652,-0.03905 0.0625,-0.0625 0.129007,-0.192246 0.235312,-0.387747 0.34375,-0.59375 0.09441,-0.175019 0.171733,-0.347084 0.25,-0.53125 0.02181,-0.05191 0.042,-0.103668 0.0625,-0.15625 0.05549,-0.141043 0.110748,-0.291784 0.15625,-0.4375 0.03194,-0.103376 0.06685,-0.207011 0.09375,-0.3125 L 20.4375,36.8125 z"
         transform="translate(0,962.3622)"
         id="path7163"
         inkscape:connector-curvature="0" />
      <path
         style="fill:#fffdc5;fill-opacity:1;stroke:none"
         d="m 22,36.59375 c 1.039331,0.849403 4.952271,4.417443 6.4375,5.78125 -0.05097,-0.439917 -0.147152,-0.872511 -0.28125,-1.28125 l -4.25,-4.1875 c -0.0096,-0.003 -0.02163,0.0029 -0.03125,0 C 23.280783,36.724467 22.653008,36.596873 22,36.59375 z"
         transform="translate(0,962.3622)"
         id="path7165"
         inkscape:connector-curvature="0" />
      <path
         style="fill:#fffdc5;fill-opacity:1;stroke:none"
         d="m 15.4375,42.875 c -0.0033,0.08471 0,0.164486 0,0.25 0,0.460552 0.0654,0.910196 0.15625,1.34375 l 6.375,5.1875 0.03125,0 c 0.289034,-0.0014 0.564771,-0.0559 0.84375,-0.09375 -2.173979,-2.016985 -5.726392,-5.281835 -7.40625,-6.6875 z"
         transform="translate(0,962.3622)"
         id="path7167"
         inkscape:connector-curvature="0" />
      <path
         style="fill:#b07423;fill-opacity:1;stroke:none"
         d="m 19.8125,40.96875 0,4.3125 4.28125,0 0,-4.3125 -4.28125,0 z m 0.46875,0.46875 3.375,0 0,3.375 -3.375,0 0,-3.375 z"
         transform="translate(0,962.3622)"
         id="path7169"
         inkscape:connector-curvature="0" />
    </g>
    <g
       transform="matrix(0.47498543,0.38662896,-0.39914001,0.71498948,405.75527,315.42954)"
       id="g7171"
       style="opacity:0.44690265">
      <path
         style="fill:#85520d;fill-opacity:1;stroke:none"
         d="m 21.149553,998.1747 c -4.043513,0 -7.3125,3.269 -7.3125,7.3125 0,4.0435 3.268987,7.3125 7.3125,7.3125 4.043513,0 7.3125,-3.269 7.3125,-7.3125 0,-4.0435 -3.268987,-7.3125 -7.3125,-7.3125 z m -2.15625,5.1563 4.28125,0 0,4.3125 -4.28125,0 0,-4.3125 z"
         id="path7173"
         inkscape:connector-curvature="0" />
      <path
         inkscape:connector-curvature="0"
         id="path7175"
         d="m 21.953125,998.1747 c -4.043513,0 -7.3125,3.269 -7.3125,7.3125 0,4.0435 3.268987,7.3125 7.3125,7.3125 4.043513,0 7.3125,-3.269 7.3125,-7.3125 0,-4.0435 -3.268987,-7.3125 -7.3125,-7.3125 z m -2.15625,5.1563 4.28125,0 0,4.3125 -4.28125,0 0,-4.3125 z"
         style="fill:#ab6e1d;fill-opacity:1;stroke:none" />
      <path
         inkscape:connector-curvature="0"
         id="path7177"
         transform="translate(0,962.3622)"
         d="m 21.96875,36.59375 c -3.599713,0 -6.53125,2.931537 -6.53125,6.53125 0,3.599713 2.931537,6.53125 6.53125,6.53125 3.599713,0 6.5,-2.931537 6.5,-6.53125 0,-3.599713 -2.900287,-6.53125 -6.5,-6.53125 z m -2.15625,4.375 4.28125,0 0,4.3125 -4.28125,0 0,-4.3125 z"
         style="fill:#ddd539;fill-opacity:1;stroke:none" />
      <path
         inkscape:connector-curvature="0"
         id="path7179"
         transform="translate(0,962.3622)"
         d="m 20.4375,36.8125 c -0.898618,0.217196 -1.721635,0.612486 -2.4375,1.15625 -0.238622,0.181255 -0.478118,0.381393 -0.6875,0.59375 l 2.59375,2.40625 4.1875,0 0,3.90625 2.75,2.5625 c 0.167984,-0.189963 0.3228,-0.385319 0.46875,-0.59375 0.01627,-0.02323 0.04652,-0.03905 0.0625,-0.0625 0.129007,-0.192246 0.235312,-0.387747 0.34375,-0.59375 0.09441,-0.175019 0.171733,-0.347084 0.25,-0.53125 0.02181,-0.05191 0.042,-0.103668 0.0625,-0.15625 0.05549,-0.141043 0.110748,-0.291784 0.15625,-0.4375 0.03194,-0.103376 0.06685,-0.207011 0.09375,-0.3125 L 20.4375,36.8125 z"
         style="fill:#fffdc5;fill-opacity:1;stroke:none" />
      <path
         inkscape:connector-curvature="0"
         id="path7181"
         transform="translate(0,962.3622)"
         d="m 22,36.59375 c 1.039331,0.849403 4.952271,4.417443 6.4375,5.78125 -0.05097,-0.439917 -0.147152,-0.872511 -0.28125,-1.28125 l -4.25,-4.1875 c -0.0096,-0.003 -0.02163,0.0029 -0.03125,0 C 23.280783,36.724467 22.653008,36.596873 22,36.59375 z"
         style="fill:#fffdc5;fill-opacity:1;stroke:none" />
      <path
         inkscape:connector-curvature="0"
         id="path7183"
         transform="translate(0,962.3622)"
         d="m 15.4375,42.875 c -0.0033,0.08471 0,0.164486 0,0.25 0,0.460552 0.0654,0.910196 0.15625,1.34375 l 6.375,5.1875 0.03125,0 c 0.289034,-0.0014 0.564771,-0.0559 0.84375,-0.09375 -2.173979,-2.016985 -5.726392,-5.281835 -7.40625,-6.6875 z"
         style="fill:#fffdc5;fill-opacity:1;stroke:none" />
      <path
         inkscape:connector-curvature="0"
         id="path7185"
         transform="translate(0,962.3622)"
         d="m 19.8125,40.96875 0,4.3125 4.28125,0 0,-4.3125 -4.28125,0 z m 0.46875,0.46875 3.375,0 0,3.375 -3.375,0 0,-3.375 z"
         style="fill:#b07423;fill-opacity:1;stroke:none" />
    </g>
    <g
       style="opacity:0.44690265"
       id="g7187"
       transform="matrix(-0.03119888,0.40701094,0.52873473,0.13532348,-472.79975,855.02453)">
      <path
         inkscape:connector-curvature="0"
         id="path7189"
         d="m 21.149553,998.1747 c -4.043513,0 -7.3125,3.269 -7.3125,7.3125 0,4.0435 3.268987,7.3125 7.3125,7.3125 4.043513,0 7.3125,-3.269 7.3125,-7.3125 0,-4.0435 -3.268987,-7.3125 -7.3125,-7.3125 z m -2.15625,5.1563 4.28125,0 0,4.3125 -4.28125,0 0,-4.3125 z"
         style="fill:#85520d;fill-opacity:1;stroke:none" />
      <path
         style="fill:#ab6e1d;fill-opacity:1;stroke:none"
         d="m 21.953125,998.1747 c -4.043513,0 -7.3125,3.269 -7.3125,7.3125 0,4.0435 3.268987,7.3125 7.3125,7.3125 4.043513,0 7.3125,-3.269 7.3125,-7.3125 0,-4.0435 -3.268987,-7.3125 -7.3125,-7.3125 z m -2.15625,5.1563 4.28125,0 0,4.3125 -4.28125,0 0,-4.3125 z"
         id="path7191"
         inkscape:connector-curvature="0" />
      <path
         style="fill:#ddd539;fill-opacity:1;stroke:none"
         d="m 21.96875,36.59375 c -3.599713,0 -6.53125,2.931537 -6.53125,6.53125 0,3.599713 2.931537,6.53125 6.53125,6.53125 3.599713,0 6.5,-2.931537 6.5,-6.53125 0,-3.599713 -2.900287,-6.53125 -6.5,-6.53125 z m -2.15625,4.375 4.28125,0 0,4.3125 -4.28125,0 0,-4.3125 z"
         transform="translate(0,962.3622)"
         id="path7193"
         inkscape:connector-curvature="0" />
      <path
         style="fill:#fffdc5;fill-opacity:1;stroke:none"
         d="m 20.4375,36.8125 c -0.898618,0.217196 -1.721635,0.612486 -2.4375,1.15625 -0.238622,0.181255 -0.478118,0.381393 -0.6875,0.59375 l 2.59375,2.40625 4.1875,0 0,3.90625 2.75,2.5625 c 0.167984,-0.189963 0.3228,-0.385319 0.46875,-0.59375 0.01627,-0.02323 0.04652,-0.03905 0.0625,-0.0625 0.129007,-0.192246 0.235312,-0.387747 0.34375,-0.59375 0.09441,-0.175019 0.171733,-0.347084 0.25,-0.53125 0.02181,-0.05191 0.042,-0.103668 0.0625,-0.15625 0.05549,-0.141043 0.110748,-0.291784 0.15625,-0.4375 0.03194,-0.103376 0.06685,-0.207011 0.09375,-0.3125 L 20.4375,36.8125 z"
         transform="translate(0,962.3622)"
         id="path7195"
         inkscape:connector-curvature="0" />
      <path
         style="fill:#fffdc5;fill-opacity:1;stroke:none"
         d="m 22,36.59375 c 1.039331,0.849403 4.952271,4.417443 6.4375,5.78125 -0.05097,-0.439917 -0.147152,-0.872511 -0.28125,-1.28125 l -4.25,-4.1875 c -0.0096,-0.003 -0.02163,0.0029 -0.03125,0 C 23.280783,36.724467 22.653008,36.596873 22,36.59375 z"
         transform="translate(0,962.3622)"
         id="path7197"
         inkscape:connector-curvature="0" />
      <path
         style="fill:#fffdc5;fill-opacity:1;stroke:none"
         d="m 15.4375,42.875 c -0.0033,0.08471 0,0.164486 0,0.25 0,0.460552 0.0654,0.910196 0.15625,1.34375 l 6.375,5.1875 0.03125,0 c 0.289034,-0.0014 0.564771,-0.0559 0.84375,-0.09375 -2.173979,-2.016985 -5.726392,-5.281835 -7.40625,-6.6875 z"
         transform="translate(0,962.3622)"
         id="path7199"
         inkscape:connector-curvature="0" />
      <path
         style="fill:#b07423;fill-opacity:1;stroke:none"
         d="m 19.8125,40.96875 0,4.3125 4.28125,0 0,-4.3125 -4.28125,0 z m 0.46875,0.46875 3.375,0 0,3.375 -3.375,0 0,-3.375 z"
         transform="translate(0,962.3622)"
         id="path7201"
         inkscape:connector-curvature="0" />
    </g>
    <g
       transform="matrix(-0.26573926,-0.30986114,-0.46956006,0.27818376,498.77003,704.73345)"
       id="g7203"
       style="opacity:0.44690265">
      <path
         style="fill:#85520d;fill-opacity:1;stroke:none"
         d="m 21.149553,998.1747 c -4.043513,0 -7.3125,3.269 -7.3125,7.3125 0,4.0435 3.268987,7.3125 7.3125,7.3125 4.043513,0 7.3125,-3.269 7.3125,-7.3125 0,-4.0435 -3.268987,-7.3125 -7.3125,-7.3125 z m -2.15625,5.1563 4.28125,0 0,4.3125 -4.28125,0 0,-4.3125 z"
         id="path7205"
         inkscape:connector-curvature="0" />
      <path
         inkscape:connector-curvature="0"
         id="path7207"
         d="m 21.953125,998.1747 c -4.043513,0 -7.3125,3.269 -7.3125,7.3125 0,4.0435 3.268987,7.3125 7.3125,7.3125 4.043513,0 7.3125,-3.269 7.3125,-7.3125 0,-4.0435 -3.268987,-7.3125 -7.3125,-7.3125 z m -2.15625,5.1563 4.28125,0 0,4.3125 -4.28125,0 0,-4.3125 z"
         style="fill:#ab6e1d;fill-opacity:1;stroke:none" />
      <path
         inkscape:connector-curvature="0"
         id="path7209"
         transform="translate(0,962.3622)"
         d="m 21.96875,36.59375 c -3.599713,0 -6.53125,2.931537 -6.53125,6.53125 0,3.599713 2.931537,6.53125 6.53125,6.53125 3.599713,0 6.5,-2.931537 6.5,-6.53125 0,-3.599713 -2.900287,-6.53125 -6.5,-6.53125 z m -2.15625,4.375 4.28125,0 0,4.3125 -4.28125,0 0,-4.3125 z"
         style="fill:#ddd539;fill-opacity:1;stroke:none" />
      <path
         inkscape:connector-curvature="0"
         id="path7211"
         transform="translate(0,962.3622)"
         d="m 20.4375,36.8125 c -0.898618,0.217196 -1.721635,0.612486 -2.4375,1.15625 -0.238622,0.181255 -0.478118,0.381393 -0.6875,0.59375 l 2.59375,2.40625 4.1875,0 0,3.90625 2.75,2.5625 c 0.167984,-0.189963 0.3228,-0.385319 0.46875,-0.59375 0.01627,-0.02323 0.04652,-0.03905 0.0625,-0.0625 0.129007,-0.192246 0.235312,-0.387747 0.34375,-0.59375 0.09441,-0.175019 0.171733,-0.347084 0.25,-0.53125 0.02181,-0.05191 0.042,-0.103668 0.0625,-0.15625 0.05549,-0.141043 0.110748,-0.291784 0.15625,-0.4375 0.03194,-0.103376 0.06685,-0.207011 0.09375,-0.3125 L 20.4375,36.8125 z"
         style="fill:#fffdc5;fill-opacity:1;stroke:none" />
      <path
         inkscape:connector-curvature="0"
         id="path7213"
         transform="translate(0,962.3622)"
         d="m 22,36.59375 c 1.039331,0.849403 4.952271,4.417443 6.4375,5.78125 -0.05097,-0.439917 -0.147152,-0.872511 -0.28125,-1.28125 l -4.25,-4.1875 c -0.0096,-0.003 -0.02163,0.0029 -0.03125,0 C 23.280783,36.724467 22.653008,36.596873 22,36.59375 z"
         style="fill:#fffdc5;fill-opacity:1;stroke:none" />
      <path
         inkscape:connector-curvature="0"
         id="path7215"
         transform="translate(0,962.3622)"
         d="m 15.4375,42.875 c -0.0033,0.08471 0,0.164486 0,0.25 0,0.460552 0.0654,0.910196 0.15625,1.34375 l 6.375,5.1875 0.03125,0 c 0.289034,-0.0014 0.564771,-0.0559 0.84375,-0.09375 -2.173979,-2.016985 -5.726392,-5.281835 -7.40625,-6.6875 z"
         style="fill:#fffdc5;fill-opacity:1;stroke:none" />
      <path
         inkscape:connector-curvature="0"
         id="path7217"
         transform="translate(0,962.3622)"
         d="m 19.8125,40.96875 0,4.3125 4.28125,0 0,-4.3125 -4.28125,0 z m 0.46875,0.46875 3.375,0 0,3.375 -3.375,0 0,-3.375 z"
         style="fill:#b07423;fill-opacity:1;stroke:none" />
    </g>
    <g
       style="opacity:0.44690265"
       id="g7219"
       transform="matrix(-0.26573926,-0.30986114,-0.46956006,0.27818376,555.33857,769.63575)">
      <path
         inkscape:connector-curvature="0"
         id="path7221"
         d="m 21.149553,998.1747 c -4.043513,0 -7.3125,3.269 -7.3125,7.3125 0,4.0435 3.268987,7.3125 7.3125,7.3125 4.043513,0 7.3125,-3.269 7.3125,-7.3125 0,-4.0435 -3.268987,-7.3125 -7.3125,-7.3125 z m -2.15625,5.1563 4.28125,0 0,4.3125 -4.28125,0 0,-4.3125 z"
         style="fill:#85520d;fill-opacity:1;stroke:none" />
      <path
         style="fill:#ab6e1d;fill-opacity:1;stroke:none"
         d="m 21.953125,998.1747 c -4.043513,0 -7.3125,3.269 -7.3125,7.3125 0,4.0435 3.268987,7.3125 7.3125,7.3125 4.043513,0 7.3125,-3.269 7.3125,-7.3125 0,-4.0435 -3.268987,-7.3125 -7.3125,-7.3125 z m -2.15625,5.1563 4.28125,0 0,4.3125 -4.28125,0 0,-4.3125 z"
         id="path7223"
         inkscape:connector-curvature="0" />
      <path
         style="fill:#ddd539;fill-opacity:1;stroke:none"
         d="m 21.96875,36.59375 c -3.599713,0 -6.53125,2.931537 -6.53125,6.53125 0,3.599713 2.931537,6.53125 6.53125,6.53125 3.599713,0 6.5,-2.931537 6.5,-6.53125 0,-3.599713 -2.900287,-6.53125 -6.5,-6.53125 z m -2.15625,4.375 4.28125,0 0,4.3125 -4.28125,0 0,-4.3125 z"
         transform="translate(0,962.3622)"
         id="path7225"
         inkscape:connector-curvature="0" />
      <path
         style="fill:#fffdc5;fill-opacity:1;stroke:none"
         d="m 20.4375,36.8125 c -0.898618,0.217196 -1.721635,0.612486 -2.4375,1.15625 -0.238622,0.181255 -0.478118,0.381393 -0.6875,0.59375 l 2.59375,2.40625 4.1875,0 0,3.90625 2.75,2.5625 c 0.167984,-0.189963 0.3228,-0.385319 0.46875,-0.59375 0.01627,-0.02323 0.04652,-0.03905 0.0625,-0.0625 0.129007,-0.192246 0.235312,-0.387747 0.34375,-0.59375 0.09441,-0.175019 0.171733,-0.347084 0.25,-0.53125 0.02181,-0.05191 0.042,-0.103668 0.0625,-0.15625 0.05549,-0.141043 0.110748,-0.291784 0.15625,-0.4375 0.03194,-0.103376 0.06685,-0.207011 0.09375,-0.3125 L 20.4375,36.8125 z"
         transform="translate(0,962.3622)"
         id="path7227"
         inkscape:connector-curvature="0" />
      <path
         style="fill:#fffdc5;fill-opacity:1;stroke:none"
         d="m 22,36.59375 c 1.039331,0.849403 4.952271,4.417443 6.4375,5.78125 -0.05097,-0.439917 -0.147152,-0.872511 -0.28125,-1.28125 l -4.25,-4.1875 c -0.0096,-0.003 -0.02163,0.0029 -0.03125,0 C 23.280783,36.724467 22.653008,36.596873 22,36.59375 z"
         transform="translate(0,962.3622)"
         id="path7229"
         inkscape:connector-curvature="0" />
      <path
         style="fill:#fffdc5;fill-opacity:1;stroke:none"
         d="m 15.4375,42.875 c -0.0033,0.08471 0,0.164486 0,0.25 0,0.460552 0.0654,0.910196 0.15625,1.34375 l 6.375,5.1875 0.03125,0 c 0.289034,-0.0014 0.564771,-0.0559 0.84375,-0.09375 -2.173979,-2.016985 -5.726392,-5.281835 -7.40625,-6.6875 z"
         transform="translate(0,962.3622)"
         id="path7231"
         inkscape:connector-curvature="0" />
      <path
         style="fill:#b07423;fill-opacity:1;stroke:none"
         d="m 19.8125,40.96875 0,4.3125 4.28125,0 0,-4.3125 -4.28125,0 z m 0.46875,0.46875 3.375,0 0,3.375 -3.375,0 0,-3.375 z"
         transform="translate(0,962.3622)"
         id="path7233"
         inkscape:connector-curvature="0" />
    </g>
    <g
       transform="matrix(0.6700186,0.42997334,-0.42997334,0.6700186,459.24926,355.44178)"
       id="g7235"
       style="opacity:0.44690265">
      <path
         style="fill:#85520d;fill-opacity:1;stroke:none"
         d="m 21.149553,998.1747 c -4.043513,0 -7.3125,3.269 -7.3125,7.3125 0,4.0435 3.268987,7.3125 7.3125,7.3125 4.043513,0 7.3125,-3.269 7.3125,-7.3125 0,-4.0435 -3.268987,-7.3125 -7.3125,-7.3125 z m -2.15625,5.1563 4.28125,0 0,4.3125 -4.28125,0 0,-4.3125 z"
         id="path7237"
         inkscape:connector-curvature="0" />
      <path
         inkscape:connector-curvature="0"
         id="path7239"
         d="m 21.953125,998.1747 c -4.043513,0 -7.3125,3.269 -7.3125,7.3125 0,4.0435 3.268987,7.3125 7.3125,7.3125 4.043513,0 7.3125,-3.269 7.3125,-7.3125 0,-4.0435 -3.268987,-7.3125 -7.3125,-7.3125 z m -2.15625,5.1563 4.28125,0 0,4.3125 -4.28125,0 0,-4.3125 z"
         style="fill:#ab6e1d;fill-opacity:1;stroke:none" />
      <path
         inkscape:connector-curvature="0"
         id="path7241"
         transform="translate(0,962.3622)"
         d="m 21.96875,36.59375 c -3.599713,0 -6.53125,2.931537 -6.53125,6.53125 0,3.599713 2.931537,6.53125 6.53125,6.53125 3.599713,0 6.5,-2.931537 6.5,-6.53125 0,-3.599713 -2.900287,-6.53125 -6.5,-6.53125 z m -2.15625,4.375 4.28125,0 0,4.3125 -4.28125,0 0,-4.3125 z"
         style="fill:#ddd539;fill-opacity:1;stroke:none" />
      <path
         inkscape:connector-curvature="0"
         id="path7243"
         transform="translate(0,962.3622)"
         d="m 20.4375,36.8125 c -0.898618,0.217196 -1.721635,0.612486 -2.4375,1.15625 -0.238622,0.181255 -0.478118,0.381393 -0.6875,0.59375 l 2.59375,2.40625 4.1875,0 0,3.90625 2.75,2.5625 c 0.167984,-0.189963 0.3228,-0.385319 0.46875,-0.59375 0.01627,-0.02323 0.04652,-0.03905 0.0625,-0.0625 0.129007,-0.192246 0.235312,-0.387747 0.34375,-0.59375 0.09441,-0.175019 0.171733,-0.347084 0.25,-0.53125 0.02181,-0.05191 0.042,-0.103668 0.0625,-0.15625 0.05549,-0.141043 0.110748,-0.291784 0.15625,-0.4375 0.03194,-0.103376 0.06685,-0.207011 0.09375,-0.3125 L 20.4375,36.8125 z"
         style="fill:#fffdc5;fill-opacity:1;stroke:none" />
      <path
         inkscape:connector-curvature="0"
         id="path7245"
         transform="translate(0,962.3622)"
         d="m 22,36.59375 c 1.039331,0.849403 4.952271,4.417443 6.4375,5.78125 -0.05097,-0.439917 -0.147152,-0.872511 -0.28125,-1.28125 l -4.25,-4.1875 c -0.0096,-0.003 -0.02163,0.0029 -0.03125,0 C 23.280783,36.724467 22.653008,36.596873 22,36.59375 z"
         style="fill:#fffdc5;fill-opacity:1;stroke:none" />
      <path
         inkscape:connector-curvature="0"
         id="path7247"
         transform="translate(0,962.3622)"
         d="m 15.4375,42.875 c -0.0033,0.08471 0,0.164486 0,0.25 0,0.460552 0.0654,0.910196 0.15625,1.34375 l 6.375,5.1875 0.03125,0 c 0.289034,-0.0014 0.564771,-0.0559 0.84375,-0.09375 -2.173979,-2.016985 -5.726392,-5.281835 -7.40625,-6.6875 z"
         style="fill:#fffdc5;fill-opacity:1;stroke:none" />
      <path
         inkscape:connector-curvature="0"
         id="path7249"
         d="m 19.8125,40.96875 0,4.3125 4.28125,0 0,-4.3125 -4.28125,0 z m 0.46875,0.46875 3.375,0 0,3.375 -3.375,0 0,-3.375 z"
         style="fill:#b07423;fill-opacity:1;stroke:none"
         transform="translate(0,962.3622)" />
    </g>
    <g
       style="opacity:0.44690265"
       id="g7251"
       transform="matrix(0.37375299,0.23984979,-0.23984979,0.37375299,257.12588,644.42476)">
      <path
         inkscape:connector-curvature="0"
         id="path7253"
         d="m 21.149553,998.1747 c -4.043513,0 -7.3125,3.269 -7.3125,7.3125 0,4.0435 3.268987,7.3125 7.3125,7.3125 4.043513,0 7.3125,-3.269 7.3125,-7.3125 0,-4.0435 -3.268987,-7.3125 -7.3125,-7.3125 z m -2.15625,5.1563 4.28125,0 0,4.3125 -4.28125,0 0,-4.3125 z"
         style="fill:#85520d;fill-opacity:1;stroke:none" />
      <path
         style="fill:#ab6e1d;fill-opacity:1;stroke:none"
         d="m 21.953125,998.1747 c -4.043513,0 -7.3125,3.269 -7.3125,7.3125 0,4.0435 3.268987,7.3125 7.3125,7.3125 4.043513,0 7.3125,-3.269 7.3125,-7.3125 0,-4.0435 -3.268987,-7.3125 -7.3125,-7.3125 z m -2.15625,5.1563 4.28125,0 0,4.3125 -4.28125,0 0,-4.3125 z"
         id="path7255"
         inkscape:connector-curvature="0" />
      <path
         style="fill:#ddd539;fill-opacity:1;stroke:none"
         d="m 21.96875,36.59375 c -3.599713,0 -6.53125,2.931537 -6.53125,6.53125 0,3.599713 2.931537,6.53125 6.53125,6.53125 3.599713,0 6.5,-2.931537 6.5,-6.53125 0,-3.599713 -2.900287,-6.53125 -6.5,-6.53125 z m -2.15625,4.375 4.28125,0 0,4.3125 -4.28125,0 0,-4.3125 z"
         transform="translate(0,962.3622)"
         id="path7257"
         inkscape:connector-curvature="0" />
      <path
         style="fill:#fffdc5;fill-opacity:1;stroke:none"
         d="m 20.4375,36.8125 c -0.898618,0.217196 -1.721635,0.612486 -2.4375,1.15625 -0.238622,0.181255 -0.478118,0.381393 -0.6875,0.59375 l 2.59375,2.40625 4.1875,0 0,3.90625 2.75,2.5625 c 0.167984,-0.189963 0.3228,-0.385319 0.46875,-0.59375 0.01627,-0.02323 0.04652,-0.03905 0.0625,-0.0625 0.129007,-0.192246 0.235312,-0.387747 0.34375,-0.59375 0.09441,-0.175019 0.171733,-0.347084 0.25,-0.53125 0.02181,-0.05191 0.042,-0.103668 0.0625,-0.15625 0.05549,-0.141043 0.110748,-0.291784 0.15625,-0.4375 0.03194,-0.103376 0.06685,-0.207011 0.09375,-0.3125 L 20.4375,36.8125 z"
         transform="translate(0,962.3622)"
         id="path7259"
         inkscape:connector-curvature="0" />
      <path
         style="fill:#fffdc5;fill-opacity:1;stroke:none"
         d="m 22,36.59375 c 1.039331,0.849403 4.952271,4.417443 6.4375,5.78125 -0.05097,-0.439917 -0.147152,-0.872511 -0.28125,-1.28125 l -4.25,-4.1875 c -0.0096,-0.003 -0.02163,0.0029 -0.03125,0 C 23.280783,36.724467 22.653008,36.596873 22,36.59375 z"
         transform="translate(0,962.3622)"
         id="path7261"
         inkscape:connector-curvature="0" />
      <path
         style="fill:#fffdc5;fill-opacity:1;stroke:none"
         d="m 15.4375,42.875 c -0.0033,0.08471 0,0.164486 0,0.25 0,0.460552 0.0654,0.910196 0.15625,1.34375 l 6.375,5.1875 0.03125,0 c 0.289034,-0.0014 0.564771,-0.0559 0.84375,-0.09375 -2.173979,-2.016985 -5.726392,-5.281835 -7.40625,-6.6875 z"
         transform="translate(0,962.3622)"
         id="path7263"
         inkscape:connector-curvature="0" />
      <path
         transform="translate(0,962.3622)"
         style="fill:#b07423;fill-opacity:1;stroke:none"
         d="m 19.8125,40.96875 0,4.3125 4.28125,0 0,-4.3125 -4.28125,0 z m 0.46875,0.46875 3.375,0 0,3.375 -3.375,0 0,-3.375 z"
         id="path7265"
         inkscape:connector-curvature="0" />
    </g>
    <g
       transform="matrix(0.37375299,0.23984979,-0.23984979,0.37375299,240.7109,606.2915)"
       id="g7267"
       style="opacity:0.44690265">
      <path
         style="fill:#85520d;fill-opacity:1;stroke:none"
         d="m 21.149553,998.1747 c -4.043513,0 -7.3125,3.269 -7.3125,7.3125 0,4.0435 3.268987,7.3125 7.3125,7.3125 4.043513,0 7.3125,-3.269 7.3125,-7.3125 0,-4.0435 -3.268987,-7.3125 -7.3125,-7.3125 z m -2.15625,5.1563 4.28125,0 0,4.3125 -4.28125,0 0,-4.3125 z"
         id="path7269"
         inkscape:connector-curvature="0" />
      <path
         inkscape:connector-curvature="0"
         id="path7271"
         d="m 21.953125,998.1747 c -4.043513,0 -7.3125,3.269 -7.3125,7.3125 0,4.0435 3.268987,7.3125 7.3125,7.3125 4.043513,0 7.3125,-3.269 7.3125,-7.3125 0,-4.0435 -3.268987,-7.3125 -7.3125,-7.3125 z m -2.15625,5.1563 4.28125,0 0,4.3125 -4.28125,0 0,-4.3125 z"
         style="fill:#ab6e1d;fill-opacity:1;stroke:none" />
      <path
         inkscape:connector-curvature="0"
         id="path7273"
         transform="translate(0,962.3622)"
         d="m 21.96875,36.59375 c -3.599713,0 -6.53125,2.931537 -6.53125,6.53125 0,3.599713 2.931537,6.53125 6.53125,6.53125 3.599713,0 6.5,-2.931537 6.5,-6.53125 0,-3.599713 -2.900287,-6.53125 -6.5,-6.53125 z m -2.15625,4.375 4.28125,0 0,4.3125 -4.28125,0 0,-4.3125 z"
         style="fill:#ddd539;fill-opacity:1;stroke:none" />
      <path
         inkscape:connector-curvature="0"
         id="path7275"
         transform="translate(0,962.3622)"
         d="m 20.4375,36.8125 c -0.898618,0.217196 -1.721635,0.612486 -2.4375,1.15625 -0.238622,0.181255 -0.478118,0.381393 -0.6875,0.59375 l 2.59375,2.40625 4.1875,0 0,3.90625 2.75,2.5625 c 0.167984,-0.189963 0.3228,-0.385319 0.46875,-0.59375 0.01627,-0.02323 0.04652,-0.03905 0.0625,-0.0625 0.129007,-0.192246 0.235312,-0.387747 0.34375,-0.59375 0.09441,-0.175019 0.171733,-0.347084 0.25,-0.53125 0.02181,-0.05191 0.042,-0.103668 0.0625,-0.15625 0.05549,-0.141043 0.110748,-0.291784 0.15625,-0.4375 0.03194,-0.103376 0.06685,-0.207011 0.09375,-0.3125 L 20.4375,36.8125 z"
         style="fill:#fffdc5;fill-opacity:1;stroke:none" />
      <path
         inkscape:connector-curvature="0"
         id="path7277"
         transform="translate(0,962.3622)"
         d="m 22,36.59375 c 1.039331,0.849403 4.952271,4.417443 6.4375,5.78125 -0.05097,-0.439917 -0.147152,-0.872511 -0.28125,-1.28125 l -4.25,-4.1875 c -0.0096,-0.003 -0.02163,0.0029 -0.03125,0 C 23.280783,36.724467 22.653008,36.596873 22,36.59375 z"
         style="fill:#fffdc5;fill-opacity:1;stroke:none" />
      <path
         inkscape:connector-curvature="0"
         id="path7279"
         transform="translate(0,962.3622)"
         d="m 15.4375,42.875 c -0.0033,0.08471 0,0.164486 0,0.25 0,0.460552 0.0654,0.910196 0.15625,1.34375 l 6.375,5.1875 0.03125,0 c 0.289034,-0.0014 0.564771,-0.0559 0.84375,-0.09375 -2.173979,-2.016985 -5.726392,-5.281835 -7.40625,-6.6875 z"
         style="fill:#fffdc5;fill-opacity:1;stroke:none" />
      <path
         inkscape:connector-curvature="0"
         id="path7281"
         d="m 19.8125,40.96875 0,4.3125 4.28125,0 0,-4.3125 -4.28125,0 z m 0.46875,0.46875 3.375,0 0,3.375 -3.375,0 0,-3.375 z"
         style="fill:#b07423;fill-opacity:1;stroke:none"
         transform="translate(0,962.3622)" />
    </g>
    <g
       style="opacity:0.44690265"
       id="g7283"
       transform="matrix(0.24700396,0.23984979,-0.4373602,0.37375299,511.48469,640.63669)">
      <path
         inkscape:connector-curvature="0"
         id="path7285"
         d="m 21.149553,998.1747 c -4.043513,0 -7.3125,3.269 -7.3125,7.3125 0,4.0435 3.268987,7.3125 7.3125,7.3125 4.043513,0 7.3125,-3.269 7.3125,-7.3125 0,-4.0435 -3.268987,-7.3125 -7.3125,-7.3125 z m -2.15625,5.1563 4.28125,0 0,4.3125 -4.28125,0 0,-4.3125 z"
         style="fill:#85520d;fill-opacity:1;stroke:none" />
      <path
         style="fill:#ab6e1d;fill-opacity:1;stroke:none"
         d="m 21.953125,998.1747 c -4.043513,0 -7.3125,3.269 -7.3125,7.3125 0,4.0435 3.268987,7.3125 7.3125,7.3125 4.043513,0 7.3125,-3.269 7.3125,-7.3125 0,-4.0435 -3.268987,-7.3125 -7.3125,-7.3125 z m -2.15625,5.1563 4.28125,0 0,4.3125 -4.28125,0 0,-4.3125 z"
         id="path7287"
         inkscape:connector-curvature="0" />
      <path
         style="fill:#ddd539;fill-opacity:1;stroke:none"
         d="m 21.96875,36.59375 c -3.599713,0 -6.53125,2.931537 -6.53125,6.53125 0,3.599713 2.931537,6.53125 6.53125,6.53125 3.599713,0 6.5,-2.931537 6.5,-6.53125 0,-3.599713 -2.900287,-6.53125 -6.5,-6.53125 z m -2.15625,4.375 4.28125,0 0,4.3125 -4.28125,0 0,-4.3125 z"
         transform="translate(0,962.3622)"
         id="path7289"
         inkscape:connector-curvature="0" />
      <path
         style="fill:#fffdc5;fill-opacity:1;stroke:none"
         d="m 20.4375,36.8125 c -0.898618,0.217196 -1.721635,0.612486 -2.4375,1.15625 -0.238622,0.181255 -0.478118,0.381393 -0.6875,0.59375 l 2.59375,2.40625 4.1875,0 0,3.90625 2.75,2.5625 c 0.167984,-0.189963 0.3228,-0.385319 0.46875,-0.59375 0.01627,-0.02323 0.04652,-0.03905 0.0625,-0.0625 0.129007,-0.192246 0.235312,-0.387747 0.34375,-0.59375 0.09441,-0.175019 0.171733,-0.347084 0.25,-0.53125 0.02181,-0.05191 0.042,-0.103668 0.0625,-0.15625 0.05549,-0.141043 0.110748,-0.291784 0.15625,-0.4375 0.03194,-0.103376 0.06685,-0.207011 0.09375,-0.3125 L 20.4375,36.8125 z"
         transform="translate(0,962.3622)"
         id="path7291"
         inkscape:connector-curvature="0" />
      <path
         style="fill:#fffdc5;fill-opacity:1;stroke:none"
         d="m 22,36.59375 c 1.039331,0.849403 4.952271,4.417443 6.4375,5.78125 -0.05097,-0.439917 -0.147152,-0.872511 -0.28125,-1.28125 l -4.25,-4.1875 c -0.0096,-0.003 -0.02163,0.0029 -0.03125,0 C 23.280783,36.724467 22.653008,36.596873 22,36.59375 z"
         transform="translate(0,962.3622)"
         id="path7293"
         inkscape:connector-curvature="0" />
      <path
         style="fill:#fffdc5;fill-opacity:1;stroke:none"
         d="m 15.4375,42.875 c -0.0033,0.08471 0,0.164486 0,0.25 0,0.460552 0.0654,0.910196 0.15625,1.34375 l 6.375,5.1875 0.03125,0 c 0.289034,-0.0014 0.564771,-0.0559 0.84375,-0.09375 -2.173979,-2.016985 -5.726392,-5.281835 -7.40625,-6.6875 z"
         transform="translate(0,962.3622)"
         id="path7295"
         inkscape:connector-curvature="0" />
      <path
         transform="translate(0,962.3622)"
         style="fill:#b07423;fill-opacity:1;stroke:none"
         d="m 19.8125,40.96875 0,4.3125 4.28125,0 0,-4.3125 -4.28125,0 z m 0.46875,0.46875 3.375,0 0,3.375 -3.375,0 0,-3.375 z"
         id="path7297"
         inkscape:connector-curvature="0" />
    </g>
    <g
       transform="matrix(0.13130193,-0.12749893,-0.23249116,-0.19867895,274.39745,1188.4669)"
       id="g7299"
       style="opacity:0.44690265">
      <path
         style="fill:#85520d;fill-opacity:1;stroke:none"
         d="m 21.149553,998.1747 c -4.043513,0 -7.3125,3.269 -7.3125,7.3125 0,4.0435 3.268987,7.3125 7.3125,7.3125 4.043513,0 7.3125,-3.269 7.3125,-7.3125 0,-4.0435 -3.268987,-7.3125 -7.3125,-7.3125 z m -2.15625,5.1563 4.28125,0 0,4.3125 -4.28125,0 0,-4.3125 z"
         id="path7301"
         inkscape:connector-curvature="0" />
      <path
         inkscape:connector-curvature="0"
         id="path7303"
         d="m 21.953125,998.1747 c -4.043513,0 -7.3125,3.269 -7.3125,7.3125 0,4.0435 3.268987,7.3125 7.3125,7.3125 4.043513,0 7.3125,-3.269 7.3125,-7.3125 0,-4.0435 -3.268987,-7.3125 -7.3125,-7.3125 z m -2.15625,5.1563 4.28125,0 0,4.3125 -4.28125,0 0,-4.3125 z"
         style="fill:#ab6e1d;fill-opacity:1;stroke:none" />
      <path
         inkscape:connector-curvature="0"
         id="path7305"
         transform="translate(0,962.3622)"
         d="m 21.96875,36.59375 c -3.599713,0 -6.53125,2.931537 -6.53125,6.53125 0,3.599713 2.931537,6.53125 6.53125,6.53125 3.599713,0 6.5,-2.931537 6.5,-6.53125 0,-3.599713 -2.900287,-6.53125 -6.5,-6.53125 z m -2.15625,4.375 4.28125,0 0,4.3125 -4.28125,0 0,-4.3125 z"
         style="fill:#ddd539;fill-opacity:1;stroke:none" />
      <path
         inkscape:connector-curvature="0"
         id="path7307"
         transform="translate(0,962.3622)"
         d="m 20.4375,36.8125 c -0.898618,0.217196 -1.721635,0.612486 -2.4375,1.15625 -0.238622,0.181255 -0.478118,0.381393 -0.6875,0.59375 l 2.59375,2.40625 4.1875,0 0,3.90625 2.75,2.5625 c 0.167984,-0.189963 0.3228,-0.385319 0.46875,-0.59375 0.01627,-0.02323 0.04652,-0.03905 0.0625,-0.0625 0.129007,-0.192246 0.235312,-0.387747 0.34375,-0.59375 0.09441,-0.175019 0.171733,-0.347084 0.25,-0.53125 0.02181,-0.05191 0.042,-0.103668 0.0625,-0.15625 0.05549,-0.141043 0.110748,-0.291784 0.15625,-0.4375 0.03194,-0.103376 0.06685,-0.207011 0.09375,-0.3125 L 20.4375,36.8125 z"
         style="fill:#fffdc5;fill-opacity:1;stroke:none" />
      <path
         inkscape:connector-curvature="0"
         id="path7309"
         transform="translate(0,962.3622)"
         d="m 22,36.59375 c 1.039331,0.849403 4.952271,4.417443 6.4375,5.78125 -0.05097,-0.439917 -0.147152,-0.872511 -0.28125,-1.28125 l -4.25,-4.1875 c -0.0096,-0.003 -0.02163,0.0029 -0.03125,0 C 23.280783,36.724467 22.653008,36.596873 22,36.59375 z"
         style="fill:#fffdc5;fill-opacity:1;stroke:none" />
      <path
         inkscape:connector-curvature="0"
         id="path7311"
         transform="translate(0,962.3622)"
         d="m 15.4375,42.875 c -0.0033,0.08471 0,0.164486 0,0.25 0,0.460552 0.0654,0.910196 0.15625,1.34375 l 6.375,5.1875 0.03125,0 c 0.289034,-0.0014 0.564771,-0.0559 0.84375,-0.09375 -2.173979,-2.016985 -5.726392,-5.281835 -7.40625,-6.6875 z"
         style="fill:#fffdc5;fill-opacity:1;stroke:none" />
      <path
         inkscape:connector-curvature="0"
         id="path7313"
         d="m 19.8125,40.96875 0,4.3125 4.28125,0 0,-4.3125 -4.28125,0 z m 0.46875,0.46875 3.375,0 0,3.375 -3.375,0 0,-3.375 z"
         style="fill:#b07423;fill-opacity:1;stroke:none"
         transform="translate(0,962.3622)" />
    </g>
    <g
       style="opacity:0.44690265"
       id="g7315"
       transform="matrix(0.6700186,0.42997334,-0.42997334,0.6700186,454.1985,295.84278)">
      <path
         inkscape:connector-curvature="0"
         id="path7317"
         d="m 21.149553,998.1747 c -4.043513,0 -7.3125,3.269 -7.3125,7.3125 0,4.0435 3.268987,7.3125 7.3125,7.3125 4.043513,0 7.3125,-3.269 7.3125,-7.3125 0,-4.0435 -3.268987,-7.3125 -7.3125,-7.3125 z m -2.15625,5.1563 4.28125,0 0,4.3125 -4.28125,0 0,-4.3125 z"
         style="fill:#85520d;fill-opacity:1;stroke:none" />
      <path
         style="fill:#ab6e1d;fill-opacity:1;stroke:none"
         d="m 21.953125,998.1747 c -4.043513,0 -7.3125,3.269 -7.3125,7.3125 0,4.0435 3.268987,7.3125 7.3125,7.3125 4.043513,0 7.3125,-3.269 7.3125,-7.3125 0,-4.0435 -3.268987,-7.3125 -7.3125,-7.3125 z m -2.15625,5.1563 4.28125,0 0,4.3125 -4.28125,0 0,-4.3125 z"
         id="path7319"
         inkscape:connector-curvature="0" />
      <path
         style="fill:#ddd539;fill-opacity:1;stroke:none"
         d="m 21.96875,36.59375 c -3.599713,0 -6.53125,2.931537 -6.53125,6.53125 0,3.599713 2.931537,6.53125 6.53125,6.53125 3.599713,0 6.5,-2.931537 6.5,-6.53125 0,-3.599713 -2.900287,-6.53125 -6.5,-6.53125 z m -2.15625,4.375 4.28125,0 0,4.3125 -4.28125,0 0,-4.3125 z"
         transform="translate(0,962.3622)"
         id="path7321"
         inkscape:connector-curvature="0" />
      <path
         style="fill:#fffdc5;fill-opacity:1;stroke:none"
         d="m 20.4375,36.8125 c -0.898618,0.217196 -1.721635,0.612486 -2.4375,1.15625 -0.238622,0.181255 -0.478118,0.381393 -0.6875,0.59375 l 2.59375,2.40625 4.1875,0 0,3.90625 2.75,2.5625 c 0.167984,-0.189963 0.3228,-0.385319 0.46875,-0.59375 0.01627,-0.02323 0.04652,-0.03905 0.0625,-0.0625 0.129007,-0.192246 0.235312,-0.387747 0.34375,-0.59375 0.09441,-0.175019 0.171733,-0.347084 0.25,-0.53125 0.02181,-0.05191 0.042,-0.103668 0.0625,-0.15625 0.05549,-0.141043 0.110748,-0.291784 0.15625,-0.4375 0.03194,-0.103376 0.06685,-0.207011 0.09375,-0.3125 L 20.4375,36.8125 z"
         transform="translate(0,962.3622)"
         id="path7323"
         inkscape:connector-curvature="0" />
      <path
         style="fill:#fffdc5;fill-opacity:1;stroke:none"
         d="m 22,36.59375 c 1.039331,0.849403 4.952271,4.417443 6.4375,5.78125 -0.05097,-0.439917 -0.147152,-0.872511 -0.28125,-1.28125 l -4.25,-4.1875 c -0.0096,-0.003 -0.02163,0.0029 -0.03125,0 C 23.280783,36.724467 22.653008,36.596873 22,36.59375 z"
         transform="translate(0,962.3622)"
         id="path7325"
         inkscape:connector-curvature="0" />
      <path
         style="fill:#fffdc5;fill-opacity:1;stroke:none"
         d="m 15.4375,42.875 c -0.0033,0.08471 0,0.164486 0,0.25 0,0.460552 0.0654,0.910196 0.15625,1.34375 l 6.375,5.1875 0.03125,0 c 0.289034,-0.0014 0.564771,-0.0559 0.84375,-0.09375 -2.173979,-2.016985 -5.726392,-5.281835 -7.40625,-6.6875 z"
         transform="translate(0,962.3622)"
         id="path7327"
         inkscape:connector-curvature="0" />
      <path
         transform="translate(0,962.3622)"
         style="fill:#b07423;fill-opacity:1;stroke:none"
         d="m 19.8125,40.96875 0,4.3125 4.28125,0 0,-4.3125 -4.28125,0 z m 0.46875,0.46875 3.375,0 0,3.375 -3.375,0 0,-3.375 z"
         id="path7329"
         inkscape:connector-curvature="0" />
    </g>
    <g
       style="opacity:0.44690265"
       id="g7331"
       transform="matrix(-0.13130193,-0.12749893,0.23249116,-0.19867895,-161.46543,1242.005)">
      <path
         inkscape:connector-curvature="0"
         id="path7333"
         d="m 21.149553,998.1747 c -4.043513,0 -7.3125,3.269 -7.3125,7.3125 0,4.0435 3.268987,7.3125 7.3125,7.3125 4.043513,0 7.3125,-3.269 7.3125,-7.3125 0,-4.0435 -3.268987,-7.3125 -7.3125,-7.3125 z m -2.15625,5.1563 4.28125,0 0,4.3125 -4.28125,0 0,-4.3125 z"
         style="fill:#85520d;fill-opacity:1;stroke:none" />
      <path
         style="fill:#ab6e1d;fill-opacity:1;stroke:none"
         d="m 21.953125,998.1747 c -4.043513,0 -7.3125,3.269 -7.3125,7.3125 0,4.0435 3.268987,7.3125 7.3125,7.3125 4.043513,0 7.3125,-3.269 7.3125,-7.3125 0,-4.0435 -3.268987,-7.3125 -7.3125,-7.3125 z m -2.15625,5.1563 4.28125,0 0,4.3125 -4.28125,0 0,-4.3125 z"
         id="path7335"
         inkscape:connector-curvature="0" />
      <path
         style="fill:#ddd539;fill-opacity:1;stroke:none"
         d="m 21.96875,36.59375 c -3.599713,0 -6.53125,2.931537 -6.53125,6.53125 0,3.599713 2.931537,6.53125 6.53125,6.53125 3.599713,0 6.5,-2.931537 6.5,-6.53125 0,-3.599713 -2.900287,-6.53125 -6.5,-6.53125 z m -2.15625,4.375 4.28125,0 0,4.3125 -4.28125,0 0,-4.3125 z"
         transform="translate(0,962.3622)"
         id="path7337"
         inkscape:connector-curvature="0" />
      <path
         style="fill:#fffdc5;fill-opacity:1;stroke:none"
         d="m 20.4375,36.8125 c -0.898618,0.217196 -1.721635,0.612486 -2.4375,1.15625 -0.238622,0.181255 -0.478118,0.381393 -0.6875,0.59375 l 2.59375,2.40625 4.1875,0 0,3.90625 2.75,2.5625 c 0.167984,-0.189963 0.3228,-0.385319 0.46875,-0.59375 0.01627,-0.02323 0.04652,-0.03905 0.0625,-0.0625 0.129007,-0.192246 0.235312,-0.387747 0.34375,-0.59375 0.09441,-0.175019 0.171733,-0.347084 0.25,-0.53125 0.02181,-0.05191 0.042,-0.103668 0.0625,-0.15625 0.05549,-0.141043 0.110748,-0.291784 0.15625,-0.4375 0.03194,-0.103376 0.06685,-0.207011 0.09375,-0.3125 L 20.4375,36.8125 z"
         transform="translate(0,962.3622)"
         id="path7339"
         inkscape:connector-curvature="0" />
      <path
         style="fill:#fffdc5;fill-opacity:1;stroke:none"
         d="m 22,36.59375 c 1.039331,0.849403 4.952271,4.417443 6.4375,5.78125 -0.05097,-0.439917 -0.147152,-0.872511 -0.28125,-1.28125 l -4.25,-4.1875 c -0.0096,-0.003 -0.02163,0.0029 -0.03125,0 C 23.280783,36.724467 22.653008,36.596873 22,36.59375 z"
         transform="translate(0,962.3622)"
         id="path7341"
         inkscape:connector-curvature="0" />
      <path
         style="fill:#fffdc5;fill-opacity:1;stroke:none"
         d="m 15.4375,42.875 c -0.0033,0.08471 0,0.164486 0,0.25 0,0.460552 0.0654,0.910196 0.15625,1.34375 l 6.375,5.1875 0.03125,0 c 0.289034,-0.0014 0.564771,-0.0559 0.84375,-0.09375 -2.173979,-2.016985 -5.726392,-5.281835 -7.40625,-6.6875 z"
         transform="translate(0,962.3622)"
         id="path7343"
         inkscape:connector-curvature="0" />
      <path
         transform="translate(0,962.3622)"
         style="fill:#b07423;fill-opacity:1;stroke:none"
         d="m 19.8125,40.96875 0,4.3125 4.28125,0 0,-4.3125 -4.28125,0 z m 0.46875,0.46875 3.375,0 0,3.375 -3.375,0 0,-3.375 z"
         id="path7345"
         inkscape:connector-curvature="0" />
    </g>
    <g
       style="opacity:0.44690265"
       id="g7347"
       transform="matrix(0.13130193,-0.12749893,-0.23249116,-0.19867895,238.2845,1238.4695)">
      <path
         inkscape:connector-curvature="0"
         id="path7349"
         d="m 21.149553,998.1747 c -4.043513,0 -7.3125,3.269 -7.3125,7.3125 0,4.0435 3.268987,7.3125 7.3125,7.3125 4.043513,0 7.3125,-3.269 7.3125,-7.3125 0,-4.0435 -3.268987,-7.3125 -7.3125,-7.3125 z m -2.15625,5.1563 4.28125,0 0,4.3125 -4.28125,0 0,-4.3125 z"
         style="fill:#85520d;fill-opacity:1;stroke:none" />
      <path
         style="fill:#ab6e1d;fill-opacity:1;stroke:none"
         d="m 21.953125,998.1747 c -4.043513,0 -7.3125,3.269 -7.3125,7.3125 0,4.0435 3.268987,7.3125 7.3125,7.3125 4.043513,0 7.3125,-3.269 7.3125,-7.3125 0,-4.0435 -3.268987,-7.3125 -7.3125,-7.3125 z m -2.15625,5.1563 4.28125,0 0,4.3125 -4.28125,0 0,-4.3125 z"
         id="path7351"
         inkscape:connector-curvature="0" />
      <path
         style="fill:#ddd539;fill-opacity:1;stroke:none"
         d="m 21.96875,36.59375 c -3.599713,0 -6.53125,2.931537 -6.53125,6.53125 0,3.599713 2.931537,6.53125 6.53125,6.53125 3.599713,0 6.5,-2.931537 6.5,-6.53125 0,-3.599713 -2.900287,-6.53125 -6.5,-6.53125 z m -2.15625,4.375 4.28125,0 0,4.3125 -4.28125,0 0,-4.3125 z"
         transform="translate(0,962.3622)"
         id="path7353"
         inkscape:connector-curvature="0" />
      <path
         style="fill:#fffdc5;fill-opacity:1;stroke:none"
         d="m 20.4375,36.8125 c -0.898618,0.217196 -1.721635,0.612486 -2.4375,1.15625 -0.238622,0.181255 -0.478118,0.381393 -0.6875,0.59375 l 2.59375,2.40625 4.1875,0 0,3.90625 2.75,2.5625 c 0.167984,-0.189963 0.3228,-0.385319 0.46875,-0.59375 0.01627,-0.02323 0.04652,-0.03905 0.0625,-0.0625 0.129007,-0.192246 0.235312,-0.387747 0.34375,-0.59375 0.09441,-0.175019 0.171733,-0.347084 0.25,-0.53125 0.02181,-0.05191 0.042,-0.103668 0.0625,-0.15625 0.05549,-0.141043 0.110748,-0.291784 0.15625,-0.4375 0.03194,-0.103376 0.06685,-0.207011 0.09375,-0.3125 L 20.4375,36.8125 z"
         transform="translate(0,962.3622)"
         id="path7355"
         inkscape:connector-curvature="0" />
      <path
         style="fill:#fffdc5;fill-opacity:1;stroke:none"
         d="m 22,36.59375 c 1.039331,0.849403 4.952271,4.417443 6.4375,5.78125 -0.05097,-0.439917 -0.147152,-0.872511 -0.28125,-1.28125 l -4.25,-4.1875 c -0.0096,-0.003 -0.02163,0.0029 -0.03125,0 C 23.280783,36.724467 22.653008,36.596873 22,36.59375 z"
         transform="translate(0,962.3622)"
         id="path7357"
         inkscape:connector-curvature="0" />
      <path
         style="fill:#fffdc5;fill-opacity:1;stroke:none"
         d="m 15.4375,42.875 c -0.0033,0.08471 0,0.164486 0,0.25 0,0.460552 0.0654,0.910196 0.15625,1.34375 l 6.375,5.1875 0.03125,0 c 0.289034,-0.0014 0.564771,-0.0559 0.84375,-0.09375 -2.173979,-2.016985 -5.726392,-5.281835 -7.40625,-6.6875 z"
         transform="translate(0,962.3622)"
         id="path7359"
         inkscape:connector-curvature="0" />
      <path
         transform="translate(0,962.3622)"
         style="fill:#b07423;fill-opacity:1;stroke:none"
         d="m 19.8125,40.96875 0,4.3125 4.28125,0 0,-4.3125 -4.28125,0 z m 0.46875,0.46875 3.375,0 0,3.375 -3.375,0 0,-3.375 z"
         id="path7361"
         inkscape:connector-curvature="0" />
    </g>
    <g
       transform="matrix(0.37375299,0.1565423,-0.23984979,0.42721419,242.22613,575.04046)"
       id="g7363"
       style="opacity:0.44690265">
      <path
         style="fill:#85520d;fill-opacity:1;stroke:none"
         d="m 21.149553,998.1747 c -4.043513,0 -7.3125,3.269 -7.3125,7.3125 0,4.0435 3.268987,7.3125 7.3125,7.3125 4.043513,0 7.3125,-3.269 7.3125,-7.3125 0,-4.0435 -3.268987,-7.3125 -7.3125,-7.3125 z m -2.15625,5.1563 4.28125,0 0,4.3125 -4.28125,0 0,-4.3125 z"
         id="path7365"
         inkscape:connector-curvature="0" />
      <path
         inkscape:connector-curvature="0"
         id="path7367"
         d="m 21.953125,998.1747 c -4.043513,0 -7.3125,3.269 -7.3125,7.3125 0,4.0435 3.268987,7.3125 7.3125,7.3125 4.043513,0 7.3125,-3.269 7.3125,-7.3125 0,-4.0435 -3.268987,-7.3125 -7.3125,-7.3125 z m -2.15625,5.1563 4.28125,0 0,4.3125 -4.28125,0 0,-4.3125 z"
         style="fill:#ab6e1d;fill-opacity:1;stroke:none" />
      <path
         inkscape:connector-curvature="0"
         id="path7369"
         transform="translate(0,962.3622)"
         d="m 21.96875,36.59375 c -3.599713,0 -6.53125,2.931537 -6.53125,6.53125 0,3.599713 2.931537,6.53125 6.53125,6.53125 3.599713,0 6.5,-2.931537 6.5,-6.53125 0,-3.599713 -2.900287,-6.53125 -6.5,-6.53125 z m -2.15625,4.375 4.28125,0 0,4.3125 -4.28125,0 0,-4.3125 z"
         style="fill:#ddd539;fill-opacity:1;stroke:none" />
      <path
         inkscape:connector-curvature="0"
         id="path7371"
         transform="translate(0,962.3622)"
         d="m 20.4375,36.8125 c -0.898618,0.217196 -1.721635,0.612486 -2.4375,1.15625 -0.238622,0.181255 -0.478118,0.381393 -0.6875,0.59375 l 2.59375,2.40625 4.1875,0 0,3.90625 2.75,2.5625 c 0.167984,-0.189963 0.3228,-0.385319 0.46875,-0.59375 0.01627,-0.02323 0.04652,-0.03905 0.0625,-0.0625 0.129007,-0.192246 0.235312,-0.387747 0.34375,-0.59375 0.09441,-0.175019 0.171733,-0.347084 0.25,-0.53125 0.02181,-0.05191 0.042,-0.103668 0.0625,-0.15625 0.05549,-0.141043 0.110748,-0.291784 0.15625,-0.4375 0.03194,-0.103376 0.06685,-0.207011 0.09375,-0.3125 L 20.4375,36.8125 z"
         style="fill:#fffdc5;fill-opacity:1;stroke:none" />
      <path
         inkscape:connector-curvature="0"
         id="path7373"
         transform="translate(0,962.3622)"
         d="m 22,36.59375 c 1.039331,0.849403 4.952271,4.417443 6.4375,5.78125 -0.05097,-0.439917 -0.147152,-0.872511 -0.28125,-1.28125 l -4.25,-4.1875 c -0.0096,-0.003 -0.02163,0.0029 -0.03125,0 C 23.280783,36.724467 22.653008,36.596873 22,36.59375 z"
         style="fill:#fffdc5;fill-opacity:1;stroke:none" />
      <path
         inkscape:connector-curvature="0"
         id="path7375"
         transform="translate(0,962.3622)"
         d="m 15.4375,42.875 c -0.0033,0.08471 0,0.164486 0,0.25 0,0.460552 0.0654,0.910196 0.15625,1.34375 l 6.375,5.1875 0.03125,0 c 0.289034,-0.0014 0.564771,-0.0559 0.84375,-0.09375 -2.173979,-2.016985 -5.726392,-5.281835 -7.40625,-6.6875 z"
         style="fill:#fffdc5;fill-opacity:1;stroke:none" />
      <path
         inkscape:connector-curvature="0"
         id="path7377"
         d="m 19.8125,40.96875 0,4.3125 4.28125,0 0,-4.3125 -4.28125,0 z m 0.46875,0.46875 3.375,0 0,3.375 -3.375,0 0,-3.375 z"
         style="fill:#b07423;fill-opacity:1;stroke:none"
         transform="translate(0,962.3622)" />
    </g>
    <g
       style="opacity:0.44690265"
       id="g7379"
       transform="matrix(0.37375299,-0.1565423,-0.23984979,-0.42721419,289.19822,1464.3907)">
      <path
         inkscape:connector-curvature="0"
         id="path7381"
         d="m 21.149553,998.1747 c -4.043513,0 -7.3125,3.269 -7.3125,7.3125 0,4.0435 3.268987,7.3125 7.3125,7.3125 4.043513,0 7.3125,-3.269 7.3125,-7.3125 0,-4.0435 -3.268987,-7.3125 -7.3125,-7.3125 z m -2.15625,5.1563 4.28125,0 0,4.3125 -4.28125,0 0,-4.3125 z"
         style="fill:#85520d;fill-opacity:1;stroke:none" />
      <path
         style="fill:#ab6e1d;fill-opacity:1;stroke:none"
         d="m 21.953125,998.1747 c -4.043513,0 -7.3125,3.269 -7.3125,7.3125 0,4.0435 3.268987,7.3125 7.3125,7.3125 4.043513,0 7.3125,-3.269 7.3125,-7.3125 0,-4.0435 -3.268987,-7.3125 -7.3125,-7.3125 z m -2.15625,5.1563 4.28125,0 0,4.3125 -4.28125,0 0,-4.3125 z"
         id="path7383"
         inkscape:connector-curvature="0" />
      <path
         style="fill:#ddd539;fill-opacity:1;stroke:none"
         d="m 21.96875,36.59375 c -3.599713,0 -6.53125,2.931537 -6.53125,6.53125 0,3.599713 2.931537,6.53125 6.53125,6.53125 3.599713,0 6.5,-2.931537 6.5,-6.53125 0,-3.599713 -2.900287,-6.53125 -6.5,-6.53125 z m -2.15625,4.375 4.28125,0 0,4.3125 -4.28125,0 0,-4.3125 z"
         transform="translate(0,962.3622)"
         id="path7385"
         inkscape:connector-curvature="0" />
      <path
         style="fill:#fffdc5;fill-opacity:1;stroke:none"
         d="m 20.4375,36.8125 c -0.898618,0.217196 -1.721635,0.612486 -2.4375,1.15625 -0.238622,0.181255 -0.478118,0.381393 -0.6875,0.59375 l 2.59375,2.40625 4.1875,0 0,3.90625 2.75,2.5625 c 0.167984,-0.189963 0.3228,-0.385319 0.46875,-0.59375 0.01627,-0.02323 0.04652,-0.03905 0.0625,-0.0625 0.129007,-0.192246 0.235312,-0.387747 0.34375,-0.59375 0.09441,-0.175019 0.171733,-0.347084 0.25,-0.53125 0.02181,-0.05191 0.042,-0.103668 0.0625,-0.15625 0.05549,-0.141043 0.110748,-0.291784 0.15625,-0.4375 0.03194,-0.103376 0.06685,-0.207011 0.09375,-0.3125 L 20.4375,36.8125 z"
         transform="translate(0,962.3622)"
         id="path7387"
         inkscape:connector-curvature="0" />
      <path
         style="fill:#fffdc5;fill-opacity:1;stroke:none"
         d="m 22,36.59375 c 1.039331,0.849403 4.952271,4.417443 6.4375,5.78125 -0.05097,-0.439917 -0.147152,-0.872511 -0.28125,-1.28125 l -4.25,-4.1875 c -0.0096,-0.003 -0.02163,0.0029 -0.03125,0 C 23.280783,36.724467 22.653008,36.596873 22,36.59375 z"
         transform="translate(0,962.3622)"
         id="path7389"
         inkscape:connector-curvature="0" />
      <path
         style="fill:#fffdc5;fill-opacity:1;stroke:none"
         d="m 15.4375,42.875 c -0.0033,0.08471 0,0.164486 0,0.25 0,0.460552 0.0654,0.910196 0.15625,1.34375 l 6.375,5.1875 0.03125,0 c 0.289034,-0.0014 0.564771,-0.0559 0.84375,-0.09375 -2.173979,-2.016985 -5.726392,-5.281835 -7.40625,-6.6875 z"
         transform="translate(0,962.3622)"
         id="path7391"
         inkscape:connector-curvature="0" />
      <path
         transform="translate(0,962.3622)"
         style="fill:#b07423;fill-opacity:1;stroke:none"
         d="m 19.8125,40.96875 0,4.3125 4.28125,0 0,-4.3125 -4.28125,0 z m 0.46875,0.46875 3.375,0 0,3.375 -3.375,0 0,-3.375 z"
         id="path7393"
         inkscape:connector-curvature="0" />
    </g>
    <g
       transform="matrix(-0.26240197,0.3393482,-0.35558786,-0.29173227,398.82577,1333.6407)"
       id="g7395"
       style="opacity:0.44690265">
      <path
         style="fill:#85520d;fill-opacity:1;stroke:none"
         d="m 21.149553,998.1747 c -4.043513,0 -7.3125,3.269 -7.3125,7.3125 0,4.0435 3.268987,7.3125 7.3125,7.3125 4.043513,0 7.3125,-3.269 7.3125,-7.3125 0,-4.0435 -3.268987,-7.3125 -7.3125,-7.3125 z m -2.15625,5.1563 4.28125,0 0,4.3125 -4.28125,0 0,-4.3125 z"
         id="path7397"
         inkscape:connector-curvature="0" />
      <path
         inkscape:connector-curvature="0"
         id="path7399"
         d="m 21.953125,998.1747 c -4.043513,0 -7.3125,3.269 -7.3125,7.3125 0,4.0435 3.268987,7.3125 7.3125,7.3125 4.043513,0 7.3125,-3.269 7.3125,-7.3125 0,-4.0435 -3.268987,-7.3125 -7.3125,-7.3125 z m -2.15625,5.1563 4.28125,0 0,4.3125 -4.28125,0 0,-4.3125 z"
         style="fill:#ab6e1d;fill-opacity:1;stroke:none" />
      <path
         inkscape:connector-curvature="0"
         id="path7401"
         transform="translate(0,962.3622)"
         d="m 21.96875,36.59375 c -3.599713,0 -6.53125,2.931537 -6.53125,6.53125 0,3.599713 2.931537,6.53125 6.53125,6.53125 3.599713,0 6.5,-2.931537 6.5,-6.53125 0,-3.599713 -2.900287,-6.53125 -6.5,-6.53125 z m -2.15625,4.375 4.28125,0 0,4.3125 -4.28125,0 0,-4.3125 z"
         style="fill:#ddd539;fill-opacity:1;stroke:none" />
      <path
         inkscape:connector-curvature="0"
         id="path7403"
         transform="translate(0,962.3622)"
         d="m 20.4375,36.8125 c -0.898618,0.217196 -1.721635,0.612486 -2.4375,1.15625 -0.238622,0.181255 -0.478118,0.381393 -0.6875,0.59375 l 2.59375,2.40625 4.1875,0 0,3.90625 2.75,2.5625 c 0.167984,-0.189963 0.3228,-0.385319 0.46875,-0.59375 0.01627,-0.02323 0.04652,-0.03905 0.0625,-0.0625 0.129007,-0.192246 0.235312,-0.387747 0.34375,-0.59375 0.09441,-0.175019 0.171733,-0.347084 0.25,-0.53125 0.02181,-0.05191 0.042,-0.103668 0.0625,-0.15625 0.05549,-0.141043 0.110748,-0.291784 0.15625,-0.4375 0.03194,-0.103376 0.06685,-0.207011 0.09375,-0.3125 L 20.4375,36.8125 z"
         style="fill:#fffdc5;fill-opacity:1;stroke:none" />
      <path
         inkscape:connector-curvature="0"
         id="path7405"
         transform="translate(0,962.3622)"
         d="m 22,36.59375 c 1.039331,0.849403 4.952271,4.417443 6.4375,5.78125 -0.05097,-0.439917 -0.147152,-0.872511 -0.28125,-1.28125 l -4.25,-4.1875 c -0.0096,-0.003 -0.02163,0.0029 -0.03125,0 C 23.280783,36.724467 22.653008,36.596873 22,36.59375 z"
         style="fill:#fffdc5;fill-opacity:1;stroke:none" />
      <path
         inkscape:connector-curvature="0"
         id="path7407"
         transform="translate(0,962.3622)"
         d="m 15.4375,42.875 c -0.0033,0.08471 0,0.164486 0,0.25 0,0.460552 0.0654,0.910196 0.15625,1.34375 l 6.375,5.1875 0.03125,0 c 0.289034,-0.0014 0.564771,-0.0559 0.84375,-0.09375 -2.173979,-2.016985 -5.726392,-5.281835 -7.40625,-6.6875 z"
         style="fill:#fffdc5;fill-opacity:1;stroke:none" />
      <path
         inkscape:connector-curvature="0"
         id="path7409"
         d="m 19.8125,40.96875 0,4.3125 4.28125,0 0,-4.3125 -4.28125,0 z m 0.46875,0.46875 3.375,0 0,3.375 -3.375,0 0,-3.375 z"
         style="fill:#b07423;fill-opacity:1;stroke:none"
         transform="translate(0,962.3622)" />
    </g>
    <g
       style="opacity:0.44690265"
       id="g7411"
       transform="matrix(0.19728241,-0.35736666,-0.42490695,-0.3425302,468.38936,1349.8277)">
      <path
         inkscape:connector-curvature="0"
         id="path7413"
         d="m 21.149553,998.1747 c -4.043513,0 -7.3125,3.269 -7.3125,7.3125 0,4.0435 3.268987,7.3125 7.3125,7.3125 4.043513,0 7.3125,-3.269 7.3125,-7.3125 0,-4.0435 -3.268987,-7.3125 -7.3125,-7.3125 z m -2.15625,5.1563 4.28125,0 0,4.3125 -4.28125,0 0,-4.3125 z"
         style="fill:#85520d;fill-opacity:1;stroke:none" />
      <path
         style="fill:#ab6e1d;fill-opacity:1;stroke:none"
         d="m 21.953125,998.1747 c -4.043513,0 -7.3125,3.269 -7.3125,7.3125 0,4.0435 3.268987,7.3125 7.3125,7.3125 4.043513,0 7.3125,-3.269 7.3125,-7.3125 0,-4.0435 -3.268987,-7.3125 -7.3125,-7.3125 z m -2.15625,5.1563 4.28125,0 0,4.3125 -4.28125,0 0,-4.3125 z"
         id="path7415"
         inkscape:connector-curvature="0" />
      <path
         style="fill:#ddd539;fill-opacity:1;stroke:none"
         d="m 21.96875,36.59375 c -3.599713,0 -6.53125,2.931537 -6.53125,6.53125 0,3.599713 2.931537,6.53125 6.53125,6.53125 3.599713,0 6.5,-2.931537 6.5,-6.53125 0,-3.599713 -2.900287,-6.53125 -6.5,-6.53125 z m -2.15625,4.375 4.28125,0 0,4.3125 -4.28125,0 0,-4.3125 z"
         transform="translate(0,962.3622)"
         id="path7417"
         inkscape:connector-curvature="0" />
      <path
         style="fill:#fffdc5;fill-opacity:1;stroke:none"
         d="m 20.4375,36.8125 c -0.898618,0.217196 -1.721635,0.612486 -2.4375,1.15625 -0.238622,0.181255 -0.478118,0.381393 -0.6875,0.59375 l 2.59375,2.40625 4.1875,0 0,3.90625 2.75,2.5625 c 0.167984,-0.189963 0.3228,-0.385319 0.46875,-0.59375 0.01627,-0.02323 0.04652,-0.03905 0.0625,-0.0625 0.129007,-0.192246 0.235312,-0.387747 0.34375,-0.59375 0.09441,-0.175019 0.171733,-0.347084 0.25,-0.53125 0.02181,-0.05191 0.042,-0.103668 0.0625,-0.15625 0.05549,-0.141043 0.110748,-0.291784 0.15625,-0.4375 0.03194,-0.103376 0.06685,-0.207011 0.09375,-0.3125 L 20.4375,36.8125 z"
         transform="translate(0,962.3622)"
         id="path7419"
         inkscape:connector-curvature="0" />
      <path
         style="fill:#fffdc5;fill-opacity:1;stroke:none"
         d="m 22,36.59375 c 1.039331,0.849403 4.952271,4.417443 6.4375,5.78125 -0.05097,-0.439917 -0.147152,-0.872511 -0.28125,-1.28125 l -4.25,-4.1875 c -0.0096,-0.003 -0.02163,0.0029 -0.03125,0 C 23.280783,36.724467 22.653008,36.596873 22,36.59375 z"
         transform="translate(0,962.3622)"
         id="path7421"
         inkscape:connector-curvature="0" />
      <path
         style="fill:#fffdc5;fill-opacity:1;stroke:none"
         d="m 15.4375,42.875 c -0.0033,0.08471 0,0.164486 0,0.25 0,0.460552 0.0654,0.910196 0.15625,1.34375 l 6.375,5.1875 0.03125,0 c 0.289034,-0.0014 0.564771,-0.0559 0.84375,-0.09375 -2.173979,-2.016985 -5.726392,-5.281835 -7.40625,-6.6875 z"
         transform="translate(0,962.3622)"
         id="path7423"
         inkscape:connector-curvature="0" />
      <path
         style="fill:#b07423;fill-opacity:1;stroke:none"
         d="m 19.8125,40.96875 0,4.3125 4.28125,0 0,-4.3125 -4.28125,0 z m 0.46875,0.46875 3.375,0 0,3.375 -3.375,0 0,-3.375 z"
         transform="translate(0,962.3622)"
         id="path7425"
         inkscape:connector-curvature="0" />
    </g>
    <g
       style="opacity:0.44690265"
       id="g7427"
       transform="matrix(0.34140042,-0.28305647,0.28305647,0.34140042,-246.30312,669.32657)">
      <path
         inkscape:connector-curvature="0"
         id="path7429"
         d="m 21.149553,998.1747 c -4.043513,0 -7.3125,3.269 -7.3125,7.3125 0,4.0435 3.268987,7.3125 7.3125,7.3125 4.043513,0 7.3125,-3.269 7.3125,-7.3125 0,-4.0435 -3.268987,-7.3125 -7.3125,-7.3125 z m -2.15625,5.1563 4.28125,0 0,4.3125 -4.28125,0 0,-4.3125 z"
         style="fill:#85520d;fill-opacity:1;stroke:none" />
      <path
         style="fill:#ab6e1d;fill-opacity:1;stroke:none"
         d="m 21.953125,998.1747 c -4.043513,0 -7.3125,3.269 -7.3125,7.3125 0,4.0435 3.268987,7.3125 7.3125,7.3125 4.043513,0 7.3125,-3.269 7.3125,-7.3125 0,-4.0435 -3.268987,-7.3125 -7.3125,-7.3125 z m -2.15625,5.1563 4.28125,0 0,4.3125 -4.28125,0 0,-4.3125 z"
         id="path7431"
         inkscape:connector-curvature="0" />
      <path
         style="fill:#ddd539;fill-opacity:1;stroke:none"
         d="m 21.96875,36.59375 c -3.599713,0 -6.53125,2.931537 -6.53125,6.53125 0,3.599713 2.931537,6.53125 6.53125,6.53125 3.599713,0 6.5,-2.931537 6.5,-6.53125 0,-3.599713 -2.900287,-6.53125 -6.5,-6.53125 z m -2.15625,4.375 4.28125,0 0,4.3125 -4.28125,0 0,-4.3125 z"
         transform="translate(0,962.3622)"
         id="path7433"
         inkscape:connector-curvature="0" />
      <path
         style="fill:#fffdc5;fill-opacity:1;stroke:none"
         d="m 20.4375,36.8125 c -0.898618,0.217196 -1.721635,0.612486 -2.4375,1.15625 -0.238622,0.181255 -0.478118,0.381393 -0.6875,0.59375 l 2.59375,2.40625 4.1875,0 0,3.90625 2.75,2.5625 c 0.167984,-0.189963 0.3228,-0.385319 0.46875,-0.59375 0.01627,-0.02323 0.04652,-0.03905 0.0625,-0.0625 0.129007,-0.192246 0.235312,-0.387747 0.34375,-0.59375 0.09441,-0.175019 0.171733,-0.347084 0.25,-0.53125 0.02181,-0.05191 0.042,-0.103668 0.0625,-0.15625 0.05549,-0.141043 0.110748,-0.291784 0.15625,-0.4375 0.03194,-0.103376 0.06685,-0.207011 0.09375,-0.3125 L 20.4375,36.8125 z"
         transform="translate(0,962.3622)"
         id="path7435"
         inkscape:connector-curvature="0" />
      <path
         style="fill:#fffdc5;fill-opacity:1;stroke:none"
         d="m 22,36.59375 c 1.039331,0.849403 4.952271,4.417443 6.4375,5.78125 -0.05097,-0.439917 -0.147152,-0.872511 -0.28125,-1.28125 l -4.25,-4.1875 c -0.0096,-0.003 -0.02163,0.0029 -0.03125,0 C 23.280783,36.724467 22.653008,36.596873 22,36.59375 z"
         transform="translate(0,962.3622)"
         id="path7437"
         inkscape:connector-curvature="0" />
      <path
         style="fill:#fffdc5;fill-opacity:1;stroke:none"
         d="m 15.4375,42.875 c -0.0033,0.08471 0,0.164486 0,0.25 0,0.460552 0.0654,0.910196 0.15625,1.34375 l 6.375,5.1875 0.03125,0 c 0.289034,-0.0014 0.564771,-0.0559 0.84375,-0.09375 -2.173979,-2.016985 -5.726392,-5.281835 -7.40625,-6.6875 z"
         transform="translate(0,962.3622)"
         id="path7439"
         inkscape:connector-curvature="0" />
      <path
         style="fill:#b07423;fill-opacity:1;stroke:none"
         d="m 19.8125,40.96875 0,4.3125 4.28125,0 0,-4.3125 -4.28125,0 z m 0.46875,0.46875 3.375,0 0,3.375 -3.375,0 0,-3.375 z"
         transform="translate(0,962.3622)"
         id="path7441"
         inkscape:connector-curvature="0" />
    </g>
    <g
       transform="matrix(0.31923801,0.30783486,-0.30783486,0.31923801,376.33991,681.40146)"
       id="g7443"
       style="opacity:0.44690265">
      <path
         style="fill:#85520d;fill-opacity:1;stroke:none"
         d="m 21.149553,998.1747 c -4.043513,0 -7.3125,3.269 -7.3125,7.3125 0,4.0435 3.268987,7.3125 7.3125,7.3125 4.043513,0 7.3125,-3.269 7.3125,-7.3125 0,-4.0435 -3.268987,-7.3125 -7.3125,-7.3125 z m -2.15625,5.1563 4.28125,0 0,4.3125 -4.28125,0 0,-4.3125 z"
         id="path7445"
         inkscape:connector-curvature="0" />
      <path
         inkscape:connector-curvature="0"
         id="path7447"
         d="m 21.953125,998.1747 c -4.043513,0 -7.3125,3.269 -7.3125,7.3125 0,4.0435 3.268987,7.3125 7.3125,7.3125 4.043513,0 7.3125,-3.269 7.3125,-7.3125 0,-4.0435 -3.268987,-7.3125 -7.3125,-7.3125 z m -2.15625,5.1563 4.28125,0 0,4.3125 -4.28125,0 0,-4.3125 z"
         style="fill:#ab6e1d;fill-opacity:1;stroke:none" />
      <path
         inkscape:connector-curvature="0"
         id="path7449"
         transform="translate(0,962.3622)"
         d="m 21.96875,36.59375 c -3.599713,0 -6.53125,2.931537 -6.53125,6.53125 0,3.599713 2.931537,6.53125 6.53125,6.53125 3.599713,0 6.5,-2.931537 6.5,-6.53125 0,-3.599713 -2.900287,-6.53125 -6.5,-6.53125 z m -2.15625,4.375 4.28125,0 0,4.3125 -4.28125,0 0,-4.3125 z"
         style="fill:#ddd539;fill-opacity:1;stroke:none" />
      <path
         inkscape:connector-curvature="0"
         id="path7451"
         transform="translate(0,962.3622)"
         d="m 20.4375,36.8125 c -0.898618,0.217196 -1.721635,0.612486 -2.4375,1.15625 -0.238622,0.181255 -0.478118,0.381393 -0.6875,0.59375 l 2.59375,2.40625 4.1875,0 0,3.90625 2.75,2.5625 c 0.167984,-0.189963 0.3228,-0.385319 0.46875,-0.59375 0.01627,-0.02323 0.04652,-0.03905 0.0625,-0.0625 0.129007,-0.192246 0.235312,-0.387747 0.34375,-0.59375 0.09441,-0.175019 0.171733,-0.347084 0.25,-0.53125 0.02181,-0.05191 0.042,-0.103668 0.0625,-0.15625 0.05549,-0.141043 0.110748,-0.291784 0.15625,-0.4375 0.03194,-0.103376 0.06685,-0.207011 0.09375,-0.3125 L 20.4375,36.8125 z"
         style="fill:#fffdc5;fill-opacity:1;stroke:none" />
      <path
         inkscape:connector-curvature="0"
         id="path7453"
         transform="translate(0,962.3622)"
         d="m 22,36.59375 c 1.039331,0.849403 4.952271,4.417443 6.4375,5.78125 -0.05097,-0.439917 -0.147152,-0.872511 -0.28125,-1.28125 l -4.25,-4.1875 c -0.0096,-0.003 -0.02163,0.0029 -0.03125,0 C 23.280783,36.724467 22.653008,36.596873 22,36.59375 z"
         style="fill:#fffdc5;fill-opacity:1;stroke:none" />
      <path
         inkscape:connector-curvature="0"
         id="path7455"
         transform="translate(0,962.3622)"
         d="m 15.4375,42.875 c -0.0033,0.08471 0,0.164486 0,0.25 0,0.460552 0.0654,0.910196 0.15625,1.34375 l 6.375,5.1875 0.03125,0 c 0.289034,-0.0014 0.564771,-0.0559 0.84375,-0.09375 -2.173979,-2.016985 -5.726392,-5.281835 -7.40625,-6.6875 z"
         style="fill:#fffdc5;fill-opacity:1;stroke:none" />
      <path
         inkscape:connector-curvature="0"
         id="path7457"
         transform="translate(0,962.3622)"
         d="m 19.8125,40.96875 0,4.3125 4.28125,0 0,-4.3125 -4.28125,0 z m 0.46875,0.46875 3.375,0 0,3.375 -3.375,0 0,-3.375 z"
         style="fill:#b07423;fill-opacity:1;stroke:none" />
    </g>
    <path
       style="opacity:0.61946902;fill:#ffffff;fill-opacity:1;stroke:none;filter:url(#filter7465)"
       d="m 45.078058,1027.0082 c 0.43541,-0.1089 3.70099,-0.2177 4.898369,-1.0885 1.197378,-0.8709 2.177052,-9.7968 2.177052,-9.7968 0,0 -0.43541,9.0348 0.761969,9.9056 1.197379,0.8708 4.789516,1.9594 4.789516,1.9594 0,0 -4.789516,-0.8709 -5.224927,-0.4355 -0.43541,0.4355 -2.177052,9.3614 -2.177052,9.3614 0,0 1.306232,-7.9463 -1.306232,-8.9259 -2.612464,-0.9797 -3.918695,-0.9797 -3.918695,-0.9797 z"
       id="path7459"
       inkscape:connector-curvature="0" />
    <path
       style="opacity:0.61946902000000004;fill:#ffffff;fill-opacity:1;stroke:none;filter:url(#filter7479)"
       d="m 19.445437,76.362941 c 0,0 1.388959,-0.252539 1.894036,-1.010153 0.505076,-0.757614 -0.883884,-5.303301 -0.883884,-5.303301 0,0 1.515229,4.166879 2.399112,4.419418 0.883884,0.252538 2.904189,-0.505077 2.904189,-0.505077 0,0 -2.904189,1.136422 -3.030458,2.020305 -0.126269,0.883884 1.38896,4.16688 1.38896,4.16688 0,0 -1.641498,-3.788072 -2.525381,-3.788072 -0.883884,0 -2.146574,0 -2.146574,0 z"
       id="path7473"
       inkscape:connector-curvature="0"
       transform="translate(0,962.3622)" />
    <path
       inkscape:connector-curvature="0"
       id="path7483"
       d="m 9.2176425,985.43959 c 0,0 1.3889585,-0.25253 1.8940355,-1.01015 0.505076,-0.75761 -0.883884,-5.3033 -0.883884,-5.3033 0,0 1.515229,4.16688 2.399112,4.41942 0.883884,0.25254 2.904189,-0.50508 2.904189,-0.50508 0,0 -2.904189,1.13642 -3.030458,2.02031 -0.126269,0.88388 1.38896,4.16688 1.38896,4.16688 0,0 -1.641498,-3.78808 -2.525381,-3.78808 -0.883884,0 -2.1465735,0 -2.1465735,0 z"
       style="opacity:0.61946902;fill:#ffffff;fill-opacity:1;stroke:none;filter:url(#filter7479)"
       transform="matrix(2.1649624,0,0,2.1649624,-9.7404937,-1139.6474)" />
    <path
       inkscape:connector-curvature="0"
       id="path7485"
       d="m 36.870569,983.19283 c 0.43541,-0.1089 3.70099,-0.2177 4.898369,-1.0885 1.197378,-0.8709 2.177052,-9.7968 2.177052,-9.7968 0,0 -0.43541,9.0348 0.761969,9.9056 1.197379,0.8708 4.789516,1.9594 4.789516,1.9594 0,0 -4.789516,-0.8709 -5.224927,-0.4355 -0.43541,0.4355 -2.177052,9.3614 -2.177052,9.3614 0,0 1.306232,-7.9463 -1.306232,-8.9259 -2.612464,-0.9797 -3.918695,-0.9797 -3.918695,-0.9797 z"
       style="opacity:0.61946902;fill:#ffffff;fill-opacity:1;stroke:none;filter:url(#filter7465)"
       transform="matrix(0.58054332,0,0,0.58054332,15.209638,407.58492)" />
    <path
       transform="matrix(-0.27550736,1.3383365,-1.3383365,-0.27550736,1391.5911,1300.7518)"
       style="opacity:0.61946902;fill:#ffffff;fill-opacity:1;stroke:none;filter:url(#filter7479)"
       d="m 9.2176425,985.43959 c 0,0 1.3889585,-0.25253 1.8940355,-1.01015 0.505076,-0.75761 -0.883884,-5.3033 -0.883884,-5.3033 0,0 1.515229,4.16688 2.399112,4.41942 0.883884,0.25254 2.904189,-0.50508 2.904189,-0.50508 0,0 -2.904189,1.13642 -3.030458,2.02031 -0.126269,0.88388 1.38896,4.16688 1.38896,4.16688 0,0 -1.641498,-3.78808 -2.525381,-3.78808 -0.883884,0 -2.1465735,0 -2.1465735,0 z"
       id="path7487"
       inkscape:connector-curvature="0" />
    <path
       inkscape:connector-curvature="0"
       id="path7489"
       d="m 50.128821,994.53097 c 0,0 1.388959,-0.25254 1.894036,-1.01016 0.505076,-0.75761 -0.883884,-5.3033 -0.883884,-5.3033 0,0 1.515229,4.16688 2.399112,4.41942 0.883884,0.25254 2.904189,-0.50508 2.904189,-0.50508 0,0 -2.904189,1.13643 -3.030458,2.02031 -0.126269,0.88388 1.38896,4.16688 1.38896,4.16688 0,0 -1.641498,-3.78807 -2.525381,-3.78807 -0.883884,0 -2.146574,0 -2.146574,0 z"
       style="opacity:0.61946902;fill:#ffffff;fill-opacity:1;stroke:none;filter:url(#filter7479)"
       transform="matrix(-0.87444827,0.48511877,-0.48511877,-0.87444827,581.73408,1835.9802)" />
    <path
       transform="matrix(0.9563484,0,-0.13219323,0.67346716,197.4307,349.83065)"
       style="opacity:0.61946902;fill:#ffffff;fill-opacity:1;stroke:none;filter:url(#filter7479)"
       d="m 9.2176425,985.43959 c 0,0 1.3889585,-0.25253 1.8940355,-1.01015 0.505076,-0.75761 -0.883884,-5.3033 -0.883884,-5.3033 0,0 1.515229,4.16688 2.399112,4.41942 0.883884,0.25254 2.904189,-0.50508 2.904189,-0.50508 0,0 -2.904189,1.13642 -3.030458,2.02031 -0.126269,0.88388 1.38896,4.16688 1.38896,4.16688 0,0 -1.641498,-3.78808 -2.525381,-3.78808 -0.883884,0 -2.1465735,0 -2.1465735,0 z"
       id="path7491"
       inkscape:connector-curvature="0" />
    <path
       inkscape:connector-curvature="0"
       id="path7493"
       d="m 9.2176425,985.43959 c 0,0 1.3889585,-0.25253 1.8940355,-1.01015 0.505076,-0.75761 -0.883884,-5.3033 -0.883884,-5.3033 0,0 1.515229,4.16688 2.399112,4.41942 0.883884,0.25254 2.904189,-0.50508 2.904189,-0.50508 0,0 -2.904189,1.13642 -3.030458,2.02031 -0.126269,0.88388 1.38896,4.16688 1.38896,4.16688 0,0 -1.641498,-3.78808 -2.525381,-3.78808 -0.883884,0 -2.1465735,0 -2.1465735,0 z"
       style="opacity:0.61946902;fill:#ffffff;fill-opacity:1;stroke:none;filter:url(#filter7479)"
       transform="matrix(0.65821458,0.69379812,-0.5795605,0.36761759,583.32208,597.56223)" />
    <path
       transform="matrix(0.50781958,0.53527266,-0.44713711,0.2836209,437.98981,737.0334)"
       style="opacity:0.25663717;fill:#ffffff;fill-opacity:1;stroke:none;filter:url(#filter7479)"
       d="m 9.2176425,985.43959 c 0,0 1.3889585,-0.25253 1.8940355,-1.01015 0.505076,-0.75761 -0.883884,-5.3033 -0.883884,-5.3033 0,0 1.515229,4.16688 2.399112,4.41942 0.883884,0.25254 2.904189,-0.50508 2.904189,-0.50508 0,0 -2.904189,1.13642 -3.030458,2.02031 -0.126269,0.88388 1.38896,4.16688 1.38896,4.16688 0,0 -1.641498,-3.78808 -2.525381,-3.78808 -0.883884,0 -2.1465735,0 -2.1465735,0 z"
       id="path7495"
       inkscape:connector-curvature="0"
       inkscape:transform-center-x="-9.0598754"
       inkscape:transform-center-y="-43.058724" />
    <path
       inkscape:transform-center-y="-43.058724"
       inkscape:transform-center-x="-9.0598754"
       inkscape:connector-curvature="0"
       id="path7497"
       d="m 9.2176425,985.43959 c 0,0 1.3889585,-0.25253 1.8940355,-1.01015 0.505076,-0.75761 -0.883884,-5.3033 -0.883884,-5.3033 0,0 1.515229,4.16688 2.399112,4.41942 0.883884,0.25254 2.904189,-0.50508 2.904189,-0.50508 0,0 -2.904189,1.13642 -3.030458,2.02031 -0.126269,0.88388 1.38896,4.16688 1.38896,4.16688 0,0 -1.641498,-3.78808 -2.525381,-3.78808 -0.883884,0 -2.1465735,0 -2.1465735,0 z"
       style="opacity:0.25663715;fill:#ffffff;fill-opacity:1;stroke:none;filter:url(#filter7479)"
       transform="matrix(0.50781958,0.53527266,-0.44713711,0.2836209,508.19541,744.48328)" />
    <path
       transform="matrix(0.53651104,0.56551521,-0.47240004,0.29964528,492.96071,694.29078)"
       style="opacity:0.25663715;fill:#ffffff;fill-opacity:1;stroke:none;filter:url(#filter7479)"
       d="m 9.2176425,985.43959 c 0,0 1.3889585,-0.25253 1.8940355,-1.01015 0.505076,-0.75761 -0.883884,-5.3033 -0.883884,-5.3033 0,0 1.515229,4.16688 2.399112,4.41942 0.883884,0.25254 2.904189,-0.50508 2.904189,-0.50508 0,0 -2.904189,1.13642 -3.030458,2.02031 -0.126269,0.88388 1.38896,4.16688 1.38896,4.16688 0,0 -1.641498,-3.78808 -2.525381,-3.78808 -0.883884,0 -2.1465735,0 -2.1465735,0 z"
       id="path7499"
       inkscape:connector-curvature="0"
       inkscape:transform-center-x="-9.5717554"
       inkscape:transform-center-y="-45.491508" />
    <path
       inkscape:transform-center-y="-23.910859"
       inkscape:transform-center-x="-5.0310318"
       inkscape:connector-curvature="0"
       id="path7501"
       d="m 9.2176425,985.43959 c 0,0 1.3889585,-0.25253 1.8940355,-1.01015 0.505076,-0.75761 -0.883884,-5.3033 -0.883884,-5.3033 0,0 1.515229,4.16688 2.399112,4.41942 0.883884,0.25254 2.904189,-0.50508 2.904189,-0.50508 0,0 -2.904189,1.13642 -3.030458,2.02031 -0.126269,0.88388 1.38896,4.16688 1.38896,4.16688 0,0 -1.641498,-3.78808 -2.525381,-3.78808 -0.883884,0 -2.1465735,0 -2.1465735,0 z"
       style="opacity:0.25663715;fill:#ffffff;fill-opacity:1;stroke:none;filter:url(#filter7479)"
       transform="matrix(0.28199642,0.29724134,-0.24829893,0.15749703,246.62527,810.60834)" />
    <path
       transform="matrix(0.28199642,0.29724134,-0.24829893,0.15749703,307.99204,835.86215)"
       style="opacity:0.25663715;fill:#ffffff;fill-opacity:1;stroke:none;filter:url(#filter7479)"
       d="m 9.2176425,985.43959 c 0,0 1.3889585,-0.25253 1.8940355,-1.01015 0.505076,-0.75761 -0.883884,-5.3033 -0.883884,-5.3033 0,0 1.515229,4.16688 2.399112,4.41942 0.883884,0.25254 2.904189,-0.50508 2.904189,-0.50508 0,0 -2.904189,1.13642 -3.030458,2.02031 -0.126269,0.88388 1.38896,4.16688 1.38896,4.16688 0,0 -1.641498,-3.78808 -2.525381,-3.78808 -0.883884,0 -2.1465735,0 -2.1465735,0 z"
       id="path7503"
       inkscape:connector-curvature="0"
       inkscape:transform-center-x="-5.0310318"
       inkscape:transform-center-y="-23.910859" />
    <path
       inkscape:transform-center-y="-28.653487"
       inkscape:transform-center-x="-6.0289258"
       inkscape:connector-curvature="0"
       id="path7505"
       d="m 9.2176425,985.43959 c 0,0 1.3889585,-0.25253 1.8940355,-1.01015 0.505076,-0.75761 -0.883884,-5.3033 -0.883884,-5.3033 0,0 1.515229,4.16688 2.399112,4.41942 0.883884,0.25254 2.904189,-0.50508 2.904189,-0.50508 0,0 -2.904189,1.13642 -3.030458,2.02031 -0.126269,0.88388 1.38896,4.16688 1.38896,4.16688 0,0 -1.641498,-3.78808 -2.525381,-3.78808 -0.883884,0 -2.1465735,0 -2.1465735,0 z"
       style="opacity:0.25663715;fill:#ffffff;fill-opacity:1;stroke:none;filter:url(#filter7479)"
       transform="matrix(0.33792936,0.35619805,-0.29754809,0.18873598,340.67332,856.49255)" />
    <path
       transform="matrix(0.56502094,0.61114634,-0.50847463,0.31341468,501.02903,731.91937)"
       style="opacity:0.25663715;fill:#ffffff;fill-opacity:1;stroke:none;filter:url(#filter7479)"
       d="m 9.2176425,985.43959 c 0,0 1.3889585,-0.25253 1.8940355,-1.01015 0.505076,-0.75761 -0.883884,-5.3033 -0.883884,-5.3033 0,0 1.515229,4.16688 2.399112,4.41942 0.883884,0.25254 2.904189,-0.50508 2.904189,-0.50508 0,0 -2.904189,1.13642 -3.030458,2.02031 -0.126269,0.88388 1.38896,4.16688 1.38896,4.16688 0,0 -1.641498,-3.78808 -2.525381,-3.78808 -0.883884,0 -2.1465735,0 -2.1465735,0 z"
       id="path7507"
       inkscape:connector-curvature="0"
       inkscape:transform-center-x="-10.842266"
       inkscape:transform-center-y="-48.438753" />
    <path
       inkscape:connector-curvature="0"
       id="path7509"
       d="m 35.607878,1015.1128 c 0,0 1.388959,-0.2525 1.894036,-1.0101 0.505076,-0.7576 -0.883884,-5.3033 -0.883884,-5.3033 0,0 1.515229,4.1669 2.399112,4.4194 0.883884,0.2525 2.904189,-0.5051 2.904189,-0.5051 0,0 -2.904189,1.1364 -3.030458,2.0203 -0.126269,0.8839 1.38896,4.1669 1.38896,4.1669 0,0 -1.641498,-3.7881 -2.525381,-3.7881 -0.883884,0 -2.146574,0 -2.146574,0 z"
       style="opacity:0.34070794;fill:#ffffff;fill-opacity:1;stroke:none;filter:url(#filter7479)"
       transform="matrix(0.24083928,0.17156094,-0.17156094,0.24083928,200.81448,763.31901)" />
    <path
       transform="matrix(0.24083928,0.17156094,-0.17156094,0.24083928,231.11906,757.51063)"
       style="opacity:0.34070794;fill:#ffffff;fill-opacity:1;stroke:none;filter:url(#filter7479)"
       d="m 35.607878,1015.1128 c 0,0 1.388959,-0.2525 1.894036,-1.0101 0.505076,-0.7576 -0.883884,-5.3033 -0.883884,-5.3033 0,0 1.515229,4.1669 2.399112,4.4194 0.883884,0.2525 2.904189,-0.5051 2.904189,-0.5051 0,0 -2.904189,1.1364 -3.030458,2.0203 -0.126269,0.8839 1.38896,4.1669 1.38896,4.1669 0,0 -1.641498,-3.7881 -2.525381,-3.7881 -0.883884,0 -2.146574,0 -2.146574,0 z"
       id="path7511"
       inkscape:connector-curvature="0" />
    <path
       inkscape:connector-curvature="0"
       id="path7513"
       d="m 35.607878,1015.1128 c 0,0 1.388959,-0.2525 1.894036,-1.0101 0.505076,-0.7576 -0.883884,-5.3033 -0.883884,-5.3033 0,0 1.515229,4.1669 2.399112,4.4194 0.883884,0.2525 2.904189,-0.5051 2.904189,-0.5051 0,0 -2.904189,1.1364 -3.030458,2.0203 -0.126269,0.8839 1.38896,4.1669 1.38896,4.1669 0,0 -1.641498,-3.7881 -2.525381,-3.7881 -0.883884,0 -2.146574,0 -2.146574,0 z"
       style="opacity:0.34070794;fill:#ffffff;fill-opacity:1;stroke:none;filter:url(#filter7479)"
       transform="matrix(0.24083928,0.17156094,-0.17156094,0.24083928,176.57082,722.5341)" />
  </g>
</svg>
