<?xml version="1.0" encoding="UTF-8" standalone="no"?>
<!-- Created with Inkscape (http://www.inkscape.org/) -->

<svg
   xmlns:dc="http://purl.org/dc/elements/1.1/"
   xmlns:cc="http://creativecommons.org/ns#"
   xmlns:rdf="http://www.w3.org/1999/02/22-rdf-syntax-ns#"
   xmlns:svg="http://www.w3.org/2000/svg"
   xmlns="http://www.w3.org/2000/svg"
   xmlns:xlink="http://www.w3.org/1999/xlink"
   xmlns:sodipodi="http://sodipodi.sourceforge.net/DTD/sodipodi-0.dtd"
   xmlns:inkscape="http://www.inkscape.org/namespaces/inkscape"
   width="180"
   height="180"
   id="svg4894"
   version="1.1"
   inkscape:version="0.48.4 r9939"
   sodipodi:docname="sylphaeHorn.svg"
   inkscape:export-filename="C:\Users\Stephen\Desktop\neonair\csc\Roll20API\myFork\roll20-api-scripts\AreasOfEffect\sampleEffectGraphics\sylphaeHorn.png"
   inkscape:export-xdpi="300"
   inkscape:export-ydpi="300">
  <defs
     id="defs4896">
    <linearGradient
       id="linearGradient5594">
      <stop
         style="stop-color:#34551b;stop-opacity:1;"
         offset="0"
         id="stop5596" />
      <stop
         id="stop5602"
         offset="0.5"
         style="stop-color:#34551b;stop-opacity:1;" />
      <stop
         style="stop-color:#6b7919;stop-opacity:1;"
         offset="0.75"
         id="stop5604" />
      <stop
         style="stop-color:#f3ec9d;stop-opacity:1;"
         offset="1"
         id="stop5598" />
    </linearGradient>
    <linearGradient
       id="linearGradient5469">
      <stop
         style="stop-color:#4e6d15;stop-opacity:1;"
         offset="0"
         id="stop5471" />
      <stop
         style="stop-color:#1d3a0d;stop-opacity:1;"
         offset="1"
         id="stop5473" />
    </linearGradient>
    <linearGradient
       id="linearGradient5412">
      <stop
         style="stop-color:#f1ffbb;stop-opacity:0;"
         offset="0"
         id="stop5414" />
      <stop
         id="stop5422"
         offset="0.89999998"
         style="stop-color:#faff79;stop-opacity:0.24015749;" />
      <stop
         style="stop-color:#7ba653;stop-opacity:1;"
         offset="1"
         id="stop5416" />
    </linearGradient>
    <radialGradient
       inkscape:collect="always"
       xlink:href="#linearGradient5412"
       id="radialGradient5418"
       cx="88.388351"
       cy="88.328659"
       fx="88.388351"
       fy="88.328659"
       r="85.862968"
       gradientUnits="userSpaceOnUse" />
    <radialGradient
       inkscape:collect="always"
       xlink:href="#linearGradient5469"
       id="radialGradient5482"
       gradientUnits="userSpaceOnUse"
       gradientTransform="matrix(0.72863376,0.42819254,-0.53000738,0.90188695,38.468282,-10.285634)"
       cx="37.041061"
       cy="53.71804"
       fx="37.041061"
       fy="53.71804"
       r="8.9299219" />
    <radialGradient
       inkscape:collect="always"
       xlink:href="#linearGradient5469"
       id="radialGradient5490"
       gradientUnits="userSpaceOnUse"
       gradientTransform="matrix(0.72863376,0.42819254,-0.53000738,0.90188695,38.468282,-10.285634)"
       cx="37.041061"
       cy="53.71804"
       fx="37.041061"
       fy="53.71804"
       r="8.9299219" />
    <radialGradient
       inkscape:collect="always"
       xlink:href="#linearGradient5469"
       id="radialGradient5504"
       gradientUnits="userSpaceOnUse"
       gradientTransform="matrix(0.72863376,0.42819254,-0.53000738,0.90188695,38.468282,-10.285634)"
       cx="37.041061"
       cy="53.71804"
       fx="37.041061"
       fy="53.71804"
       r="8.9299219" />
    <radialGradient
       inkscape:collect="always"
       xlink:href="#linearGradient5469"
       id="radialGradient5512"
       gradientUnits="userSpaceOnUse"
       gradientTransform="matrix(0.72863376,0.42819254,-0.53000738,0.90188695,38.468282,-10.285634)"
       cx="37.041061"
       cy="53.71804"
       fx="37.041061"
       fy="53.71804"
       r="8.9299219" />
    <radialGradient
       inkscape:collect="always"
       xlink:href="#linearGradient5469"
       id="radialGradient5520"
       gradientUnits="userSpaceOnUse"
       gradientTransform="matrix(0.72863376,0.42819254,-0.53000738,0.90188695,38.468282,-10.285634)"
       cx="37.041061"
       cy="53.71804"
       fx="37.041061"
       fy="53.71804"
       r="8.9299219" />
    <radialGradient
       inkscape:collect="always"
       xlink:href="#linearGradient5469"
       id="radialGradient5528"
       gradientUnits="userSpaceOnUse"
       gradientTransform="matrix(0.72863376,0.42819254,-0.53000738,0.90188695,38.468282,-10.285634)"
       cx="37.041061"
       cy="53.71804"
       fx="37.041061"
       fy="53.71804"
       r="8.9299219" />
    <radialGradient
       inkscape:collect="always"
       xlink:href="#linearGradient5469"
       id="radialGradient5536"
       gradientUnits="userSpaceOnUse"
       gradientTransform="matrix(0.72863376,0.42819254,-0.53000738,0.90188695,38.468282,-10.285634)"
       cx="37.041061"
       cy="53.71804"
       fx="37.041061"
       fy="53.71804"
       r="8.9299219" />
    <radialGradient
       inkscape:collect="always"
       xlink:href="#linearGradient5469"
       id="radialGradient5544"
       gradientUnits="userSpaceOnUse"
       gradientTransform="matrix(0.72863376,0.42819254,-0.53000738,0.90188695,38.468282,-10.285634)"
       cx="37.041061"
       cy="53.71804"
       fx="37.041061"
       fy="53.71804"
       r="8.9299219" />
    <radialGradient
       inkscape:collect="always"
       xlink:href="#linearGradient5469"
       id="radialGradient5552"
       gradientUnits="userSpaceOnUse"
       gradientTransform="matrix(0.72863376,0.42819254,-0.53000738,0.90188695,38.468282,-10.285634)"
       cx="37.041061"
       cy="53.71804"
       fx="37.041061"
       fy="53.71804"
       r="8.9299219" />
    <radialGradient
       inkscape:collect="always"
       xlink:href="#linearGradient5469"
       id="radialGradient5560"
       gradientUnits="userSpaceOnUse"
       gradientTransform="matrix(0.72863376,0.42819254,-0.53000738,0.90188695,38.468282,-10.285634)"
       cx="37.041061"
       cy="53.71804"
       fx="37.041061"
       fy="53.71804"
       r="8.9299219" />
    <radialGradient
       inkscape:collect="always"
       xlink:href="#linearGradient5469"
       id="radialGradient5574"
       gradientUnits="userSpaceOnUse"
       gradientTransform="matrix(0.72863376,0.42819254,-0.53000738,0.90188695,38.468282,-10.285634)"
       cx="37.041061"
       cy="53.71804"
       fx="37.041061"
       fy="53.71804"
       r="8.9299219" />
    <radialGradient
       inkscape:collect="always"
       xlink:href="#linearGradient5469"
       id="radialGradient5582"
       gradientUnits="userSpaceOnUse"
       gradientTransform="matrix(0.72863376,0.42819254,-0.53000738,0.90188695,38.468282,-10.285634)"
       cx="37.041061"
       cy="53.71804"
       fx="37.041061"
       fy="53.71804"
       r="8.9299219" />
    <radialGradient
       inkscape:collect="always"
       xlink:href="#linearGradient5469"
       id="radialGradient5590"
       gradientUnits="userSpaceOnUse"
       gradientTransform="matrix(0.72863376,0.42819254,-0.53000738,0.90188695,38.468282,-10.285634)"
       cx="37.041061"
       cy="53.71804"
       fx="37.041061"
       fy="53.71804"
       r="8.9299219" />
    <radialGradient
       inkscape:collect="always"
       xlink:href="#linearGradient5594"
       id="radialGradient5600"
       cx="35.454441"
       cy="82.993614"
       fx="35.454441"
       fy="82.993614"
       r="5.0095663"
       gradientTransform="matrix(0.91107354,0.70633808,-0.87564284,1.129452,75.897313,-37.08812)"
       gradientUnits="userSpaceOnUse" />
    <radialGradient
       inkscape:collect="always"
       xlink:href="#linearGradient5594"
       id="radialGradient5614"
       cx="24.824791"
       cy="72.447128"
       fx="24.824791"
       fy="72.447128"
       r="3.0962055"
       gradientTransform="matrix(-1.619795,-0.35084166,0.42279912,-1.9520145,34.609274,221.906)"
       gradientUnits="userSpaceOnUse" />
    <radialGradient
       inkscape:collect="always"
       xlink:href="#linearGradient5594"
       id="radialGradient5624"
       cx="12.556233"
       cy="74.51532"
       fx="12.556233"
       fy="74.51532"
       r="2.9910717"
       gradientTransform="matrix(0.31386615,-1.1984042,1.1284587,0.29554718,-75.037363,67.465326)"
       gradientUnits="userSpaceOnUse" />
    <radialGradient
       inkscape:collect="always"
       xlink:href="#linearGradient5594"
       id="radialGradient5628"
       gradientUnits="userSpaceOnUse"
       gradientTransform="matrix(-0.31386615,-1.1984042,-1.1284587,0.29554718,101.10879,952.68222)"
       cx="12.556233"
       cy="74.51532"
       fx="12.556233"
       fy="74.51532"
       r="2.9910717" />
    <radialGradient
       inkscape:collect="always"
       xlink:href="#linearGradient5594"
       id="radialGradient5632"
       gradientUnits="userSpaceOnUse"
       gradientTransform="matrix(-0.11469836,-1.2361801,-1.6505278,0.07616945,187.84683,940.39908)"
       cx="12.556233"
       cy="74.51532"
       fx="12.556233"
       fy="74.51532"
       r="2.9910717" />
    <radialGradient
       inkscape:collect="always"
       xlink:href="#linearGradient5594"
       id="radialGradient5636"
       gradientUnits="userSpaceOnUse"
       gradientTransform="matrix(-1.2572537,-1.0798791,1.3013619,-1.5151161,-41.736766,1107.7018)"
       cx="24.824791"
       cy="72.447128"
       fx="24.824791"
       fy="72.447128"
       r="3.0962055" />
    <radialGradient
       inkscape:collect="always"
       xlink:href="#linearGradient5594"
       id="radialGradient5640"
       gradientUnits="userSpaceOnUse"
       gradientTransform="matrix(-0.77800122,-0.96405326,-0.90778578,0.73259276,126.99148,937.37671)"
       cx="12.556233"
       cy="74.51532"
       fx="12.556233"
       fy="74.51532"
       r="2.9910717" />
    <radialGradient
       inkscape:collect="always"
       xlink:href="#linearGradient5594"
       id="radialGradient5644"
       gradientUnits="userSpaceOnUse"
       gradientTransform="matrix(-0.02119332,1.9281065,-1.4828909,-1.4651855,159.54093,1073.6976)"
       cx="12.556233"
       cy="74.51532"
       fx="12.556233"
       fy="74.51532"
       r="2.9910717" />
    <radialGradient
       inkscape:collect="always"
       xlink:href="#linearGradient5594"
       id="radialGradient5648"
       gradientUnits="userSpaceOnUse"
       gradientTransform="matrix(-1.6187919,0.35544118,0.42834197,1.9508057,41.257715,851.96995)"
       cx="24.824791"
       cy="72.447128"
       fx="24.824791"
       fy="72.447128"
       r="3.0962055" />
    <radialGradient
       inkscape:collect="always"
       xlink:href="#linearGradient5594"
       id="radialGradient5652"
       gradientUnits="userSpaceOnUse"
       gradientTransform="matrix(1.1297158,-0.22958821,-0.28461908,-1.4005014,6.1275709,1137.5997)"
       cx="35.454441"
       cy="82.993614"
       fx="35.454441"
       fy="82.993614"
       r="5.0095663" />
    <radialGradient
       inkscape:collect="always"
       xlink:href="#linearGradient5594"
       id="radialGradient5656"
       gradientUnits="userSpaceOnUse"
       gradientTransform="matrix(-0.75918911,0.9789364,0.92180025,0.71487864,0.31060926,877.94819)"
       cx="12.556233"
       cy="74.51532"
       fx="12.556233"
       fy="74.51532"
       r="2.9910717" />
    <radialGradient
       inkscape:collect="always"
       xlink:href="#linearGradient5594"
       id="radialGradient5660"
       gradientUnits="userSpaceOnUse"
       gradientTransform="matrix(-1.3297824,1.3324204,1.6146092,0.9730141,-40.011094,830.83084)"
       cx="12.556233"
       cy="74.51532"
       fx="12.556233"
       fy="74.51532"
       r="2.9910717" />
    <radialGradient
       inkscape:collect="always"
       xlink:href="#linearGradient5594"
       id="radialGradient5664"
       gradientUnits="userSpaceOnUse"
       gradientTransform="matrix(0.31386615,-1.1984042,1.1284587,0.29554718,-24.323077,966.25365)"
       cx="12.556233"
       cy="74.51532"
       fx="12.556233"
       fy="74.51532"
       r="2.9910717" />
    <radialGradient
       inkscape:collect="always"
       xlink:href="#linearGradient5594"
       id="radialGradient5668"
       gradientUnits="userSpaceOnUse"
       gradientTransform="matrix(1.000523,1.6483318,-2.0330892,-0.46074088,264.86701,1013.6251)"
       cx="12.556233"
       cy="74.51532"
       fx="12.556233"
       fy="74.51532"
       r="2.9910717" />
    <radialGradient
       inkscape:collect="always"
       xlink:href="#linearGradient5594"
       id="radialGradient5672"
       gradientUnits="userSpaceOnUse"
       gradientTransform="matrix(1.1321797,0.21711215,-0.2691526,1.4035559,90.331101,870.36027)"
       cx="35.454441"
       cy="82.993614"
       fx="35.454441"
       fy="82.993614"
       r="5.0095663" />
    <radialGradient
       inkscape:collect="always"
       xlink:href="#linearGradient5594"
       id="radialGradient5676"
       gradientUnits="userSpaceOnUse"
       gradientTransform="matrix(-1.2749719,1.0589014,-1.2760819,-1.5364682,244.16754,1055.2282)"
       cx="24.824791"
       cy="72.447128"
       fx="24.824791"
       fy="72.447128"
       r="3.0962055" />
    <radialGradient
       inkscape:collect="always"
       xlink:href="#linearGradient5594"
       id="radialGradient5680"
       gradientUnits="userSpaceOnUse"
       gradientTransform="matrix(0.0919322,-2.1920811,2.3645602,0.12377109,-82.85531,967.0228)"
       cx="24.824791"
       cy="72.447128"
       fx="24.824791"
       fy="72.447128"
       r="3.0962055" />
    <radialGradient
       inkscape:collect="always"
       xlink:href="#linearGradient5594"
       id="radialGradient5684"
       gradientUnits="userSpaceOnUse"
       gradientTransform="matrix(1.2440747,-1.2499424,1.3429747,1.0266758,-81.281718,837.82814)"
       cx="12.556233"
       cy="74.51532"
       fx="12.556233"
       fy="74.51532"
       r="2.9910717" />
    <radialGradient
       inkscape:collect="always"
       xlink:href="#linearGradient5594"
       id="radialGradient5688"
       gradientUnits="userSpaceOnUse"
       gradientTransform="matrix(1.0034422,-0.72649049,-0.68408848,-0.94487572,86.912647,965.78673)"
       cx="12.556233"
       cy="74.51532"
       fx="12.556233"
       fy="74.51532"
       r="2.9910717" />
    <radialGradient
       inkscape:collect="always"
       xlink:href="#linearGradient5594"
       id="radialGradient5692"
       gradientUnits="userSpaceOnUse"
       gradientTransform="matrix(-0.03877522,-1.6569014,-1.9967314,0.04672791,255.75172,927.55875)"
       cx="24.824791"
       cy="72.447128"
       fx="24.824791"
       fy="72.447128"
       r="3.0962055" />
    <radialGradient
       inkscape:collect="always"
       xlink:href="#linearGradient5594"
       id="radialGradient5696"
       gradientUnits="userSpaceOnUse"
       gradientTransform="matrix(0.92118216,-0.83229825,-1.0496335,-1.2760538,190.88921,1022.0433)"
       cx="12.556233"
       cy="74.51532"
       fx="12.556233"
       fy="74.51532"
       r="2.9910717" />
    <radialGradient
       inkscape:collect="always"
       xlink:href="#linearGradient5594"
       id="radialGradient5700"
       gradientUnits="userSpaceOnUse"
       gradientTransform="matrix(-0.56428304,-1.1058398,-1.5050017,0.68191909,284.01826,885.31753)"
       cx="12.556233"
       cy="74.51532"
       fx="12.556233"
       fy="74.51532"
       r="2.9910717" />
    <radialGradient
       inkscape:collect="always"
       xlink:href="#linearGradient5594"
       id="radialGradient5704"
       gradientUnits="userSpaceOnUse"
       gradientTransform="matrix(-0.30831188,-1.6284254,1.962415,-0.3715467,29.888861,1008.3816)"
       cx="24.824791"
       cy="72.447128"
       fx="24.824791"
       fy="72.447128"
       r="3.0962055" />
    <radialGradient
       inkscape:collect="always"
       xlink:href="#linearGradient5594"
       id="radialGradient5708"
       gradientUnits="userSpaceOnUse"
       gradientTransform="matrix(0.06045959,-1.2400168,-1.6448149,-0.15693217,280.67181,996.11061)"
       cx="12.556233"
       cy="74.51532"
       fx="12.556233"
       fy="74.51532"
       r="2.9910717" />
    <radialGradient
       inkscape:collect="always"
       xlink:href="#linearGradient5594"
       id="radialGradient5712"
       gradientUnits="userSpaceOnUse"
       gradientTransform="matrix(1.1076734,0.55474692,0.52236882,-1.0430235,96.559654,1066.1637)"
       cx="12.556233"
       cy="74.51532"
       fx="12.556233"
       fy="74.51532"
       r="2.9910717" />
    <radialGradient
       inkscape:collect="always"
       xlink:href="#linearGradient5594"
       id="radialGradient5716"
       gradientUnits="userSpaceOnUse"
       gradientTransform="matrix(1.1076734,-0.55474692,0.52236882,1.0430235,99.595368,909.32257)"
       cx="12.556233"
       cy="74.51532"
       fx="12.556233"
       fy="74.51532"
       r="2.9910717" />
    <radialGradient
       inkscape:collect="always"
       xlink:href="#linearGradient5594"
       id="radialGradient5720"
       gradientUnits="userSpaceOnUse"
       gradientTransform="matrix(-0.31386615,-1.1984042,-1.1284587,0.29554718,257.18022,978.39651)"
       cx="12.556233"
       cy="74.51532"
       fx="12.556233"
       fy="74.51532"
       r="2.9910717" />
    <radialGradient
       inkscape:collect="always"
       xlink:href="#linearGradient5594"
       id="radialGradient5724"
       gradientUnits="userSpaceOnUse"
       gradientTransform="matrix(0.31386615,-1.1984042,1.1284587,0.29554718,23.891209,917.68222)"
       cx="12.556233"
       cy="74.51532"
       fx="12.556233"
       fy="74.51532"
       r="2.9910717" />
    <radialGradient
       inkscape:collect="always"
       xlink:href="#linearGradient5594"
       id="radialGradient5728"
       gradientUnits="userSpaceOnUse"
       gradientTransform="matrix(-0.31386615,-1.1984042,-1.1284587,0.29554718,239.85879,923.93222)"
       cx="12.556233"
       cy="74.51532"
       fx="12.556233"
       fy="74.51532"
       r="2.9910717" />
    <radialGradient
       inkscape:collect="always"
       xlink:href="#linearGradient5594"
       id="radialGradient5732"
       gradientUnits="userSpaceOnUse"
       gradientTransform="matrix(1.0615902,-0.63852247,-0.60125476,-0.99962988,173.43524,1022.4003)"
       cx="12.556233"
       cy="74.51532"
       fx="12.556233"
       fy="74.51532"
       r="2.9910717" />
    <radialGradient
       inkscape:collect="always"
       xlink:href="#linearGradient5594"
       id="radialGradient5736"
       gradientUnits="userSpaceOnUse"
       gradientTransform="matrix(1.0615902,-0.63852247,-0.60125476,-0.99962988,161.47095,1100.6146)"
       cx="12.556233"
       cy="74.51532"
       fx="12.556233"
       fy="74.51532"
       r="2.9910717" />
    <radialGradient
       inkscape:collect="always"
       xlink:href="#linearGradient5594"
       id="radialGradient5740"
       gradientUnits="userSpaceOnUse"
       gradientTransform="matrix(0.42321487,0.55256886,1.1435368,-0.31428663,-54.166274,1017.1266)"
       cx="35.454441"
       cy="82.993614"
       fx="35.454441"
       fy="82.993614"
       r="5.0095663" />
    <radialGradient
       inkscape:collect="always"
       xlink:href="#linearGradient5469"
       id="radialGradient5742"
       gradientUnits="userSpaceOnUse"
       gradientTransform="matrix(0.72863376,0.42819254,-0.53000738,0.90188695,38.468282,-10.285634)"
       cx="37.041061"
       cy="53.71804"
       fx="37.041061"
       fy="53.71804"
       r="8.9299219" />
    <radialGradient
       inkscape:collect="always"
       xlink:href="#linearGradient5594"
       id="radialGradient5746"
       gradientUnits="userSpaceOnUse"
       gradientTransform="matrix(0.56734371,0.19230479,0.71573248,-0.64878597,12.968144,980.86254)"
       cx="35.454441"
       cy="82.993614"
       fx="35.454441"
       fy="82.993614"
       r="5.0095663" />
    <radialGradient
       inkscape:collect="always"
       xlink:href="#linearGradient5594"
       id="radialGradient5750"
       gradientUnits="userSpaceOnUse"
       gradientTransform="matrix(0.56734371,0.19230479,0.71573248,-0.64878597,-48.81757,958.36254)"
       cx="35.454441"
       cy="82.993614"
       fx="35.454441"
       fy="82.993614"
       r="5.0095663" />
    <radialGradient
       inkscape:collect="always"
       xlink:href="#linearGradient5594"
       id="radialGradient5754"
       gradientUnits="userSpaceOnUse"
       gradientTransform="matrix(-1.2051435,0.28690381,0.27015851,1.1348046,42.304978,824.00413)"
       cx="12.556233"
       cy="74.51532"
       fx="12.556233"
       fy="74.51532"
       r="2.9910717" />
    <radialGradient
       inkscape:collect="always"
       xlink:href="#linearGradient5594"
       id="radialGradient5758"
       gradientUnits="userSpaceOnUse"
       gradientTransform="matrix(0.74762383,-0.98779714,0.93014384,0.70398837,57.217248,856.51844)"
       cx="12.556233"
       cy="74.51532"
       fx="12.556233"
       fy="74.51532"
       r="2.9910717" />
    <radialGradient
       inkscape:collect="always"
       xlink:href="#linearGradient5594"
       id="radialGradient5762"
       gradientUnits="userSpaceOnUse"
       gradientTransform="matrix(0.56734371,-0.19230479,0.71573248,0.64878597,1.3610011,831.94986)"
       cx="35.454441"
       cy="82.993614"
       fx="35.454441"
       fy="82.993614"
       r="5.0095663" />
    <radialGradient
       inkscape:collect="always"
       xlink:href="#linearGradient5594"
       id="radialGradient5766"
       gradientUnits="userSpaceOnUse"
       gradientTransform="matrix(0.493572,-1.1362531,-1.0699352,-0.4647644,172.54686,1094.2911)"
       cx="12.556233"
       cy="74.51532"
       fx="12.556233"
       fy="74.51532"
       r="2.9910717" />
    <radialGradient
       inkscape:collect="always"
       xlink:href="#linearGradient5594"
       id="radialGradient5770"
       gradientUnits="userSpaceOnUse"
       gradientTransform="matrix(-1.000523,1.6483318,2.0330892,-0.46074088,-69.411329,1051.3036)"
       cx="12.556233"
       cy="74.51532"
       fx="12.556233"
       fy="74.51532"
       r="2.9910717" />
    <radialGradient
       inkscape:collect="always"
       xlink:href="#linearGradient5594"
       id="radialGradient5774"
       gradientUnits="userSpaceOnUse"
       gradientTransform="matrix(1.0889067,-0.59073411,0.5562556,1.0253521,30.061371,963.44141)"
       cx="12.556233"
       cy="74.51532"
       fx="12.556233"
       fy="74.51532"
       r="2.9910717" />
  </defs>
  <sodipodi:namedview
     id="base"
     pagecolor="#ffffff"
     bordercolor="#666666"
     borderopacity="1.0"
     inkscape:pageopacity="0.0"
     inkscape:pageshadow="2"
     inkscape:zoom="3.959798"
     inkscape:cx="47.698177"
     inkscape:cy="84.704671"
     inkscape:document-units="px"
     inkscape:current-layer="layer1"
     showgrid="false"
     borderlayer="true"
     units="in"
     inkscape:window-width="1920"
     inkscape:window-height="1058"
     inkscape:window-x="1592"
     inkscape:window-y="-8"
     inkscape:window-maximized="1" />
  <metadata
     id="metadata4899">
    <rdf:RDF>
      <cc:Work
         rdf:about="">
        <dc:format>image/svg+xml</dc:format>
        <dc:type
           rdf:resource="http://purl.org/dc/dcmitype/StillImage" />
        <dc:title></dc:title>
      </cc:Work>
    </rdf:RDF>
  </metadata>
  <g
     inkscape:label="Layer 1"
     inkscape:groupmode="layer"
     id="layer1"
     transform="translate(0,-872.35975)">
    <path
       sodipodi:type="arc"
       style="fill:url(#radialGradient5418);fill-opacity:1;stroke:none"
       id="path4902"
       sodipodi:cx="88.388351"
       sodipodi:cy="88.328659"
       sodipodi:rx="85.862968"
       sodipodi:ry="85.862968"
       d="m 174.25132,88.328659 a 85.862968,85.862968 0 1 1 -171.725937,0 85.862968,85.862968 0 1 1 171.725937,0 z"
       transform="matrix(1.0235294,0,0,1.0235294,-0.05942077,872.30173)" />
    <path
       inkscape:connector-curvature="0"
       id="path5634"
       d="m 20.433051,968.41562 c -0.314046,-0.17008 -2.280006,0.0852 -3.19585,1.21385 -0.915843,1.12862 -2.132312,6.56213 -2.132312,6.56213 0,0 2.181541,-4.40316 3.57181,-4.15793 1.390269,0.24523 4.02031,0.45112 4.02031,0.45112 0,0 -0.03953,-3.6768 -2.263958,-4.06917 z"
       style="fill:url(#radialGradient5636);fill-opacity:1;stroke:none" />
    <path
       style="fill:#34551b;fill-opacity:1;stroke:none"
       d="m 82.57997,94.137034 c -13.889597,-1.262691 -24.24366,3.282995 -21.465741,15.404826 2.77792,12.12183 24.748737,11.86929 26.516504,22.98097 1.767767,11.11168 -6.313453,20.96067 12.626907,21.46574 18.94036,0.50508 35.86042,-12.87944 41.41625,-8.83883 5.55584,4.04061 10.35407,3.53553 16.16245,-0.25254 5.80837,-3.78807 13.38452,-15.9099 13.38452,-15.9099 0,0 -15.15229,17.9302 -20.96067,17.42513 -5.80838,-0.50508 -8.08122,-6.06092 -11.61675,-5.3033 -3.53554,0.75761 -32.07235,13.63706 -40.658643,10.6066 -8.586297,-3.03046 -9.091373,-9.09137 -8.333759,-17.67767 0.757615,-8.5863 -3.282995,-10.85914 -13.889597,-15.9099 -10.606602,-5.05077 -14.89975,-14.14214 -8.838835,-19.192902 6.060915,-5.050763 15.657364,-4.798224 15.657364,-4.798224 z"
       id="path5424"
       inkscape:connector-curvature="0"
       transform="translate(0,872.35975)"
       sodipodi:nodetypes="cssssscssssssc" />
    <path
       style="fill:#34551b;fill-opacity:1;stroke:none"
       d="m 95.711953,97.925106 c 1.010153,6.060914 -1.010152,11.111674 8.838837,11.111674 9.84899,0 8.08122,-10.606598 21.46574,-11.869289 13.38452,-1.26269 30.30458,7.071069 35.1028,-1.767767 4.79823,-8.838835 8.33376,-38.385797 4.04061,-48.487322 -4.29315,-10.101525 -22.22335,-12.374369 -25.50635,-20.203051 -3.283,-7.828682 13.63706,3.535534 13.63706,3.535534 0,0 -5.80838,-7.576144 -11.36422,-8.333759 -5.55584,-0.757614 -9.59645,1.010153 -6.31345,6.565992 3.283,5.555839 21.71828,11.616754 26.76904,20.455589 5.05076,8.838835 -0.25254,44.69925 -5.3033,47.224632 -5.05076,2.525381 -25.75889,-7.323606 -33.84011,-5.050763 -8.08122,2.272843 -13.38452,15.909904 -19.69797,14.647214 -6.313457,-1.26269 -7.828687,-7.828684 -7.828687,-7.828684 z"
       id="path5426"
       inkscape:connector-curvature="0"
       transform="translate(0,872.35975)"
       sodipodi:nodetypes="cssssscssssssc" />
    <path
       style="fill:#34551b;fill-opacity:1;stroke:none"
       d="M 88.640886,81.005051 C 97.227182,80.499974 116.92516,80.752512 111.11678,74.439059 105.3084,68.125605 94.196725,64.337533 93.439111,54.488546 92.681496,44.639559 105.3084,32.770266 96.722106,22.668741 88.13581,12.567215 65.407377,17.112902 59.599,28.22458 53.790623,39.336258 36.112954,42.871792 35.860415,36.810877 35.607877,30.749961 41.668793,19.133207 48.73986,14.840059 c 7.071068,-4.293149 21.213204,-4.798225 21.213204,-4.798225 0,0 -10.354064,-1.7677669 -19.192899,0.757614 -8.838834,2.525382 -16.920055,11.616755 -18.435284,17.930208 -1.515228,6.313454 -3.282995,12.626907 2.525382,15.152288 5.808377,2.525382 17.930208,-1.767767 21.213203,-6.313453 3.282996,-4.545687 12.626907,-18.435284 20.708128,-18.435284 8.08122,0 19.192898,1.767767 19.950512,9.343911 0.757615,7.576144 -10.354063,20.708127 -8.333758,27.526657 2.020305,6.81853 6.818529,10.85914 12.374362,13.637059 5.55584,2.77792 4.54569,5.050763 1.51524,7.323606 -3.030461,2.272843 -13.637064,4.040611 -13.637064,4.040611 z"
       id="path5428"
       inkscape:connector-curvature="0"
       transform="translate(0,872.35975)"
       sodipodi:nodetypes="csssssscsssssssssc" />
    <path
       style="fill:#34551b;fill-opacity:1;stroke:none"
       d="M 79.549513,84.793123 C 78.53936,84.035508 83.085047,73.933983 66.922606,70.650987 50.760165,67.367991 62.124382,79.74236 46.972093,86.813428 31.819805,93.884495 29.546962,87.571042 21.71828,93.884495 c -7.828682,6.313455 13.131983,12.374365 12.374368,28.536805 -0.757614,16.16245 -15.657364,17.93021 -18.182745,12.12184 -2.525382,-5.80838 4.545686,-8.83884 4.545686,-5.55584 0,3.28299 -0.757614,4.79822 -0.757614,4.79822 0,0 4.798224,-3.28299 2.525381,-5.80838 -2.272843,-2.52538 -6.060915,-5.05076 -7.828682,-2.52538 -1.767767,2.52538 -4.293149,8.08122 -0.252538,13.38452 4.04061,5.3033 11.616754,5.80838 17.425131,0.25254 5.808377,-5.55584 9.848987,-15.65736 5.555839,-22.98097 -4.293148,-7.3236 -16.414979,-14.64721 -13.384521,-18.687821 3.030457,-4.04061 25.506352,-1.515228 29.546962,-7.828682 4.04061,-6.313453 2.777919,-17.172593 9.848987,-16.920055 7.071068,0.252538 10.606602,0.757614 13.131983,5.050763 2.525382,4.293148 3.282996,7.071068 3.282996,7.071068 z"
       id="path5430"
       inkscape:connector-curvature="0"
       transform="translate(0,872.35975)" />
    <path
       style="fill:#34551b;fill-opacity:1;stroke:none"
       d="m 120.46069,94.894648 c 15.9099,2.525381 18.43529,5.808382 19.95051,13.384522 1.51523,7.57614 5.80838,18.94036 15.65737,17.42513 9.84899,-1.51523 15.9099,-7.82868 13.13198,-15.15229 -2.77792,-7.3236 -10.10152,-11.364214 -15.15229,-6.31345 -5.05076,5.05076 -6.06091,14.14213 0,15.9099 6.06092,1.76777 10.35407,-1.26269 10.60661,-4.04061 0.25253,-2.77792 -5.55584,-7.3236 -5.55584,-7.3236 0,0 5.3033,5.55583 4.04061,7.57614 -1.26269,2.0203 -8.08122,4.54569 -9.84899,0.25254 -1.76777,-4.29315 1.76777,-13.38452 6.56599,-11.86929 4.79823,1.51522 9.59645,6.31345 7.32361,11.61675 -2.27285,5.3033 -8.33376,7.57614 -12.12183,7.57614 -3.78808,0 -7.82869,-2.77792 -8.83884,-8.83883 -1.01015,-6.06092 -4.04061,-16.41498 -7.57614,-17.930209 -3.53554,-1.515229 -18.18275,-2.272843 -18.18275,-2.272843 z"
       id="path5432"
       inkscape:connector-curvature="0"
       transform="translate(0,872.35975)" />
    <path
       style="fill:#34551b;fill-opacity:1;stroke:none"
       d="m 90.913729,54.993622 c 4.293148,-15.152288 10.859141,-13.384521 14.142131,-20.708127 3.283,-7.323606 2.77792,-18.182746 -3.03045,-21.213203 C 96.21703,10.041834 79.549513,15.092597 78.034284,12.062139 76.519055,9.0316815 84.852814,1.2029993 91.923882,2.46569 98.99495,3.7283807 100.76272,7.2639146 94.954339,8.021529 89.145962,8.7791434 82.832509,7.7689908 83.842661,7.7689908 c 1.010153,0 8.586297,-0.2525381 10.101526,-1.2626906 1.515229,-1.0101526 -1.262691,-3.7880721 -5.303301,-3.0304577 -4.04061,0.7576144 -11.364216,6.8185295 -7.828682,7.5761445 3.535534,0.757614 20.203046,-2.5253818 23.991126,-0.252539 3.78807,2.272844 9.59645,6.313454 8.08122,15.909903 -1.51523,9.596449 -7.32361,12.879445 -12.37437,16.920055 -5.050764,4.04061 -7.323608,6.313454 -7.576146,11.364216 -0.252538,5.050763 -2.020305,0 -2.020305,0 z"
       id="path5434"
       inkscape:connector-curvature="0"
       transform="translate(0,872.35975)" />
    <path
       style="fill:#34551b;fill-opacity:1;stroke:none"
       d="M 55.810928,79.994898 C 49.497475,86.055813 32.072343,82.520279 31.819805,76.206826 31.567267,69.893372 19.445437,59.791847 13.889598,68.125605 8.3337585,76.459364 13.637059,92.369267 7.5761441,95.147186 1.5152288,97.925106 4.0406102,84.288046 4.0406102,84.288046 c 0,0 -2.0203051,0.757615 -1.5152288,9.091373 0.5050762,8.333761 4.5456864,6.565992 6.5659915,4.293148 2.0203051,-2.272843 4.5456861,-4.798224 5.3033011,-10.354063 0.757614,-5.555839 -1.767767,-18.687822 5.050763,-18.182746 6.818529,0.505076 8.586296,10.101525 13.384521,13.637059 4.798224,3.535534 20.960665,1.515229 20.960665,1.515229 z"
       id="path5436"
       inkscape:connector-curvature="0"
       transform="translate(0,872.35975)" />
    <path
       style="fill:#34551b;fill-opacity:1;stroke:none"
       d="m 62.37692,110.55201 c 4.798224,7.57615 12.374368,12.37437 9.091373,18.68782 -3.282996,6.31346 -17.425132,3.283 -16.920055,12.37437 0.505076,9.09138 18.182745,14.39468 15.909902,19.1929 -2.272843,4.79823 -9.596449,10.85914 1.767767,13.63706 11.364216,2.77792 24.748737,3.78807 28.031733,-1.76777 3.283,-5.55583 -5.555839,-15.40482 -13.384521,-14.39467 -7.828682,1.01015 -9.848987,8.83884 -1.767767,11.11168 8.08122,2.27284 9.343911,-1.01015 9.343911,-1.01015 0,0 -6.313453,2.0203 -9.848987,-1.01016 -3.535534,-3.03045 -0.757615,-8.08122 4.798224,-6.56599 5.555839,1.51523 10.101526,6.31346 9.091373,10.10153 -1.010152,3.78807 -9.343911,3.78807 -16.16244,3.03045 -6.81853,-0.75761 -13.384522,-0.75761 -12.879445,-4.54568 0.505076,-3.78807 6.565991,-6.31346 4.04061,-11.11168 -2.525382,-4.79822 -21.465742,-12.12183 -15.404827,-17.42513 6.060916,-5.3033 16.414979,-5.3033 18.182746,-11.11168 1.767767,-5.80838 -6.818529,-13.8896 -6.818529,-13.8896 z"
       id="path5438"
       inkscape:connector-curvature="0"
       transform="translate(0,872.35975)" />
    <path
       style="fill:#34551b;fill-opacity:1;stroke:none"
       d="m 108.08632,74.691597 c 11.86929,-1.767767 16.66752,-7.323606 11.61676,-11.616754 -5.05077,-4.293149 -13.13199,-10.85914 -7.07107,-17.172594 6.06091,-6.313453 13.63706,-7.576144 23.48605,-3.788072 9.84898,3.788072 22.22335,15.152289 13.63706,22.223356 -8.5863,7.071068 -13.63706,7.071068 -16.41498,2.020306 -2.77792,-5.050763 2.0203,-13.384522 5.55584,-13.384522 3.53553,0 6.31345,1.767767 6.31345,1.767767 0,0 -6.31345,-2.272843 -7.57615,0 -1.26269,2.272843 -7.07106,10.85914 -1.26269,12.121831 5.80838,1.26269 11.61676,-3.788072 11.61676,-8.081221 0,-4.293148 -3.283,-9.848987 -12.62691,-13.384521 -9.34391,-3.535534 -22.22335,-0.252538 -20.45559,6.060915 1.76777,6.313454 11.61676,9.343912 10.10153,16.162441 -1.51523,6.81853 -10.85914,10.354064 -14.89975,10.85914 -4.04061,0.505076 -2.02031,-3.788072 -2.02031,-3.788072 z"
       id="path5440"
       inkscape:connector-curvature="0"
       transform="translate(0,872.35975)" />
    <path
       style="fill:#34551b;fill-opacity:1;stroke:none"
       d="M 77.024132,76.459364 C 75.508903,63.579919 62.629458,64.084995 64.397225,56.003775 c 1.767767,-8.08122 4.04061,-14.647212 8.08122,-11.364216 4.04061,3.282996 -2.272843,11.111678 -2.272843,11.111678 0,0 6.565992,-3.535534 5.303301,-9.091373 -1.262691,-5.555839 -4.545687,-8.586297 -8.333759,-6.060915 -3.788072,2.525381 -11.869292,10.354063 -8.08122,18.182745 3.788072,7.828683 5.808377,5.303301 11.111678,9.59645 5.303301,4.293148 7.576144,11.111678 7.576144,11.111678 z"
       id="path5442"
       inkscape:connector-curvature="0"
       transform="translate(0,872.35975)" />
    <path
       style="fill:#34551b;fill-opacity:1;stroke:none"
       d="m 115.15739,149.69542 c 12.87945,-6.81853 11.61675,-25.00127 -2.77792,-25.00127 -14.394673,0 -10.10152,12.87944 -4.04061,12.87944 6.06092,0 8.08122,-4.04061 6.06092,-5.05076 -2.02031,-1.01015 -7.32361,-0.50508 -7.32361,-0.50508 0,0 4.79822,-2.77792 7.57614,-1.76776 2.77792,1.01015 5.80838,5.05076 0.75762,8.08122 -5.05076,3.03046 -11.11168,3.03046 -14.64721,-2.77792 -3.535537,-5.80838 -3.282999,-12.37437 5.55584,-14.64721 8.83883,-2.27285 18.18274,-0.75762 21.71828,5.80837 3.53553,6.56599 -1.76777,15.65737 -5.05077,18.94036 -3.28299,3.283 -11.36421,6.06092 -11.36421,6.06092 z"
       id="path5444"
       inkscape:connector-curvature="0"
       transform="translate(0,872.35975)" />
    <path
       style="fill:#34551b;fill-opacity:1;stroke:none"
       d="m 34.597725,113.32993 c 5.808377,7.07107 12.374368,7.32361 13.131983,2.77792 0.757614,-4.54569 -0.757615,-11.86929 -4.798225,-11.86929 -4.04061,0 -3.282996,7.3236 -1.010152,7.82868 2.272843,0.50508 1.010152,-4.54569 1.010152,-4.54569 0,0 2.525382,3.53554 2.020305,5.30331 -0.505076,1.76776 -5.303301,2.27284 -6.565991,-0.25254 -1.262691,-2.52538 -1.515229,-8.5863 2.272843,-10.10153 3.788072,-1.51523 7.828682,-0.25254 9.848987,5.3033 2.020305,5.55584 2.020305,12.37437 -2.020305,13.8896 -4.04061,1.51523 -12.626907,-3.78807 -12.626907,-3.78807 z"
       id="path5446"
       inkscape:connector-curvature="0"
       transform="translate(0,872.35975)" />
    <g
       id="g5478"
       transform="translate(-7.0710678,-1.0101525)">
      <path
         transform="translate(0,872.35975)"
         inkscape:connector-curvature="0"
         id="path5448"
         d="M 31.567267,65.347686 C 30.557115,64.84261 29.732143,53.75 30.357143,50.803571 c 0.625,-2.946428 4.107143,-5 6.071429,-4.107143 1.964285,0.892857 2.232142,3.482143 2.232142,3.482143 0,0 2.5,-1.071428 5.446429,-1.160714 2.946429,-0.08929 5.267857,3.214286 2.946429,5.535714 -2.321429,2.321429 -11.696429,6.964286 -13.482143,8.482143 -1.785715,1.517857 -2.004162,2.311972 -2.004162,2.311972 z"
         style="fill:url(#radialGradient5482);fill-opacity:1;stroke:none" />
      <path
         id="path5450"
         transform="translate(0,872.35975)"
         d="m 40.625,46.21875 c 0,0 -1.294643,1.138393 -1.5625,2.03125 -0.217656,0.725521 -0.383761,1.435343 -0.46875,1.78125 -0.453421,0.304248 -1.088708,0.800224 -1.71875,1.53125 -0.120764,-0.453305 -0.422277,-1.143003 -1.25,-1.75 -1.339286,-0.982143 -2.9375,-1.15625 -2.9375,-1.15625 0,0 1.785714,0.816964 2.5,1.53125 0.549865,0.549865 0.849068,1.660601 1,2.25 -0.01302,0.02007 -0.01832,0.04219 -0.03125,0.0625 -0.396598,0.623225 -0.844479,1.331564 -1.28125,2.0625 -0.117873,-0.293826 -0.354044,-0.92542 -0.84375,-1.625 -0.625,-0.892857 -2.25,-1.34375 -2.25,-1.34375 0,0 1.526786,1.160714 2.0625,1.875 0.402741,0.536987 0.581334,1.316096 0.65625,1.75 -0.586789,1.028852 -1.132474,2.103824 -1.53125,3.21875 -0.05632,-0.155046 -0.19863,-0.54238 -0.5625,-0.90625 -0.446428,-0.446428 -1.28125,-0.75 -1.28125,-0.75 0,0 0.933036,0.669643 1.15625,1.25 0.169766,0.441391 0.28455,1.128426 0.34375,1.5 -0.01051,0.04132 -0.02128,0.08369 -0.03125,0.125 -0.625,2.589286 -0.8125,3.75 -0.8125,3.75 0,0 0.649367,-2.243216 1.375,-4.28125 0.347179,-0.306095 0.824519,-0.723043 1.25,-0.875 0.625,-0.223211 2.0625,-0.15625 2.0625,-0.15625 0,0 -1.339285,-0.424107 -2.1875,-0.15625 -0.391483,0.123626 -0.658554,0.299243 -0.84375,0.4375 0.295151,-0.780189 0.585363,-1.491195 0.84375,-1.9375 0.116568,-0.201344 0.287642,-0.435706 0.5,-0.71875 0.344249,-0.132644 0.810119,-0.26369 1.375,-0.4375 1.160715,-0.357143 4.65625,-0.375 4.65625,-0.375 0,0 -1.339286,-0.4375 -2.5,-0.4375 -0.842527,0 -2.047341,0.183539 -2.78125,0.3125 0.527062,-0.636118 1.168892,-1.350789 1.78125,-2.03125 0.513393,-0.167411 1.263393,-0.397322 2.15625,-0.53125 1.785714,-0.267863 5.25,0.09375 5.25,0.09375 0,0 -1.941965,-0.87054 -3.90625,-0.78125 -1.30117,0.05914 -2.122782,0.205251 -2.71875,0.34375 0.901754,-0.976778 1.885101,-2.034617 2.0625,-2.21875 -0.348163,0.101096 -0.603623,0.194103 -0.84375,0.28125 C 39.588728,49.426897 40.098214,48.535714 40.5,48 c 0.535714,-0.714286 1.09375,-0.90625 1.09375,-0.90625 0,0 0.290178,-0.388393 0.15625,-0.65625 -0.133929,-0.267854 -1.125,-0.21875 -1.125,-0.21875 z"
         style="fill:#232a16;fill-opacity:1;stroke:none"
         inkscape:connector-curvature="0" />
    </g>
    <g
       transform="matrix(0.40612013,-0.52082221,0,0.68209745,29.011343,406.63903)"
       id="g5484">
      <path
         style="fill:url(#radialGradient5490);fill-opacity:1;stroke:none"
         d="M 31.567267,65.347686 C 30.557115,64.84261 29.732143,53.75 30.357143,50.803571 c 0.625,-2.946428 4.107143,-5 6.071429,-4.107143 1.964285,0.892857 2.232142,3.482143 2.232142,3.482143 0,0 2.5,-1.071428 5.446429,-1.160714 2.946429,-0.08929 5.267857,3.214286 2.946429,5.535714 -2.321429,2.321429 -11.696429,6.964286 -13.482143,8.482143 -1.785715,1.517857 -2.004162,2.311972 -2.004162,2.311972 z"
         id="path5486"
         inkscape:connector-curvature="0"
         transform="translate(0,872.35975)" />
      <path
         inkscape:connector-curvature="0"
         style="fill:#232a16;fill-opacity:1;stroke:none"
         d="m 40.625,46.21875 c 0,0 -1.294643,1.138393 -1.5625,2.03125 -0.217656,0.725521 -0.383761,1.435343 -0.46875,1.78125 -0.453421,0.304248 -1.088708,0.800224 -1.71875,1.53125 -0.120764,-0.453305 -0.422277,-1.143003 -1.25,-1.75 -1.339286,-0.982143 -2.9375,-1.15625 -2.9375,-1.15625 0,0 1.785714,0.816964 2.5,1.53125 0.549865,0.549865 0.849068,1.660601 1,2.25 -0.01302,0.02007 -0.01832,0.04219 -0.03125,0.0625 -0.396598,0.623225 -0.844479,1.331564 -1.28125,2.0625 -0.117873,-0.293826 -0.354044,-0.92542 -0.84375,-1.625 -0.625,-0.892857 -2.25,-1.34375 -2.25,-1.34375 0,0 1.526786,1.160714 2.0625,1.875 0.402741,0.536987 0.581334,1.316096 0.65625,1.75 -0.586789,1.028852 -1.132474,2.103824 -1.53125,3.21875 -0.05632,-0.155046 -0.19863,-0.54238 -0.5625,-0.90625 -0.446428,-0.446428 -1.28125,-0.75 -1.28125,-0.75 0,0 0.933036,0.669643 1.15625,1.25 0.169766,0.441391 0.28455,1.128426 0.34375,1.5 -0.01051,0.04132 -0.02128,0.08369 -0.03125,0.125 -0.625,2.589286 -0.8125,3.75 -0.8125,3.75 0,0 0.649367,-2.243216 1.375,-4.28125 0.347179,-0.306095 0.824519,-0.723043 1.25,-0.875 0.625,-0.223211 2.0625,-0.15625 2.0625,-0.15625 0,0 -1.339285,-0.424107 -2.1875,-0.15625 -0.391483,0.123626 -0.658554,0.299243 -0.84375,0.4375 0.295151,-0.780189 0.585363,-1.491195 0.84375,-1.9375 0.116568,-0.201344 0.287642,-0.435706 0.5,-0.71875 0.344249,-0.132644 0.810119,-0.26369 1.375,-0.4375 1.160715,-0.357143 4.65625,-0.375 4.65625,-0.375 0,0 -1.339286,-0.4375 -2.5,-0.4375 -0.842527,0 -2.047341,0.183539 -2.78125,0.3125 0.527062,-0.636118 1.168892,-1.350789 1.78125,-2.03125 0.513393,-0.167411 1.263393,-0.397322 2.15625,-0.53125 1.785714,-0.267863 5.25,0.09375 5.25,0.09375 0,0 -1.941965,-0.87054 -3.90625,-0.78125 -1.30117,0.05914 -2.122782,0.205251 -2.71875,0.34375 0.901754,-0.976778 1.885101,-2.034617 2.0625,-2.21875 -0.348163,0.101096 -0.603623,0.194103 -0.84375,0.28125 C 39.588728,49.426897 40.098214,48.535714 40.5,48 c 0.535714,-0.714286 1.09375,-0.90625 1.09375,-0.90625 0,0 0.290178,-0.388393 0.15625,-0.65625 -0.133929,-0.267854 -1.125,-0.21875 -1.125,-0.21875 z"
         transform="translate(0,872.35975)"
         id="path5488" />
    </g>
    <g
       id="g5492"
       transform="matrix(0.40612013,-0.52082221,0,0.68209745,28.475629,407.17474)">
      <path
         transform="translate(0,872.35975)"
         inkscape:connector-curvature="0"
         id="path5494"
         d="M 31.567267,65.347686 C 30.557115,64.84261 29.732143,53.75 30.357143,50.803571 c 0.625,-2.946428 4.107143,-5 6.071429,-4.107143 1.964285,0.892857 2.232142,3.482143 2.232142,3.482143 0,0 2.5,-1.071428 5.446429,-1.160714 2.946429,-0.08929 5.267857,3.214286 2.946429,5.535714 -2.321429,2.321429 -11.696429,6.964286 -13.482143,8.482143 -1.785715,1.517857 -2.004162,2.311972 -2.004162,2.311972 z"
         style="fill:url(#radialGradient5742);fill-opacity:1;stroke:none" />
      <path
         id="path5496"
         transform="translate(0,872.35975)"
         d="m 40.625,46.21875 c 0,0 -1.294643,1.138393 -1.5625,2.03125 -0.217656,0.725521 -0.383761,1.435343 -0.46875,1.78125 -0.453421,0.304248 -1.088708,0.800224 -1.71875,1.53125 -0.120764,-0.453305 -0.422277,-1.143003 -1.25,-1.75 -1.339286,-0.982143 -2.9375,-1.15625 -2.9375,-1.15625 0,0 1.785714,0.816964 2.5,1.53125 0.549865,0.549865 0.849068,1.660601 1,2.25 -0.01302,0.02007 -0.01832,0.04219 -0.03125,0.0625 -0.396598,0.623225 -0.844479,1.331564 -1.28125,2.0625 -0.117873,-0.293826 -0.354044,-0.92542 -0.84375,-1.625 -0.625,-0.892857 -2.25,-1.34375 -2.25,-1.34375 0,0 1.526786,1.160714 2.0625,1.875 0.402741,0.536987 0.581334,1.316096 0.65625,1.75 -0.586789,1.028852 -1.132474,2.103824 -1.53125,3.21875 -0.05632,-0.155046 -0.19863,-0.54238 -0.5625,-0.90625 -0.446428,-0.446428 -1.28125,-0.75 -1.28125,-0.75 0,0 0.933036,0.669643 1.15625,1.25 0.169766,0.441391 0.28455,1.128426 0.34375,1.5 -0.01051,0.04132 -0.02128,0.08369 -0.03125,0.125 -0.625,2.589286 -0.8125,3.75 -0.8125,3.75 0,0 0.649367,-2.243216 1.375,-4.28125 0.347179,-0.306095 0.824519,-0.723043 1.25,-0.875 0.625,-0.223211 2.0625,-0.15625 2.0625,-0.15625 0,0 -1.339285,-0.424107 -2.1875,-0.15625 -0.391483,0.123626 -0.658554,0.299243 -0.84375,0.4375 0.295151,-0.780189 0.585363,-1.491195 0.84375,-1.9375 0.116568,-0.201344 0.287642,-0.435706 0.5,-0.71875 0.344249,-0.132644 0.810119,-0.26369 1.375,-0.4375 1.160715,-0.357143 4.65625,-0.375 4.65625,-0.375 0,0 -1.339286,-0.4375 -2.5,-0.4375 -0.842527,0 -2.047341,0.183539 -2.78125,0.3125 0.527062,-0.636118 1.168892,-1.350789 1.78125,-2.03125 0.513393,-0.167411 1.263393,-0.397322 2.15625,-0.53125 1.785714,-0.267863 5.25,0.09375 5.25,0.09375 0,0 -1.941965,-0.87054 -3.90625,-0.78125 -1.30117,0.05914 -2.122782,0.205251 -2.71875,0.34375 0.901754,-0.976778 1.885101,-2.034617 2.0625,-2.21875 -0.348163,0.101096 -0.603623,0.194103 -0.84375,0.28125 C 39.588728,49.426897 40.098214,48.535714 40.5,48 c 0.535714,-0.714286 1.09375,-0.90625 1.09375,-0.90625 0,0 0.290178,-0.388393 0.15625,-0.65625 -0.133929,-0.267854 -1.125,-0.21875 -1.125,-0.21875 z"
         style="fill:#232a16;fill-opacity:1;stroke:none"
         inkscape:connector-curvature="0" />
    </g>
    <g
       transform="matrix(0.83080771,0.28633955,0.13765393,0.95812821,-33.032894,2.4217986)"
       id="g5498">
      <path
         style="fill:url(#radialGradient5504);fill-opacity:1;stroke:none"
         d="M 31.567267,65.347686 C 30.557115,64.84261 29.732143,53.75 30.357143,50.803571 c 0.625,-2.946428 4.107143,-5 6.071429,-4.107143 1.964285,0.892857 2.232142,3.482143 2.232142,3.482143 0,0 2.5,-1.071428 5.446429,-1.160714 2.946429,-0.08929 5.267857,3.214286 2.946429,5.535714 -2.321429,2.321429 -11.696429,6.964286 -13.482143,8.482143 -1.785715,1.517857 -2.004162,2.311972 -2.004162,2.311972 z"
         id="path5500"
         inkscape:connector-curvature="0"
         transform="translate(0,872.35975)" />
      <path
         inkscape:connector-curvature="0"
         style="fill:#232a16;fill-opacity:1;stroke:none"
         d="m 40.625,46.21875 c 0,0 -1.294643,1.138393 -1.5625,2.03125 -0.217656,0.725521 -0.383761,1.435343 -0.46875,1.78125 -0.453421,0.304248 -1.088708,0.800224 -1.71875,1.53125 -0.120764,-0.453305 -0.422277,-1.143003 -1.25,-1.75 -1.339286,-0.982143 -2.9375,-1.15625 -2.9375,-1.15625 0,0 1.785714,0.816964 2.5,1.53125 0.549865,0.549865 0.849068,1.660601 1,2.25 -0.01302,0.02007 -0.01832,0.04219 -0.03125,0.0625 -0.396598,0.623225 -0.844479,1.331564 -1.28125,2.0625 -0.117873,-0.293826 -0.354044,-0.92542 -0.84375,-1.625 -0.625,-0.892857 -2.25,-1.34375 -2.25,-1.34375 0,0 1.526786,1.160714 2.0625,1.875 0.402741,0.536987 0.581334,1.316096 0.65625,1.75 -0.586789,1.028852 -1.132474,2.103824 -1.53125,3.21875 -0.05632,-0.155046 -0.19863,-0.54238 -0.5625,-0.90625 -0.446428,-0.446428 -1.28125,-0.75 -1.28125,-0.75 0,0 0.933036,0.669643 1.15625,1.25 0.169766,0.441391 0.28455,1.128426 0.34375,1.5 -0.01051,0.04132 -0.02128,0.08369 -0.03125,0.125 -0.625,2.589286 -0.8125,3.75 -0.8125,3.75 0,0 0.649367,-2.243216 1.375,-4.28125 0.347179,-0.306095 0.824519,-0.723043 1.25,-0.875 0.625,-0.223211 2.0625,-0.15625 2.0625,-0.15625 0,0 -1.339285,-0.424107 -2.1875,-0.15625 -0.391483,0.123626 -0.658554,0.299243 -0.84375,0.4375 0.295151,-0.780189 0.585363,-1.491195 0.84375,-1.9375 0.116568,-0.201344 0.287642,-0.435706 0.5,-0.71875 0.344249,-0.132644 0.810119,-0.26369 1.375,-0.4375 1.160715,-0.357143 4.65625,-0.375 4.65625,-0.375 0,0 -1.339286,-0.4375 -2.5,-0.4375 -0.842527,0 -2.047341,0.183539 -2.78125,0.3125 0.527062,-0.636118 1.168892,-1.350789 1.78125,-2.03125 0.513393,-0.167411 1.263393,-0.397322 2.15625,-0.53125 1.785714,-0.267863 5.25,0.09375 5.25,0.09375 0,0 -1.941965,-0.87054 -3.90625,-0.78125 -1.30117,0.05914 -2.122782,0.205251 -2.71875,0.34375 0.901754,-0.976778 1.885101,-2.034617 2.0625,-2.21875 -0.348163,0.101096 -0.603623,0.194103 -0.84375,0.28125 C 39.588728,49.426897 40.098214,48.535714 40.5,48 c 0.535714,-0.714286 1.09375,-0.90625 1.09375,-0.90625 0,0 0.290178,-0.388393 0.15625,-0.65625 -0.133929,-0.267854 -1.125,-0.21875 -1.125,-0.21875 z"
         transform="translate(0,872.35975)"
         id="path5502" />
    </g>
    <g
       transform="matrix(-0.07200472,-0.65650945,-0.35828982,0.58041824,472.54994,463.31156)"
       id="g5506">
      <path
         style="fill:url(#radialGradient5512);fill-opacity:1;stroke:none"
         d="M 31.567267,65.347686 C 30.557115,64.84261 29.732143,53.75 30.357143,50.803571 c 0.625,-2.946428 4.107143,-5 6.071429,-4.107143 1.964285,0.892857 2.232142,3.482143 2.232142,3.482143 0,0 2.5,-1.071428 5.446429,-1.160714 2.946429,-0.08929 5.267857,3.214286 2.946429,5.535714 -2.321429,2.321429 -11.696429,6.964286 -13.482143,8.482143 -1.785715,1.517857 -2.004162,2.311972 -2.004162,2.311972 z"
         id="path5508"
         inkscape:connector-curvature="0"
         transform="translate(0,872.35975)" />
      <path
         inkscape:connector-curvature="0"
         style="fill:#232a16;fill-opacity:1;stroke:none"
         d="m 40.625,46.21875 c 0,0 -1.294643,1.138393 -1.5625,2.03125 -0.217656,0.725521 -0.383761,1.435343 -0.46875,1.78125 -0.453421,0.304248 -1.088708,0.800224 -1.71875,1.53125 -0.120764,-0.453305 -0.422277,-1.143003 -1.25,-1.75 -1.339286,-0.982143 -2.9375,-1.15625 -2.9375,-1.15625 0,0 1.785714,0.816964 2.5,1.53125 0.549865,0.549865 0.849068,1.660601 1,2.25 -0.01302,0.02007 -0.01832,0.04219 -0.03125,0.0625 -0.396598,0.623225 -0.844479,1.331564 -1.28125,2.0625 -0.117873,-0.293826 -0.354044,-0.92542 -0.84375,-1.625 -0.625,-0.892857 -2.25,-1.34375 -2.25,-1.34375 0,0 1.526786,1.160714 2.0625,1.875 0.402741,0.536987 0.581334,1.316096 0.65625,1.75 -0.586789,1.028852 -1.132474,2.103824 -1.53125,3.21875 -0.05632,-0.155046 -0.19863,-0.54238 -0.5625,-0.90625 -0.446428,-0.446428 -1.28125,-0.75 -1.28125,-0.75 0,0 0.933036,0.669643 1.15625,1.25 0.169766,0.441391 0.28455,1.128426 0.34375,1.5 -0.01051,0.04132 -0.02128,0.08369 -0.03125,0.125 -0.625,2.589286 -0.8125,3.75 -0.8125,3.75 0,0 0.649367,-2.243216 1.375,-4.28125 0.347179,-0.306095 0.824519,-0.723043 1.25,-0.875 0.625,-0.223211 2.0625,-0.15625 2.0625,-0.15625 0,0 -1.339285,-0.424107 -2.1875,-0.15625 -0.391483,0.123626 -0.658554,0.299243 -0.84375,0.4375 0.295151,-0.780189 0.585363,-1.491195 0.84375,-1.9375 0.116568,-0.201344 0.287642,-0.435706 0.5,-0.71875 0.344249,-0.132644 0.810119,-0.26369 1.375,-0.4375 1.160715,-0.357143 4.65625,-0.375 4.65625,-0.375 0,0 -1.339286,-0.4375 -2.5,-0.4375 -0.842527,0 -2.047341,0.183539 -2.78125,0.3125 0.527062,-0.636118 1.168892,-1.350789 1.78125,-2.03125 0.513393,-0.167411 1.263393,-0.397322 2.15625,-0.53125 1.785714,-0.267863 5.25,0.09375 5.25,0.09375 0,0 -1.941965,-0.87054 -3.90625,-0.78125 -1.30117,0.05914 -2.122782,0.205251 -2.71875,0.34375 0.901754,-0.976778 1.885101,-2.034617 2.0625,-2.21875 -0.348163,0.101096 -0.603623,0.194103 -0.84375,0.28125 C 39.588728,49.426897 40.098214,48.535714 40.5,48 c 0.535714,-0.714286 1.09375,-0.90625 1.09375,-0.90625 0,0 0.290178,-0.388393 0.15625,-0.65625 -0.133929,-0.267854 -1.125,-0.21875 -1.125,-0.21875 z"
         transform="translate(0,872.35975)"
         id="path5510" />
    </g>
    <g
       id="g5514"
       transform="matrix(0.83080771,0.28633955,0.13765393,0.95812821,-41.114114,140.05508)">
      <path
         transform="translate(0,872.35975)"
         inkscape:connector-curvature="0"
         id="path5516"
         d="M 31.567267,65.347686 C 30.557115,64.84261 29.732143,53.75 30.357143,50.803571 c 0.625,-2.946428 4.107143,-5 6.071429,-4.107143 1.964285,0.892857 2.232142,3.482143 2.232142,3.482143 0,0 2.5,-1.071428 5.446429,-1.160714 2.946429,-0.08929 5.267857,3.214286 2.946429,5.535714 -2.321429,2.321429 -11.696429,6.964286 -13.482143,8.482143 -1.785715,1.517857 -2.004162,2.311972 -2.004162,2.311972 z"
         style="fill:url(#radialGradient5520);fill-opacity:1;stroke:none" />
      <path
         id="path5518"
         transform="translate(0,872.35975)"
         d="m 40.625,46.21875 c 0,0 -1.294643,1.138393 -1.5625,2.03125 -0.217656,0.725521 -0.383761,1.435343 -0.46875,1.78125 -0.453421,0.304248 -1.088708,0.800224 -1.71875,1.53125 -0.120764,-0.453305 -0.422277,-1.143003 -1.25,-1.75 -1.339286,-0.982143 -2.9375,-1.15625 -2.9375,-1.15625 0,0 1.785714,0.816964 2.5,1.53125 0.549865,0.549865 0.849068,1.660601 1,2.25 -0.01302,0.02007 -0.01832,0.04219 -0.03125,0.0625 -0.396598,0.623225 -0.844479,1.331564 -1.28125,2.0625 -0.117873,-0.293826 -0.354044,-0.92542 -0.84375,-1.625 -0.625,-0.892857 -2.25,-1.34375 -2.25,-1.34375 0,0 1.526786,1.160714 2.0625,1.875 0.402741,0.536987 0.581334,1.316096 0.65625,1.75 -0.586789,1.028852 -1.132474,2.103824 -1.53125,3.21875 -0.05632,-0.155046 -0.19863,-0.54238 -0.5625,-0.90625 -0.446428,-0.446428 -1.28125,-0.75 -1.28125,-0.75 0,0 0.933036,0.669643 1.15625,1.25 0.169766,0.441391 0.28455,1.128426 0.34375,1.5 -0.01051,0.04132 -0.02128,0.08369 -0.03125,0.125 -0.625,2.589286 -0.8125,3.75 -0.8125,3.75 0,0 0.649367,-2.243216 1.375,-4.28125 0.347179,-0.306095 0.824519,-0.723043 1.25,-0.875 0.625,-0.223211 2.0625,-0.15625 2.0625,-0.15625 0,0 -1.339285,-0.424107 -2.1875,-0.15625 -0.391483,0.123626 -0.658554,0.299243 -0.84375,0.4375 0.295151,-0.780189 0.585363,-1.491195 0.84375,-1.9375 0.116568,-0.201344 0.287642,-0.435706 0.5,-0.71875 0.344249,-0.132644 0.810119,-0.26369 1.375,-0.4375 1.160715,-0.357143 4.65625,-0.375 4.65625,-0.375 0,0 -1.339286,-0.4375 -2.5,-0.4375 -0.842527,0 -2.047341,0.183539 -2.78125,0.3125 0.527062,-0.636118 1.168892,-1.350789 1.78125,-2.03125 0.513393,-0.167411 1.263393,-0.397322 2.15625,-0.53125 1.785714,-0.267863 5.25,0.09375 5.25,0.09375 0,0 -1.941965,-0.87054 -3.90625,-0.78125 -1.30117,0.05914 -2.122782,0.205251 -2.71875,0.34375 0.901754,-0.976778 1.885101,-2.034617 2.0625,-2.21875 -0.348163,0.101096 -0.603623,0.194103 -0.84375,0.28125 C 39.588728,49.426897 40.098214,48.535714 40.5,48 c 0.535714,-0.714286 1.09375,-0.90625 1.09375,-0.90625 0,0 0.290178,-0.388393 0.15625,-0.65625 -0.133929,-0.267854 -1.125,-0.21875 -1.125,-0.21875 z"
         style="fill:#232a16;fill-opacity:1;stroke:none"
         inkscape:connector-curvature="0" />
    </g>
    <g
       transform="matrix(0.67001368,0,0,0.67001368,55.65526,381.15145)"
       id="g5522">
      <path
         style="fill:url(#radialGradient5528);fill-opacity:1;stroke:none"
         d="M 31.567267,65.347686 C 30.557115,64.84261 29.732143,53.75 30.357143,50.803571 c 0.625,-2.946428 4.107143,-5 6.071429,-4.107143 1.964285,0.892857 2.232142,3.482143 2.232142,3.482143 0,0 2.5,-1.071428 5.446429,-1.160714 2.946429,-0.08929 5.267857,3.214286 2.946429,5.535714 -2.321429,2.321429 -11.696429,6.964286 -13.482143,8.482143 -1.785715,1.517857 -2.004162,2.311972 -2.004162,2.311972 z"
         id="path5524"
         inkscape:connector-curvature="0"
         transform="translate(0,872.35975)" />
      <path
         inkscape:connector-curvature="0"
         style="fill:#232a16;fill-opacity:1;stroke:none"
         d="m 40.625,46.21875 c 0,0 -1.294643,1.138393 -1.5625,2.03125 -0.217656,0.725521 -0.383761,1.435343 -0.46875,1.78125 -0.453421,0.304248 -1.088708,0.800224 -1.71875,1.53125 -0.120764,-0.453305 -0.422277,-1.143003 -1.25,-1.75 -1.339286,-0.982143 -2.9375,-1.15625 -2.9375,-1.15625 0,0 1.785714,0.816964 2.5,1.53125 0.549865,0.549865 0.849068,1.660601 1,2.25 -0.01302,0.02007 -0.01832,0.04219 -0.03125,0.0625 -0.396598,0.623225 -0.844479,1.331564 -1.28125,2.0625 -0.117873,-0.293826 -0.354044,-0.92542 -0.84375,-1.625 -0.625,-0.892857 -2.25,-1.34375 -2.25,-1.34375 0,0 1.526786,1.160714 2.0625,1.875 0.402741,0.536987 0.581334,1.316096 0.65625,1.75 -0.586789,1.028852 -1.132474,2.103824 -1.53125,3.21875 -0.05632,-0.155046 -0.19863,-0.54238 -0.5625,-0.90625 -0.446428,-0.446428 -1.28125,-0.75 -1.28125,-0.75 0,0 0.933036,0.669643 1.15625,1.25 0.169766,0.441391 0.28455,1.128426 0.34375,1.5 -0.01051,0.04132 -0.02128,0.08369 -0.03125,0.125 -0.625,2.589286 -0.8125,3.75 -0.8125,3.75 0,0 0.649367,-2.243216 1.375,-4.28125 0.347179,-0.306095 0.824519,-0.723043 1.25,-0.875 0.625,-0.223211 2.0625,-0.15625 2.0625,-0.15625 0,0 -1.339285,-0.424107 -2.1875,-0.15625 -0.391483,0.123626 -0.658554,0.299243 -0.84375,0.4375 0.295151,-0.780189 0.585363,-1.491195 0.84375,-1.9375 0.116568,-0.201344 0.287642,-0.435706 0.5,-0.71875 0.344249,-0.132644 0.810119,-0.26369 1.375,-0.4375 1.160715,-0.357143 4.65625,-0.375 4.65625,-0.375 0,0 -1.339286,-0.4375 -2.5,-0.4375 -0.842527,0 -2.047341,0.183539 -2.78125,0.3125 0.527062,-0.636118 1.168892,-1.350789 1.78125,-2.03125 0.513393,-0.167411 1.263393,-0.397322 2.15625,-0.53125 1.785714,-0.267863 5.25,0.09375 5.25,0.09375 0,0 -1.941965,-0.87054 -3.90625,-0.78125 -1.30117,0.05914 -2.122782,0.205251 -2.71875,0.34375 0.901754,-0.976778 1.885101,-2.034617 2.0625,-2.21875 -0.348163,0.101096 -0.603623,0.194103 -0.84375,0.28125 C 39.588728,49.426897 40.098214,48.535714 40.5,48 c 0.535714,-0.714286 1.09375,-0.90625 1.09375,-0.90625 0,0 0.290178,-0.388393 0.15625,-0.65625 -0.133929,-0.267854 -1.125,-0.21875 -1.125,-0.21875 z"
         transform="translate(0,872.35975)"
         id="path5526" />
    </g>
    <g
       id="g5530"
       transform="matrix(0.24868175,0.23393354,-0.18472945,0.74610041,222.60691,190.82449)">
      <path
         transform="translate(0,872.35975)"
         inkscape:connector-curvature="0"
         id="path5532"
         d="M 31.567267,65.347686 C 30.557115,64.84261 29.732143,53.75 30.357143,50.803571 c 0.625,-2.946428 4.107143,-5 6.071429,-4.107143 1.964285,0.892857 2.232142,3.482143 2.232142,3.482143 0,0 2.5,-1.071428 5.446429,-1.160714 2.946429,-0.08929 5.267857,3.214286 2.946429,5.535714 -2.321429,2.321429 -11.696429,6.964286 -13.482143,8.482143 -1.785715,1.517857 -2.004162,2.311972 -2.004162,2.311972 z"
         style="fill:url(#radialGradient5536);fill-opacity:1;stroke:none" />
      <path
         id="path5534"
         transform="translate(0,872.35975)"
         d="m 40.625,46.21875 c 0,0 -1.294643,1.138393 -1.5625,2.03125 -0.217656,0.725521 -0.383761,1.435343 -0.46875,1.78125 -0.453421,0.304248 -1.088708,0.800224 -1.71875,1.53125 -0.120764,-0.453305 -0.422277,-1.143003 -1.25,-1.75 -1.339286,-0.982143 -2.9375,-1.15625 -2.9375,-1.15625 0,0 1.785714,0.816964 2.5,1.53125 0.549865,0.549865 0.849068,1.660601 1,2.25 -0.01302,0.02007 -0.01832,0.04219 -0.03125,0.0625 -0.396598,0.623225 -0.844479,1.331564 -1.28125,2.0625 -0.117873,-0.293826 -0.354044,-0.92542 -0.84375,-1.625 -0.625,-0.892857 -2.25,-1.34375 -2.25,-1.34375 0,0 1.526786,1.160714 2.0625,1.875 0.402741,0.536987 0.581334,1.316096 0.65625,1.75 -0.586789,1.028852 -1.132474,2.103824 -1.53125,3.21875 -0.05632,-0.155046 -0.19863,-0.54238 -0.5625,-0.90625 -0.446428,-0.446428 -1.28125,-0.75 -1.28125,-0.75 0,0 0.933036,0.669643 1.15625,1.25 0.169766,0.441391 0.28455,1.128426 0.34375,1.5 -0.01051,0.04132 -0.02128,0.08369 -0.03125,0.125 -0.625,2.589286 -0.8125,3.75 -0.8125,3.75 0,0 0.649367,-2.243216 1.375,-4.28125 0.347179,-0.306095 0.824519,-0.723043 1.25,-0.875 0.625,-0.223211 2.0625,-0.15625 2.0625,-0.15625 0,0 -1.339285,-0.424107 -2.1875,-0.15625 -0.391483,0.123626 -0.658554,0.299243 -0.84375,0.4375 0.295151,-0.780189 0.585363,-1.491195 0.84375,-1.9375 0.116568,-0.201344 0.287642,-0.435706 0.5,-0.71875 0.344249,-0.132644 0.810119,-0.26369 1.375,-0.4375 1.160715,-0.357143 4.65625,-0.375 4.65625,-0.375 0,0 -1.339286,-0.4375 -2.5,-0.4375 -0.842527,0 -2.047341,0.183539 -2.78125,0.3125 0.527062,-0.636118 1.168892,-1.350789 1.78125,-2.03125 0.513393,-0.167411 1.263393,-0.397322 2.15625,-0.53125 1.785714,-0.267863 5.25,0.09375 5.25,0.09375 0,0 -1.941965,-0.87054 -3.90625,-0.78125 -1.30117,0.05914 -2.122782,0.205251 -2.71875,0.34375 0.901754,-0.976778 1.885101,-2.034617 2.0625,-2.21875 -0.348163,0.101096 -0.603623,0.194103 -0.84375,0.28125 C 39.588728,49.426897 40.098214,48.535714 40.5,48 c 0.535714,-0.714286 1.09375,-0.90625 1.09375,-0.90625 0,0 0.290178,-0.388393 0.15625,-0.65625 -0.133929,-0.267854 -1.125,-0.21875 -1.125,-0.21875 z"
         style="fill:#232a16;fill-opacity:1;stroke:none"
         inkscape:connector-curvature="0" />
    </g>
    <g
       transform="matrix(0.24868175,0.23393354,-0.18472945,0.74610041,285.99398,251.1811)"
       id="g5538">
      <path
         style="fill:url(#radialGradient5544);fill-opacity:1;stroke:none"
         d="M 31.567267,65.347686 C 30.557115,64.84261 29.732143,53.75 30.357143,50.803571 c 0.625,-2.946428 4.107143,-5 6.071429,-4.107143 1.964285,0.892857 2.232142,3.482143 2.232142,3.482143 0,0 2.5,-1.071428 5.446429,-1.160714 2.946429,-0.08929 5.267857,3.214286 2.946429,5.535714 -2.321429,2.321429 -11.696429,6.964286 -13.482143,8.482143 -1.785715,1.517857 -2.004162,2.311972 -2.004162,2.311972 z"
         id="path5540"
         inkscape:connector-curvature="0"
         transform="translate(0,872.35975)" />
      <path
         inkscape:connector-curvature="0"
         style="fill:#232a16;fill-opacity:1;stroke:none"
         d="m 40.625,46.21875 c 0,0 -1.294643,1.138393 -1.5625,2.03125 -0.217656,0.725521 -0.383761,1.435343 -0.46875,1.78125 -0.453421,0.304248 -1.088708,0.800224 -1.71875,1.53125 -0.120764,-0.453305 -0.422277,-1.143003 -1.25,-1.75 -1.339286,-0.982143 -2.9375,-1.15625 -2.9375,-1.15625 0,0 1.785714,0.816964 2.5,1.53125 0.549865,0.549865 0.849068,1.660601 1,2.25 -0.01302,0.02007 -0.01832,0.04219 -0.03125,0.0625 -0.396598,0.623225 -0.844479,1.331564 -1.28125,2.0625 -0.117873,-0.293826 -0.354044,-0.92542 -0.84375,-1.625 -0.625,-0.892857 -2.25,-1.34375 -2.25,-1.34375 0,0 1.526786,1.160714 2.0625,1.875 0.402741,0.536987 0.581334,1.316096 0.65625,1.75 -0.586789,1.028852 -1.132474,2.103824 -1.53125,3.21875 -0.05632,-0.155046 -0.19863,-0.54238 -0.5625,-0.90625 -0.446428,-0.446428 -1.28125,-0.75 -1.28125,-0.75 0,0 0.933036,0.669643 1.15625,1.25 0.169766,0.441391 0.28455,1.128426 0.34375,1.5 -0.01051,0.04132 -0.02128,0.08369 -0.03125,0.125 -0.625,2.589286 -0.8125,3.75 -0.8125,3.75 0,0 0.649367,-2.243216 1.375,-4.28125 0.347179,-0.306095 0.824519,-0.723043 1.25,-0.875 0.625,-0.223211 2.0625,-0.15625 2.0625,-0.15625 0,0 -1.339285,-0.424107 -2.1875,-0.15625 -0.391483,0.123626 -0.658554,0.299243 -0.84375,0.4375 0.295151,-0.780189 0.585363,-1.491195 0.84375,-1.9375 0.116568,-0.201344 0.287642,-0.435706 0.5,-0.71875 0.344249,-0.132644 0.810119,-0.26369 1.375,-0.4375 1.160715,-0.357143 4.65625,-0.375 4.65625,-0.375 0,0 -1.339286,-0.4375 -2.5,-0.4375 -0.842527,0 -2.047341,0.183539 -2.78125,0.3125 0.527062,-0.636118 1.168892,-1.350789 1.78125,-2.03125 0.513393,-0.167411 1.263393,-0.397322 2.15625,-0.53125 1.785714,-0.267863 5.25,0.09375 5.25,0.09375 0,0 -1.941965,-0.87054 -3.90625,-0.78125 -1.30117,0.05914 -2.122782,0.205251 -2.71875,0.34375 0.901754,-0.976778 1.885101,-2.034617 2.0625,-2.21875 -0.348163,0.101096 -0.603623,0.194103 -0.84375,0.28125 C 39.588728,49.426897 40.098214,48.535714 40.5,48 c 0.535714,-0.714286 1.09375,-0.90625 1.09375,-0.90625 0,0 0.290178,-0.388393 0.15625,-0.65625 -0.133929,-0.267854 -1.125,-0.21875 -1.125,-0.21875 z"
         transform="translate(0,872.35975)"
         id="path5542" />
    </g>
    <g
       id="g5546"
       transform="matrix(0.67001368,-0.39591991,0,0.67001368,146.82153,351.16323)">
      <path
         transform="translate(0,872.35975)"
         inkscape:connector-curvature="0"
         id="path5548"
         d="M 31.567267,65.347686 C 30.557115,64.84261 29.732143,53.75 30.357143,50.803571 c 0.625,-2.946428 4.107143,-5 6.071429,-4.107143 1.964285,0.892857 2.232142,3.482143 2.232142,3.482143 0,0 2.5,-1.071428 5.446429,-1.160714 2.946429,-0.08929 5.267857,3.214286 2.946429,5.535714 -2.321429,2.321429 -11.696429,6.964286 -13.482143,8.482143 -1.785715,1.517857 -2.004162,2.311972 -2.004162,2.311972 z"
         style="fill:url(#radialGradient5552);fill-opacity:1;stroke:none" />
      <path
         id="path5550"
         transform="translate(0,872.35975)"
         d="m 40.625,46.21875 c 0,0 -1.294643,1.138393 -1.5625,2.03125 -0.217656,0.725521 -0.383761,1.435343 -0.46875,1.78125 -0.453421,0.304248 -1.088708,0.800224 -1.71875,1.53125 -0.120764,-0.453305 -0.422277,-1.143003 -1.25,-1.75 -1.339286,-0.982143 -2.9375,-1.15625 -2.9375,-1.15625 0,0 1.785714,0.816964 2.5,1.53125 0.549865,0.549865 0.849068,1.660601 1,2.25 -0.01302,0.02007 -0.01832,0.04219 -0.03125,0.0625 -0.396598,0.623225 -0.844479,1.331564 -1.28125,2.0625 -0.117873,-0.293826 -0.354044,-0.92542 -0.84375,-1.625 -0.625,-0.892857 -2.25,-1.34375 -2.25,-1.34375 0,0 1.526786,1.160714 2.0625,1.875 0.402741,0.536987 0.581334,1.316096 0.65625,1.75 -0.586789,1.028852 -1.132474,2.103824 -1.53125,3.21875 -0.05632,-0.155046 -0.19863,-0.54238 -0.5625,-0.90625 -0.446428,-0.446428 -1.28125,-0.75 -1.28125,-0.75 0,0 0.933036,0.669643 1.15625,1.25 0.169766,0.441391 0.28455,1.128426 0.34375,1.5 -0.01051,0.04132 -0.02128,0.08369 -0.03125,0.125 -0.625,2.589286 -0.8125,3.75 -0.8125,3.75 0,0 0.649367,-2.243216 1.375,-4.28125 0.347179,-0.306095 0.824519,-0.723043 1.25,-0.875 0.625,-0.223211 2.0625,-0.15625 2.0625,-0.15625 0,0 -1.339285,-0.424107 -2.1875,-0.15625 -0.391483,0.123626 -0.658554,0.299243 -0.84375,0.4375 0.295151,-0.780189 0.585363,-1.491195 0.84375,-1.9375 0.116568,-0.201344 0.287642,-0.435706 0.5,-0.71875 0.344249,-0.132644 0.810119,-0.26369 1.375,-0.4375 1.160715,-0.357143 4.65625,-0.375 4.65625,-0.375 0,0 -1.339286,-0.4375 -2.5,-0.4375 -0.842527,0 -2.047341,0.183539 -2.78125,0.3125 0.527062,-0.636118 1.168892,-1.350789 1.78125,-2.03125 0.513393,-0.167411 1.263393,-0.397322 2.15625,-0.53125 1.785714,-0.267863 5.25,0.09375 5.25,0.09375 0,0 -1.941965,-0.87054 -3.90625,-0.78125 -1.30117,0.05914 -2.122782,0.205251 -2.71875,0.34375 0.901754,-0.976778 1.885101,-2.034617 2.0625,-2.21875 -0.348163,0.101096 -0.603623,0.194103 -0.84375,0.28125 C 39.588728,49.426897 40.098214,48.535714 40.5,48 c 0.535714,-0.714286 1.09375,-0.90625 1.09375,-0.90625 0,0 0.290178,-0.388393 0.15625,-0.65625 -0.133929,-0.267854 -1.125,-0.21875 -1.125,-0.21875 z"
         style="fill:#232a16;fill-opacity:1;stroke:none"
         inkscape:connector-curvature="0" />
    </g>
    <g
       transform="matrix(0.27409377,-0.00414007,0,0.69720511,3.4436862,333.88102)"
       id="g5554">
      <path
         style="fill:url(#radialGradient5560);fill-opacity:1;stroke:none"
         d="M 31.567267,65.347686 C 30.557115,64.84261 29.732143,53.75 30.357143,50.803571 c 0.625,-2.946428 4.107143,-5 6.071429,-4.107143 1.964285,0.892857 2.232142,3.482143 2.232142,3.482143 0,0 2.5,-1.071428 5.446429,-1.160714 2.946429,-0.08929 5.267857,3.214286 2.946429,5.535714 -2.321429,2.321429 -11.696429,6.964286 -13.482143,8.482143 -1.785715,1.517857 -2.004162,2.311972 -2.004162,2.311972 z"
         id="path5556"
         inkscape:connector-curvature="0"
         transform="translate(0,872.35975)" />
      <path
         inkscape:connector-curvature="0"
         style="fill:#232a16;fill-opacity:1;stroke:none"
         d="m 40.625,46.21875 c 0,0 -1.294643,1.138393 -1.5625,2.03125 -0.217656,0.725521 -0.383761,1.435343 -0.46875,1.78125 -0.453421,0.304248 -1.088708,0.800224 -1.71875,1.53125 -0.120764,-0.453305 -0.422277,-1.143003 -1.25,-1.75 -1.339286,-0.982143 -2.9375,-1.15625 -2.9375,-1.15625 0,0 1.785714,0.816964 2.5,1.53125 0.549865,0.549865 0.849068,1.660601 1,2.25 -0.01302,0.02007 -0.01832,0.04219 -0.03125,0.0625 -0.396598,0.623225 -0.844479,1.331564 -1.28125,2.0625 -0.117873,-0.293826 -0.354044,-0.92542 -0.84375,-1.625 -0.625,-0.892857 -2.25,-1.34375 -2.25,-1.34375 0,0 1.526786,1.160714 2.0625,1.875 0.402741,0.536987 0.581334,1.316096 0.65625,1.75 -0.586789,1.028852 -1.132474,2.103824 -1.53125,3.21875 -0.05632,-0.155046 -0.19863,-0.54238 -0.5625,-0.90625 -0.446428,-0.446428 -1.28125,-0.75 -1.28125,-0.75 0,0 0.933036,0.669643 1.15625,1.25 0.169766,0.441391 0.28455,1.128426 0.34375,1.5 -0.01051,0.04132 -0.02128,0.08369 -0.03125,0.125 -0.625,2.589286 -0.8125,3.75 -0.8125,3.75 0,0 0.649367,-2.243216 1.375,-4.28125 0.347179,-0.306095 0.824519,-0.723043 1.25,-0.875 0.625,-0.223211 2.0625,-0.15625 2.0625,-0.15625 0,0 -1.339285,-0.424107 -2.1875,-0.15625 -0.391483,0.123626 -0.658554,0.299243 -0.84375,0.4375 0.295151,-0.780189 0.585363,-1.491195 0.84375,-1.9375 0.116568,-0.201344 0.287642,-0.435706 0.5,-0.71875 0.344249,-0.132644 0.810119,-0.26369 1.375,-0.4375 1.160715,-0.357143 4.65625,-0.375 4.65625,-0.375 0,0 -1.339286,-0.4375 -2.5,-0.4375 -0.842527,0 -2.047341,0.183539 -2.78125,0.3125 0.527062,-0.636118 1.168892,-1.350789 1.78125,-2.03125 0.513393,-0.167411 1.263393,-0.397322 2.15625,-0.53125 1.785714,-0.267863 5.25,0.09375 5.25,0.09375 0,0 -1.941965,-0.87054 -3.90625,-0.78125 -1.30117,0.05914 -2.122782,0.205251 -2.71875,0.34375 0.901754,-0.976778 1.885101,-2.034617 2.0625,-2.21875 -0.348163,0.101096 -0.603623,0.194103 -0.84375,0.28125 C 39.588728,49.426897 40.098214,48.535714 40.5,48 c 0.535714,-0.714286 1.09375,-0.90625 1.09375,-0.90625 0,0 0.290178,-0.388393 0.15625,-0.65625 -0.133929,-0.267854 -1.125,-0.21875 -1.125,-0.21875 z"
         transform="translate(0,872.35975)"
         id="path5558" />
    </g>
    <g
       transform="matrix(0.20985092,0.11798169,-0.23083286,0.4181484,279.36934,512.69549)"
       id="g5568">
      <path
         style="fill:url(#radialGradient5574);fill-opacity:1;stroke:none"
         d="M 31.567267,65.347686 C 30.557115,64.84261 29.732143,53.75 30.357143,50.803571 c 0.625,-2.946428 4.107143,-5 6.071429,-4.107143 1.964285,0.892857 2.232142,3.482143 2.232142,3.482143 0,0 2.5,-1.071428 5.446429,-1.160714 2.946429,-0.08929 5.267857,3.214286 2.946429,5.535714 -2.321429,2.321429 -11.696429,6.964286 -13.482143,8.482143 -1.785715,1.517857 -2.004162,2.311972 -2.004162,2.311972 z"
         id="path5570"
         inkscape:connector-curvature="0"
         transform="translate(0,872.35975)" />
      <path
         inkscape:connector-curvature="0"
         style="fill:#232a16;fill-opacity:1;stroke:none"
         d="m 40.625,46.21875 c 0,0 -1.294643,1.138393 -1.5625,2.03125 -0.217656,0.725521 -0.383761,1.435343 -0.46875,1.78125 -0.453421,0.304248 -1.088708,0.800224 -1.71875,1.53125 -0.120764,-0.453305 -0.422277,-1.143003 -1.25,-1.75 -1.339286,-0.982143 -2.9375,-1.15625 -2.9375,-1.15625 0,0 1.785714,0.816964 2.5,1.53125 0.549865,0.549865 0.849068,1.660601 1,2.25 -0.01302,0.02007 -0.01832,0.04219 -0.03125,0.0625 -0.396598,0.623225 -0.844479,1.331564 -1.28125,2.0625 -0.117873,-0.293826 -0.354044,-0.92542 -0.84375,-1.625 -0.625,-0.892857 -2.25,-1.34375 -2.25,-1.34375 0,0 1.526786,1.160714 2.0625,1.875 0.402741,0.536987 0.581334,1.316096 0.65625,1.75 -0.586789,1.028852 -1.132474,2.103824 -1.53125,3.21875 -0.05632,-0.155046 -0.19863,-0.54238 -0.5625,-0.90625 -0.446428,-0.446428 -1.28125,-0.75 -1.28125,-0.75 0,0 0.933036,0.669643 1.15625,1.25 0.169766,0.441391 0.28455,1.128426 0.34375,1.5 -0.01051,0.04132 -0.02128,0.08369 -0.03125,0.125 -0.625,2.589286 -0.8125,3.75 -0.8125,3.75 0,0 0.649367,-2.243216 1.375,-4.28125 0.347179,-0.306095 0.824519,-0.723043 1.25,-0.875 0.625,-0.223211 2.0625,-0.15625 2.0625,-0.15625 0,0 -1.339285,-0.424107 -2.1875,-0.15625 -0.391483,0.123626 -0.658554,0.299243 -0.84375,0.4375 0.295151,-0.780189 0.585363,-1.491195 0.84375,-1.9375 0.116568,-0.201344 0.287642,-0.435706 0.5,-0.71875 0.344249,-0.132644 0.810119,-0.26369 1.375,-0.4375 1.160715,-0.357143 4.65625,-0.375 4.65625,-0.375 0,0 -1.339286,-0.4375 -2.5,-0.4375 -0.842527,0 -2.047341,0.183539 -2.78125,0.3125 0.527062,-0.636118 1.168892,-1.350789 1.78125,-2.03125 0.513393,-0.167411 1.263393,-0.397322 2.15625,-0.53125 1.785714,-0.267863 5.25,0.09375 5.25,0.09375 0,0 -1.941965,-0.87054 -3.90625,-0.78125 -1.30117,0.05914 -2.122782,0.205251 -2.71875,0.34375 0.901754,-0.976778 1.885101,-2.034617 2.0625,-2.21875 -0.348163,0.101096 -0.603623,0.194103 -0.84375,0.28125 C 39.588728,49.426897 40.098214,48.535714 40.5,48 c 0.535714,-0.714286 1.09375,-0.90625 1.09375,-0.90625 0,0 0.290178,-0.388393 0.15625,-0.65625 -0.133929,-0.267854 -1.125,-0.21875 -1.125,-0.21875 z"
         transform="translate(0,872.35975)"
         id="path5572" />
    </g>
    <path
       style="fill:url(#radialGradient5600);fill-opacity:1.0;stroke:none"
       d="M 34.107143,80.714286 C 33.928572,80 35,78.035714 37.321429,76.785714 c 2.321428,-1.25 6.785714,-1.071429 6.785714,-1.071429 0,0 -4.821429,1.25 -5.178571,3.214286 -0.357143,1.964286 -0.714286,4.464286 -0.714286,4.464286 0,0 -3.75,0 -4.107143,-2.678571 z"
       id="path5592"
       inkscape:connector-curvature="0"
       transform="translate(0,872.35975)" />
    <path
       style="fill:url(#radialGradient5614);fill-opacity:1;stroke:none"
       d="m 22.946429,69.821428 c -0.357143,0 -1.964286,1.160715 -2.232143,2.589286 -0.267857,1.428571 1.25,6.785714 1.25,6.785714 0,0 -0.178572,-4.910714 1.160714,-5.357143 1.339286,-0.446428 3.75,-1.517857 3.75,-1.517857 0,0 -1.785714,-3.214285 -3.928571,-2.5 z"
       id="path5606"
       inkscape:connector-curvature="0"
       transform="translate(0,872.35975)" />
    <path
       style="fill:url(#radialGradient5624);fill-opacity:1;stroke:none"
       d="m 12.857143,72.410714 c -1.696429,-0.714286 -5.6250001,1.607143 -5.6250001,1.607143 0,0 2.1428571,-0.446429 3.3035711,0.08929 1.160715,0.535714 2.678572,1.607142 2.678572,1.607142 z"
       id="path5616"
       inkscape:connector-curvature="0"
       transform="translate(0,872.35975)" />
    <path
       inkscape:connector-curvature="0"
       id="path5626"
       d="m 13.214285,957.62761 c 1.696429,-0.71429 5.625001,1.60714 5.625001,1.60714 0,0 -2.142858,-0.44643 -3.303572,0.0893 -1.160715,0.53572 -2.678572,1.60714 -2.678572,1.60714 z"
       style="fill:url(#radialGradient5628);fill-opacity:1;stroke:none" />
    <path
       style="fill:url(#radialGradient5632);fill-opacity:1;stroke:none"
       d="m 64.149388,928.58539 c 2.553867,-0.3796 7.398995,2.64476 7.398995,2.64476 0,0 -2.863255,-0.84472 -4.623278,-0.53885 -1.760022,0.30587 -4.161318,1.06998 -4.161318,1.06998 z"
       id="path5630"
       inkscape:connector-curvature="0" />
    <path
       style="fill:url(#radialGradient5640);fill-opacity:1;stroke:none"
       d="m 48.867881,977.95509 c 1.253894,-1.34753 5.789075,-0.8427 5.789075,-0.8427 0,0 -2.137319,0.47224 -2.975957,1.43709 -0.838643,0.96485 -1.783141,2.56478 -1.783141,2.56478 z"
       id="path5638"
       inkscape:connector-curvature="0" />
    <path
       inkscape:connector-curvature="0"
       id="path5642"
       d="m 49.562201,992.54086 c 2.311742,2.69506 6.450617,1.6854 6.450617,1.6854 0,0 -2.50804,-0.94448 -4.104111,-2.87418 -1.596077,-1.9297 -3.796563,-5.12956 -3.796563,-5.12956 z"
       style="fill:url(#radialGradient5644);fill-opacity:1;stroke:none" />
    <g
       transform="matrix(0.20985092,0.11798169,-0.23083286,0.4181484,263.2069,598.30592)"
       id="g5584">
      <path
         style="fill:url(#radialGradient5590);fill-opacity:1;stroke:none"
         d="M 31.567267,65.347686 C 30.557115,64.84261 29.732143,53.75 30.357143,50.803571 c 0.625,-2.946428 4.107143,-5 6.071429,-4.107143 1.964285,0.892857 2.232142,3.482143 2.232142,3.482143 0,0 2.5,-1.071428 5.446429,-1.160714 2.946429,-0.08929 5.267857,3.214286 2.946429,5.535714 -2.321429,2.321429 -11.696429,6.964286 -13.482143,8.482143 -1.785715,1.517857 -2.004162,2.311972 -2.004162,2.311972 z"
         id="path5586"
         inkscape:connector-curvature="0"
         transform="translate(0,872.35975)" />
      <path
         inkscape:connector-curvature="0"
         style="fill:#232a16;fill-opacity:1;stroke:none"
         d="m 40.625,46.21875 c 0,0 -1.294643,1.138393 -1.5625,2.03125 -0.217656,0.725521 -0.383761,1.435343 -0.46875,1.78125 -0.453421,0.304248 -1.088708,0.800224 -1.71875,1.53125 -0.120764,-0.453305 -0.422277,-1.143003 -1.25,-1.75 -1.339286,-0.982143 -2.9375,-1.15625 -2.9375,-1.15625 0,0 1.785714,0.816964 2.5,1.53125 0.549865,0.549865 0.849068,1.660601 1,2.25 -0.01302,0.02007 -0.01832,0.04219 -0.03125,0.0625 -0.396598,0.623225 -0.844479,1.331564 -1.28125,2.0625 -0.117873,-0.293826 -0.354044,-0.92542 -0.84375,-1.625 -0.625,-0.892857 -2.25,-1.34375 -2.25,-1.34375 0,0 1.526786,1.160714 2.0625,1.875 0.402741,0.536987 0.581334,1.316096 0.65625,1.75 -0.586789,1.028852 -1.132474,2.103824 -1.53125,3.21875 -0.05632,-0.155046 -0.19863,-0.54238 -0.5625,-0.90625 -0.446428,-0.446428 -1.28125,-0.75 -1.28125,-0.75 0,0 0.933036,0.669643 1.15625,1.25 0.169766,0.441391 0.28455,1.128426 0.34375,1.5 -0.01051,0.04132 -0.02128,0.08369 -0.03125,0.125 -0.625,2.589286 -0.8125,3.75 -0.8125,3.75 0,0 0.649367,-2.243216 1.375,-4.28125 0.347179,-0.306095 0.824519,-0.723043 1.25,-0.875 0.625,-0.223211 2.0625,-0.15625 2.0625,-0.15625 0,0 -1.339285,-0.424107 -2.1875,-0.15625 -0.391483,0.123626 -0.658554,0.299243 -0.84375,0.4375 0.295151,-0.780189 0.585363,-1.491195 0.84375,-1.9375 0.116568,-0.201344 0.287642,-0.435706 0.5,-0.71875 0.344249,-0.132644 0.810119,-0.26369 1.375,-0.4375 1.160715,-0.357143 4.65625,-0.375 4.65625,-0.375 0,0 -1.339286,-0.4375 -2.5,-0.4375 -0.842527,0 -2.047341,0.183539 -2.78125,0.3125 0.527062,-0.636118 1.168892,-1.350789 1.78125,-2.03125 0.513393,-0.167411 1.263393,-0.397322 2.15625,-0.53125 1.785714,-0.267863 5.25,0.09375 5.25,0.09375 0,0 -1.941965,-0.87054 -3.90625,-0.78125 -1.30117,0.05914 -2.122782,0.205251 -2.71875,0.34375 0.901754,-0.976778 1.885101,-2.034617 2.0625,-2.21875 -0.348163,0.101096 -0.603623,0.194103 -0.84375,0.28125 C 39.588728,49.426897 40.098214,48.535714 40.5,48 c 0.535714,-0.714286 1.09375,-0.90625 1.09375,-0.90625 0,0 0.290178,-0.388393 0.15625,-0.65625 -0.133929,-0.267854 -1.125,-0.21875 -1.125,-0.21875 z"
         transform="translate(0,872.35975)"
         id="path5588" />
    </g>
    <path
       style="fill:url(#radialGradient5648);fill-opacity:1;stroke:none"
       d="m 30.026931,1004.0869 c -0.357153,0 -1.967682,-1.1549 -2.239513,-2.5829 -0.271923,-1.4278 1.23072,-6.78918 1.23072,-6.78918 0,0 -0.164608,4.91121 1.175925,5.35378 1.340533,0.4427 3.754288,1.5072 3.754288,1.5072 0,0 -1.776531,3.2193 -3.92142,2.5111 z"
       id="path5646"
       inkscape:connector-curvature="0" />
    <path
       inkscape:connector-curvature="0"
       id="path5650"
       d="m 20.85413,1013.4749 c -0.476555,0.5613 -0.386287,2.797 1.141072,4.9461 1.527359,2.1491 5.608721,3.9668 5.608721,3.9668 0,0 -3.768611,-3.2567 -3.21852,-5.1759 0.550089,-1.9192 1.337516,-4.3187 1.337516,-4.3187 0,0 -3.361877,-1.6614 -4.868789,0.5817 z"
       style="fill:url(#radialGradient5652);fill-opacity:1;stroke:none" />
    <path
       inkscape:connector-curvature="0"
       id="path5654"
       d="m 57.774865,944.63973 c -1.599872,-0.91022 -2.15203,-5.43988 -2.15203,-5.43988 0,0 0.951321,1.97132 2.083238,2.56547 1.131918,0.59416 2.906234,1.14521 2.906234,1.14521 z"
       style="fill:url(#radialGradient5656);fill-opacity:1;stroke:none" />
    <path
       style="fill:url(#radialGradient5660);fill-opacity:1;stroke:none"
       d="m 60.642293,921.60402 c -2.802308,-1.23889 -3.769458,-7.40417 -3.769458,-7.40417 0,0 1.666317,2.68315 3.648963,3.49184 1.982648,0.8087 5.090509,1.55873 5.090509,1.55873 z"
       id="path5658"
       inkscape:connector-curvature="0" />
    <path
       inkscape:connector-curvature="0"
       id="path5662"
       d="m 63.571429,971.19904 c -1.696429,-0.71429 -5.625,1.60714 -5.625,1.60714 0,0 2.142857,-0.44643 3.303571,0.0893 1.160715,0.53571 2.678572,1.60714 2.678572,1.60714 z"
       style="fill:url(#radialGradient5664);fill-opacity:1;stroke:none" />
    <path
       style="fill:url(#radialGradient5668);fill-opacity:1;stroke:none"
       d="m 128.61424,1002.8117 c 3.38657,1.0672 6.36747,-1.9765 6.36747,-1.9765 0,0 -2.62843,0.523 -5.00299,-0.2724 -2.37458,-0.79527 -5.93332,-2.34987 -5.93332,-2.34987 z"
       id="path5666"
       inkscape:connector-curvature="0" />
    <path
       inkscape:connector-curvature="0"
       id="path5670"
       d="m 106.42601,994.31502 c -0.48271,-0.55595 -0.41711,-2.79248 1.08645,-4.95832 1.50356,-2.16583 5.56461,-4.02853 5.56461,-4.02853 0,0 -3.73246,3.2981 -3.16123,5.21113 0.57121,1.91304 1.38507,4.30368 1.38507,4.30368 0,0 -3.34335,1.6984 -4.8749,-0.52796 z"
       style="fill:url(#radialGradient5672);fill-opacity:1;stroke:none" />
    <path
       inkscape:connector-curvature="0"
       id="path5674"
       d="m 117.24352,970.63515 c -0.21944,0.2818 -0.29759,2.26207 0.66213,3.35386 0.95966,1.09159 6.11297,3.19993 6.11297,3.19993 0,0 -3.97625,-2.8873 -3.50189,-4.21696 0.47429,-1.32971 1.11728,-3.88821 1.11728,-3.88821 0,0 -3.63153,-0.57608 -4.39049,1.55138 z"
       style="fill:url(#radialGradient5676);fill-opacity:1;stroke:none" />
    <path
       style="fill:url(#radialGradient5680);fill-opacity:1;stroke:none"
       d="m 92.610871,918.42328 c -0.07131,-0.46616 -1.742206,-2.3104 -3.464741,-2.34656 -1.722313,-0.036 -7.685619,3.12116 -7.685619,3.12116 0,0 5.704578,-1.31079 6.48939,0.3401 0.78491,1.65086 2.510583,4.56366 2.510583,4.56366 0,0 3.4061,-3.03694 2.150387,-5.67836 z"
       id="path5678"
       inkscape:connector-curvature="0" />
    <path
       inkscape:connector-curvature="0"
       id="path5682"
       d="m 35.608076,896.12284 c -1.835385,-1.86713 -8.788289,-1.42417 -8.788289,-1.42417 0,0 3.235198,0.74136 4.459029,2.07525 1.223845,1.33386 2.572132,3.52283 2.572132,3.52283 z"
       style="fill:url(#radialGradient5684);fill-opacity:1;stroke:none" />
    <path
       style="fill:url(#radialGradient5688);fill-opacity:1;stroke:none"
       d="m 50.477743,885.64686 c 1.28007,1.32269 0.538626,5.82524 0.538626,5.82524 0,0 -0.359753,-2.1591 -1.279406,-3.04708 -0.919645,-0.88798 -2.467954,-1.9149 -2.467954,-1.9149 z"
       id="path5686"
       inkscape:connector-curvature="0" />
    <path
       inkscape:connector-curvature="0"
       id="path5690"
       d="m 108.60291,887.39751 c 0.0684,-0.35054 1.51043,-1.71002 2.96406,-1.70328 1.45345,0.007 6.42771,2.50841 6.42771,2.50841 0,0 -4.78873,-1.10231 -5.47989,0.12862 -0.69129,1.23091 -2.19843,3.39606 -2.19843,3.39606 0,0 -2.81939,-2.3603 -1.71345,-4.32981 z"
       style="fill:url(#radialGradient5692);fill-opacity:1;stroke:none" />
    <path
       inkscape:connector-curvature="0"
       id="path5694"
       d="m 126.25634,915.91507 c 1.8337,1.81766 2.31406,7.50899 2.31406,7.50899 0,0 -1.03863,-2.79875 -2.33778,-4.0249 -1.29916,-1.22615 -3.34936,-2.69132 -3.34936,-2.69132 z"
       style="fill:url(#radialGradient5696);fill-opacity:1;stroke:none" />
    <path
       style="fill:url(#radialGradient5700);fill-opacity:1;stroke:none"
       d="m 164.73898,920.14675 c 2.23178,-1.29828 7.85238,-0.28296 7.85238,-0.28296 0,0 -2.97252,0.27555 -4.49418,1.21138 -1.52166,0.93584 -3.46933,2.53479 -3.46933,2.53479 z"
       id="path5698"
       inkscape:connector-curvature="0" />
    <path
       style="fill:url(#radialGradient5704);fill-opacity:1;stroke:none"
       d="m 165.39691,938.3583 c -0.14014,-0.32852 -1.83442,-1.35662 -3.25455,-1.04629 -1.41992,0.31038 -5.76166,3.79621 -5.76166,3.79621 0,0 4.45264,-2.07872 5.3858,-1.01937 0.93324,1.05931 2.85955,2.86172 2.85955,2.86172 0,0 2.26393,-2.89733 0.77086,-4.59227 z"
       id="path5702"
       inkscape:connector-curvature="0" />
    <g
       id="g5576"
       transform="matrix(0.20985092,0.11798169,-0.23083286,0.4181484,362.95946,547.79829)">
      <path
         transform="translate(0,872.35975)"
         inkscape:connector-curvature="0"
         id="path5578"
         d="M 31.567267,65.347686 C 30.557115,64.84261 29.732143,53.75 30.357143,50.803571 c 0.625,-2.946428 4.107143,-5 6.071429,-4.107143 1.964285,0.892857 2.232142,3.482143 2.232142,3.482143 0,0 2.5,-1.071428 5.446429,-1.160714 2.946429,-0.08929 5.267857,3.214286 2.946429,5.535714 -2.321429,2.321429 -11.696429,6.964286 -13.482143,8.482143 -1.785715,1.517857 -2.004162,2.311972 -2.004162,2.311972 z"
         style="fill:url(#radialGradient5582);fill-opacity:1;stroke:none" />
      <path
         id="path5580"
         transform="translate(0,872.35975)"
         d="m 40.625,46.21875 c 0,0 -1.294643,1.138393 -1.5625,2.03125 -0.217656,0.725521 -0.383761,1.435343 -0.46875,1.78125 -0.453421,0.304248 -1.088708,0.800224 -1.71875,1.53125 -0.120764,-0.453305 -0.422277,-1.143003 -1.25,-1.75 -1.339286,-0.982143 -2.9375,-1.15625 -2.9375,-1.15625 0,0 1.785714,0.816964 2.5,1.53125 0.549865,0.549865 0.849068,1.660601 1,2.25 -0.01302,0.02007 -0.01832,0.04219 -0.03125,0.0625 -0.396598,0.623225 -0.844479,1.331564 -1.28125,2.0625 -0.117873,-0.293826 -0.354044,-0.92542 -0.84375,-1.625 -0.625,-0.892857 -2.25,-1.34375 -2.25,-1.34375 0,0 1.526786,1.160714 2.0625,1.875 0.402741,0.536987 0.581334,1.316096 0.65625,1.75 -0.586789,1.028852 -1.132474,2.103824 -1.53125,3.21875 -0.05632,-0.155046 -0.19863,-0.54238 -0.5625,-0.90625 -0.446428,-0.446428 -1.28125,-0.75 -1.28125,-0.75 0,0 0.933036,0.669643 1.15625,1.25 0.169766,0.441391 0.28455,1.128426 0.34375,1.5 -0.01051,0.04132 -0.02128,0.08369 -0.03125,0.125 -0.625,2.589286 -0.8125,3.75 -0.8125,3.75 0,0 0.649367,-2.243216 1.375,-4.28125 0.347179,-0.306095 0.824519,-0.723043 1.25,-0.875 0.625,-0.223211 2.0625,-0.15625 2.0625,-0.15625 0,0 -1.339285,-0.424107 -2.1875,-0.15625 -0.391483,0.123626 -0.658554,0.299243 -0.84375,0.4375 0.295151,-0.780189 0.585363,-1.491195 0.84375,-1.9375 0.116568,-0.201344 0.287642,-0.435706 0.5,-0.71875 0.344249,-0.132644 0.810119,-0.26369 1.375,-0.4375 1.160715,-0.357143 4.65625,-0.375 4.65625,-0.375 0,0 -1.339286,-0.4375 -2.5,-0.4375 -0.842527,0 -2.047341,0.183539 -2.78125,0.3125 0.527062,-0.636118 1.168892,-1.350789 1.78125,-2.03125 0.513393,-0.167411 1.263393,-0.397322 2.15625,-0.53125 1.785714,-0.267863 5.25,0.09375 5.25,0.09375 0,0 -1.941965,-0.87054 -3.90625,-0.78125 -1.30117,0.05914 -2.122782,0.205251 -2.71875,0.34375 0.901754,-0.976778 1.885101,-2.034617 2.0625,-2.21875 -0.348163,0.101096 -0.603623,0.194103 -0.84375,0.28125 C 39.588728,49.426897 40.098214,48.535714 40.5,48 c 0.535714,-0.714286 1.09375,-0.90625 1.09375,-0.90625 0,0 0.290178,-0.388393 0.15625,-0.65625 -0.133929,-0.267854 -1.125,-0.21875 -1.125,-0.21875 z"
         style="fill:#232a16;fill-opacity:1;stroke:none"
         inkscape:connector-curvature="0" />
    </g>
    <path
       style="fill:url(#radialGradient5708);fill-opacity:1;stroke:none"
       d="m 159.86915,967.00186 c 2.58188,-0.0163 6.95302,3.65997 6.95302,3.65997 0,0 -2.71583,-1.23936 -4.50139,-1.1843 -1.78556,0.0551 -4.2705,0.47354 -4.2705,0.47354 z"
       id="path5706"
       inkscape:connector-curvature="0" />
    <path
       inkscape:connector-curvature="0"
       id="path5710"
       d="m 150.8295,996.84788 c -0.58238,1.74615 -4.91874,3.16692 -4.91874,3.16692 0,0 1.7492,-1.31587 2.11234,-2.54154 0.36317,-1.22571 0.55934,-3.07325 0.55934,-3.07325 z"
       style="fill:url(#radialGradient5712);fill-opacity:1;stroke:none" />
    <path
       style="fill:url(#radialGradient5716);fill-opacity:1;stroke:none"
       d="m 153.86521,978.63836 c -0.58238,-1.74615 -4.91874,-3.16692 -4.91874,-3.16692 0,0 1.7492,1.31587 2.11234,2.54154 0.36317,1.22571 0.55934,3.07325 0.55934,3.07325 z"
       id="path5714"
       inkscape:connector-curvature="0" />
    <path
       style="fill:url(#radialGradient5720);fill-opacity:1;stroke:none"
       d="m 169.28571,983.3419 c 1.69643,-0.71429 5.625,1.60714 5.625,1.60714 0,0 -2.14285,-0.44643 -3.30357,0.0893 -1.16071,0.53572 -2.67857,1.60714 -2.67857,1.60714 z"
       id="path5718"
       inkscape:connector-curvature="0" />
    <path
       style="fill:url(#radialGradient5724);fill-opacity:1;stroke:none"
       d="m 111.78571,922.62761 c -1.69642,-0.71429 -5.625,1.60714 -5.625,1.60714 0,0 2.14286,-0.44643 3.30358,0.0893 1.16071,0.53571 2.67857,1.60714 2.67857,1.60714 z"
       id="path5722"
       inkscape:connector-curvature="0" />
    <path
       style="fill:url(#radialGradient5728);fill-opacity:1;stroke:none"
       d="m 151.96429,928.87761 c 1.69642,-0.71429 5.625,1.60714 5.625,1.60714 0,0 -2.14286,-0.44643 -3.30358,0.0893 -1.16071,0.53572 -2.67857,1.60714 -2.67857,1.60714 z"
       id="path5726"
       inkscape:connector-curvature="0" />
    <path
       style="fill:url(#radialGradient5732);fill-opacity:1;stroke:none"
       d="m 143.94769,939.45225 c 1.16295,1.42676 0.0413,5.84995 0.0413,5.84995 0,0 -0.17483,-2.18187 -1.01564,-3.14485 -0.84079,-0.96296 -2.29616,-2.11784 -2.29616,-2.11784 z"
       id="path5730"
       inkscape:connector-curvature="0" />
    <path
       inkscape:connector-curvature="0"
       id="path5734"
       d="m 131.9834,1017.6665 c 1.16295,1.4268 0.0413,5.85 0.0413,5.85 0,0 -0.17483,-2.1819 -1.01564,-3.1449 -0.84079,-0.9629 -2.29616,-2.1178 -2.29616,-2.1178 z"
       style="fill:url(#radialGradient5736);fill-opacity:1;stroke:none" />
    <path
       style="fill:url(#radialGradient5740);fill-opacity:1;stroke:none"
       d="m 55.190635,1009.788 c -0.576576,-0.1774 -2.475071,0.1374 -4.011272,1.1797 -1.536201,1.0423 -2.276572,3.3564 -2.276572,3.3564 0,0 2.03656,-2.3262 3.792019,-2.2741 1.755451,0.052 3.970247,0.1683 3.970247,0.1683 0,0 0.750503,-1.9258 -1.474422,-2.4303 z"
       id="path5738"
       inkscape:connector-curvature="0" />
    <path
       inkscape:connector-curvature="0"
       id="path5744"
       d="m 91.686016,933.50465 c -0.512747,0.10999 -1.794594,1.0533 -2.475698,2.32574 -0.681104,1.27244 -0.190117,3.05695 -0.190117,3.05695 0,0 0.475904,-2.29743 1.816354,-2.94781 1.3404,-0.65044 3.054461,-1.4383 3.054461,-1.4383 0,0 -0.307804,-1.53743 -2.205,-0.99658 z"
       style="fill:url(#radialGradient5746);fill-opacity:1;stroke:none" />
    <path
       style="fill:url(#radialGradient5750);fill-opacity:1;stroke:none"
       d="m 29.900302,911.00465 c -0.512747,0.10999 -1.794594,1.0533 -2.475698,2.32574 -0.681104,1.27244 -0.190117,3.05695 -0.190117,3.05695 0,0 0.475904,-2.29743 1.816354,-2.94781 1.3404,-0.65044 3.054461,-1.4383 3.054461,-1.4383 0,0 -0.307804,-1.53743 -2.205,-0.99658 z"
       id="path5748"
       inkscape:connector-curvature="0" />
    <path
       style="fill:url(#radialGradient5754);fill-opacity:1;stroke:none"
       d="m 45.277419,911.98746 c -0.676055,-1.71203 1.732919,-5.58753 1.732919,-5.58753 0,0 -0.494387,2.1323 0.01517,3.30474 0.509547,1.17244 1.546648,2.71395 1.546648,2.71395 z"
       id="path5752"
       inkscape:connector-curvature="0" />
    <path
       inkscape:connector-curvature="0"
       id="path5756"
       d="m 136.56577,894.64601 c -1.29521,-1.30785 -5.81249,-0.66214 -5.81249,-0.66214 0,0 2.15098,0.4055 3.01924,1.3438 0.86826,0.93828 1.86209,2.50804 1.86209,2.50804 z"
       style="fill:url(#radialGradient5758);fill-opacity:1;stroke:none" />
    <path
       style="fill:url(#radialGradient5762);fill-opacity:1;stroke:none"
       d="m 80.078873,879.30775 c -0.512747,-0.10999 -1.794594,-1.0533 -2.475698,-2.32574 -0.681104,-1.27244 -0.190117,-3.05695 -0.190117,-3.05695 0,0 0.475904,2.29743 1.816354,2.94781 1.3404,0.65044 3.054461,1.4383 3.054461,1.4383 0,0 -0.307804,1.53743 -2.205,0.99658 z"
       id="path5760"
       inkscape:connector-curvature="0" />
    <path
       inkscape:connector-curvature="0"
       id="path5764"
       d="m 100.37716,1043.8785 c 1.77524,0.4863 3.43019,4.7389 3.43019,4.7389 0,0 -1.40924,-1.675 -2.65281,-1.9708 -1.24367,-0.2958 -3.09921,-0.391 -3.09921,-0.391 z"
       style="fill:url(#radialGradient5766);fill-opacity:1;stroke:none" />
    <path
       inkscape:connector-curvature="0"
       id="path5768"
       d="m 66.841441,1040.4902 c -3.38657,1.0672 -6.36747,-1.9765 -6.36747,-1.9765 0,0 2.62843,0.523 5.00299,-0.2724 2.37458,-0.7952 5.93332,-2.3498 5.93332,-2.3498 z"
       style="fill:url(#radialGradient5770);fill-opacity:1;stroke:none" />
    <path
       style="fill:url(#radialGradient5774);fill-opacity:1;stroke:none"
       d="m 86.572725,1030.9423 c -0.639265,-1.7261 -5.01981,-3.0042 -5.01981,-3.0042 0,0 1.791338,1.2579 2.194685,2.4708 0.403129,1.2132 0.659679,3.0534 0.659679,3.0534 z"
       id="path5772"
       inkscape:connector-curvature="0" />
  </g>
</svg>
